<svg width="40" height="40" fill="none" xmlns="http://www.w3.org/2000/svg"><circle cx="20" cy="20" r="20" fill="#F04935"/><g clip-path="url(#a)" fill="#fff"><path d="M19.076 10.212a2.136 2.136 0 0 1 .646-1.56A2.124 2.124 0 0 1 21.288 8c.644 0 1.18.21 1.606.63.427.418.64.946.64 1.582a2.168 2.168 0 0 1-.651 1.595 2.171 2.171 0 0 1-1.595.651 2.111 2.111 0 0 1-1.566-.66 2.183 2.183 0 0 1-.646-1.586zM13.46 22.155c-.27.039-.494.073-.697.18a1.206 1.206 0 0 0-.698 1.011l.806 6.17.197 1.56c.008.1.027.2.057.296.024.077.06.15.105.218a.894.894 0 0 0 .367.31 1.154 1.154 0 0 0 .995-.018c.3-.157.48-.428.484-.741l-.66-6.16-.072-.66.667-.07 3.843-.41.96-.095c.268-.023.534-.076.79-.16.463-.163.71-.43.885-.933.158-.469.233-1.172.364-1.789l.339-1.903.678-3.807.17-.937c.05-.251.051-.51.008-.762a.64.64 0 0 0-.297-.45c-.163-.101-.42-.15-.694-.157-1.14-.018-2.34.458-3.09 1.371a4.004 4.004 0 0 0-.82 1.573c-.07.311-.12.627-.154.944l-.13.977-.526 3.798c-1.027.24-2.069.364-3.104.528l-.772.116z"/><path d="M27.938 13.41H24.63l-.365 2.308-.028.168-.245 1.5a529.269 529.269 0 0 1-.947 5.7c-.208 1.2-1.11 2.035-2.353 2.177-.648.073-1.46.164-4.347.245l.773 3.305c2.312-.01 3.51-.227 3.797-.27 2.944-.442 4.832-2.072 5.318-4.59.414-2.138.751-4.32 1.084-6.468.11-.716.22-1.433.336-2.15.005-.032.003-.06.006-.095l.278-1.83z"/></g><defs><clipPath id="a"><path fill="#fff" transform="translate(8 8)" d="M0 0h24v24H0z"/></clipPath></defs></svg>