<svg width="24" height="24" viewBox="0 0 24 24" fill="none" xmlns="http://www.w3.org/2000/svg">
<g id="Timer" clip-path="url(#clip0_873_13497)">
<g id="Group">
<path id="Vector" d="M17.6176 6.46824L19.0706 5.01524L20.4846 6.42924L19.0316 7.88224C20.4673 9.67941 21.1605 11.9581 20.9687 14.2504C20.7768 16.5426 19.7146 18.6744 18.0001 20.208C16.2856 21.7415 14.0489 22.5603 11.7496 22.4963C9.45018 22.4323 7.26258 21.4903 5.63604 19.8638C4.00951 18.2372 3.0675 16.0496 3.00349 13.7503C2.93948 11.4509 3.75832 9.21426 5.29185 7.49975C6.82538 5.78525 8.95718 4.723 11.2494 4.53116C13.5417 4.33933 15.8204 5.03247 17.6176 6.46824V6.46824ZM10.9996 8.50024V14.5002H12.9996V8.50024H10.9996ZM7.99957 1.50024H15.9996V3.50024H7.99957V1.50024Z" fill="#8D8D8F"/>
</g>
</g>
<defs>
<clipPath id="clip0_873_13497">
<rect width="24" height="24" fill="white"/>
</clipPath>
</defs>
</svg>
