<svg width="24" height="24" viewBox="0 0 24 24" fill="none" xmlns="http://www.w3.org/2000/svg">
<g id="Map Pin" clip-path="url(#clip0_873_13491)">
<g id="Group">
<path id="Vector" d="M18.364 16.4999L12 22.8639L5.636 16.4999C4.37734 15.2412 3.52019 13.6376 3.17293 11.8918C2.82567 10.1459 3.00391 8.33634 3.6851 6.69181C4.36629 5.04728 5.51984 3.64168 6.99988 2.65275C8.47992 1.66382 10.22 1.13599 12 1.13599C13.78 1.13599 15.5201 1.66382 17.0001 2.65275C18.4802 3.64168 19.6337 5.04728 20.3149 6.69181C20.9961 8.33634 21.1743 10.1459 20.8271 11.8918C20.4798 13.6376 19.6227 15.2412 18.364 16.4999V16.4999ZM12 14.1359C13.0609 14.1359 14.0783 13.7145 14.8284 12.9643C15.5786 12.2142 16 11.1968 16 10.1359C16 9.07504 15.5786 8.05763 14.8284 7.30748C14.0783 6.55734 13.0609 6.13591 12 6.13591C10.9391 6.13591 9.92172 6.55734 9.17158 7.30748C8.42143 8.05763 8 9.07504 8 10.1359C8 11.1968 8.42143 12.2142 9.17158 12.9643C9.92172 13.7145 10.9391 14.1359 12 14.1359V14.1359ZM12 12.1359C11.4696 12.1359 10.9609 11.9252 10.5858 11.5501C10.2107 11.175 10 10.6663 10 10.1359C10 9.60548 10.2107 9.09677 10.5858 8.72169C10.9609 8.34662 11.4696 8.13591 12 8.13591C12.5304 8.13591 13.0391 8.34662 13.4142 8.72169C13.7893 9.09677 14 9.60548 14 10.1359C14 10.6663 13.7893 11.175 13.4142 11.5501C13.0391 11.9252 12.5304 12.1359 12 12.1359Z" fill="#8D8D8F"/>
</g>
</g>
<defs>
<clipPath id="clip0_873_13491">
<rect width="24" height="24" fill="white"/>
</clipPath>
</defs>
</svg>
