<svg width="32" height="32" viewBox="0 0 32 32" fill="none" xmlns="http://www.w3.org/2000/svg">
<g clip-path="url(#clip0_1101_54664)">
<path d="M14.8319 27.1775C14.8329 27.9505 16.5586 27.9433 22.1867 27.1708C28.1437 26.349 29.4232 25.944 29.1145 25.0646C28.6757 23.8603 14.8617 25.9282 14.8319 27.1775Z" fill="#F04935"/>
<path d="M9.9031 3.87692C7.82804 3.98797 7.58535 4.36648 6.54078 9.1032C5.45685 13.9943 5.42966 14.93 6.31212 15.2279C7.91426 15.7616 8.60858 14.5669 10.2453 8.5902C11.4503 4.17996 11.4347 3.79495 9.9031 3.87692Z" fill="#F04935"/>
<path d="M22.2309 9.52973C20.6561 9.60811 20.101 9.96019 18.3533 11.9619C13.1914 17.9195 9.03866 21.7637 12.1012 21.549C13.3517 21.47 14.4238 20.4619 20.69 13.6949C24.1366 9.93758 24.3383 9.43882 22.2309 9.52973Z" fill="#F04935"/>
</g>
<defs>
<clipPath id="clip0_1101_54664">
<rect width="32" height="32" fill="white"/>
</clipPath>
</defs>
</svg>
