<svg width="35" height="35" viewBox="0 0 35 35" fill="none" xmlns="http://www.w3.org/2000/svg">
<path d="M23.1642 28.7864L9.88159 27.6243L9.76538 28.9526C9.73456 29.3049 9.56506 29.6305 9.29417 29.8578C9.02328 30.0851 8.67319 30.1955 8.32091 30.1647L5.66439 29.9322C5.31212 29.9014 4.98651 29.7319 4.75921 29.461C4.53191 29.1901 4.42152 28.84 4.45234 28.4878L5.49821 16.5334L4.16995 16.4172L4.63478 11.1042L5.96304 11.2204L6.31166 7.23562C6.3733 6.53106 6.7123 5.87986 7.25408 5.42525C7.79586 4.97064 8.49605 4.74987 9.2006 4.81151L27.7962 6.43842C28.5008 6.50006 29.152 6.83906 29.6066 7.38084C30.0612 7.92262 30.282 8.6228 30.2203 9.32736L29.8717 13.3121L31.2 13.4283L30.7351 18.7414L29.4069 18.6252L28.361 30.5795C28.3302 30.9318 28.1607 31.2574 27.8898 31.4847C27.6189 31.712 27.2688 31.8224 26.9165 31.7916L24.26 31.5591C23.9078 31.5283 23.5821 31.3588 23.3548 31.0879C23.1275 30.817 23.0172 30.467 23.048 30.1147L23.1642 28.7864ZM8.96818 7.46803L8.15473 16.7658L26.7504 18.3928L27.5638 9.09494L8.96818 7.46803ZM10.7781 25.0259C11.3065 25.0722 11.8317 24.9066 12.238 24.5656C12.6444 24.2247 12.8986 23.7363 12.9448 23.2078C12.9911 22.6794 12.8255 22.1543 12.4845 21.748C12.1436 21.3416 11.6552 21.0874 11.1268 21.0411C10.5983 20.9949 10.0732 21.1605 9.66687 21.5014C9.26053 21.8424 9.00629 22.3308 8.96006 22.8592C8.91383 23.3876 9.0794 23.9128 9.42036 24.3191C9.76131 24.7254 10.2497 24.9797 10.7781 25.0259ZM22.7325 26.0718C23.2609 26.118 23.786 25.9524 24.1924 25.6115C24.5987 25.2705 24.8529 24.7821 24.8992 24.2537C24.9454 23.7253 24.7798 23.2002 24.4389 22.7938C24.0979 22.3875 23.6095 22.1332 23.0811 22.087C22.5527 22.0408 22.0275 22.2064 21.6212 22.5473C21.2149 22.8883 20.9606 23.3767 20.9144 23.9051C20.8682 24.4335 21.0337 24.9586 21.3747 25.365C21.7156 25.7713 22.2041 26.0256 22.7325 26.0718Z" fill="white"/>
</svg>
