<svg width="1440" height="157" viewBox="0 0 1440 157" fill="none" xmlns="http://www.w3.org/2000/svg">
<path opacity="0.2" d="M0 125H1440V157H0V125Z" fill="#151414"/>
<path d="M1.34552e-05 148V157H7.85933V150.916H90.665V157H98.5243V150.916H182.996V157H190.856V150.916H275.343V157H283.203V150.916H367.675V157H375.534V150.916H460.022V157H467.881V150.916H552.353V157H560.212V150.916H644.7V157H652.559V150.916H737.047V157H744.906V150.916H829.378V157H837.237V150.916H921.725V157H929.584V150.916H1014.06V157H1021.92V150.916H1106.4V157H1114.26V150.916H1198.42V157H1206.28V150.916H1290.77V157H1298.63V150.916H1383.1V157H1390.96V150.916H1440V148H1.34552e-05Z" fill="white"/>
<path d="M1282.92 33.5401C1273.57 33.5401 1265.99 26.0319 1265.99 16.7701C1265.99 7.50821 1273.57 0 1282.92 0C1292.27 0 1299.85 7.50821 1299.85 16.7701C1299.85 26.0319 1292.27 33.5401 1282.92 33.5401Z" fill="#FFB728"/>
<path d="M1185.52 125.186H1213.65C1213.97 123.619 1213.95 122.003 1213.58 120.445C1213.22 118.888 1212.53 117.424 1211.55 116.152C1210.58 114.879 1209.34 113.827 1207.92 113.065C1206.5 112.304 1204.94 111.849 1203.33 111.733C1203.21 109.478 1202.22 107.354 1200.57 105.8C1198.92 104.247 1196.72 103.382 1194.45 103.386C1192.17 103.389 1189.98 104.261 1188.33 105.82C1186.68 107.379 1185.7 109.506 1185.59 111.762L1185.52 125.186Z" fill="#EE3420"/>
<path d="M1218.83 125.344H1325.69L1289.26 89.6109C1284.7 85.0972 1278.52 82.5615 1272.08 82.5615C1265.63 82.5615 1259.45 85.0972 1254.9 89.6109L1218.83 125.344Z" fill="#EE3420"/>
<path d="M1314.16 17.1875H1342.7V125.2H1314.16V17.1875Z" fill="#F5887C"/>
<path d="M1281.75 17.1875H1314.16V125.2H1281.75V17.1875Z" fill="#FEF2F0"/>
<path d="M1281.75 122.481H1314.16V125.202H1281.75V122.481Z" fill="#F5887C"/>
<path d="M1281.75 98.3291H1314.16V122.481H1281.75V98.3291Z" fill="#F5887C"/>
<path d="M1305.77 24.7002H1308.67V36.742H1305.77V24.7002Z" fill="#F47B6D"/>
<path d="M1305.77 38.6904H1308.67V50.7322H1305.77V38.6904Z" fill="#F47B6D"/>
<path d="M1305.77 52.6826H1308.67V64.7244H1305.77V52.6826Z" fill="#F47B6D"/>
<path d="M1305.77 66.6748H1308.67V78.7166H1305.77V66.6748Z" fill="#F47B6D"/>
<path d="M1305.77 80.668H1308.67V92.7098H1305.77V80.668Z" fill="#F47B6D"/>
<path d="M1299.63 24.7002H1302.53V36.742H1299.63V24.7002Z" fill="#F47B6D"/>
<path d="M1299.63 38.6904H1302.53V50.7322H1299.63V38.6904Z" fill="#F47B6D"/>
<path d="M1299.63 52.6826H1302.53V64.7244H1299.63V52.6826Z" fill="#F47B6D"/>
<path d="M1299.63 66.6748H1302.53V78.7166H1299.63V66.6748Z" fill="#F47B6D"/>
<path d="M1299.63 80.668H1302.53V92.7098H1299.63V80.668Z" fill="#F47B6D"/>
<path d="M1293.5 24.7002H1296.39V36.742H1293.5V24.7002Z" fill="#F47B6D"/>
<path d="M1293.5 38.6904H1296.39V50.7322H1293.5V38.6904Z" fill="#F47B6D"/>
<path d="M1293.5 52.6826H1296.39V64.7244H1293.5V52.6826Z" fill="#F47B6D"/>
<path d="M1293.5 66.6748H1296.39V78.7166H1293.5V66.6748Z" fill="#F47B6D"/>
<path d="M1293.5 80.668H1296.39V92.7098H1293.5V80.668Z" fill="#F47B6D"/>
<path d="M1287.36 24.7002H1290.25V36.742H1287.36V24.7002Z" fill="#F47B6D"/>
<path d="M1287.36 38.6904H1290.25V50.7322H1287.36V38.6904Z" fill="#F47B6D"/>
<path d="M1287.36 52.6826H1290.25V64.7244H1287.36V52.6826Z" fill="#F47B6D"/>
<path d="M1287.36 66.6748H1290.25V78.7166H1287.36V66.6748Z" fill="#F47B6D"/>
<path d="M1287.36 80.668H1290.25V92.7098H1287.36V80.668Z" fill="#F47B6D"/>
<path d="M1305.7 24.7002H1306.61V36.742H1305.7V24.7002Z" fill="#C1200F"/>
<path d="M1305.7 38.6904H1306.61V50.7322H1305.7V38.6904Z" fill="#C1200F"/>
<path d="M1305.7 52.6826H1306.61V64.7244H1305.7V52.6826Z" fill="#C1200F"/>
<path d="M1305.7 66.6748H1306.61V78.7166H1305.7V66.6748Z" fill="#C1200F"/>
<path d="M1305.7 80.668H1306.61V92.7098H1305.7V80.668Z" fill="#C1200F"/>
<path d="M1299.57 24.7002H1300.47V36.742H1299.57V24.7002Z" fill="#C1200F"/>
<path d="M1299.57 38.6904H1300.47V50.7322H1299.57V38.6904Z" fill="#C1200F"/>
<path d="M1299.57 52.6826H1300.47V64.7244H1299.57V52.6826Z" fill="#C1200F"/>
<path d="M1299.57 66.6748H1300.47V78.7166H1299.57V66.6748Z" fill="#C1200F"/>
<path d="M1299.57 80.668H1300.47V92.7098H1299.57V80.668Z" fill="#C1200F"/>
<path d="M1293.43 24.7002H1294.34V36.742H1293.43V24.7002Z" fill="#C1200F"/>
<path d="M1293.43 38.6904H1294.34V50.7322H1293.43V38.6904Z" fill="#C1200F"/>
<path d="M1293.43 52.6826H1294.34V64.7244H1293.43V52.6826Z" fill="#C1200F"/>
<path d="M1293.43 66.6748H1294.34V78.7166H1293.43V66.6748Z" fill="#C1200F"/>
<path d="M1293.43 80.668H1294.34V92.7098H1293.43V80.668Z" fill="#C1200F"/>
<path d="M1287.29 24.7002H1288.2V36.742H1287.29V24.7002Z" fill="#C1200F"/>
<path d="M1287.29 38.6904H1288.2V50.7322H1287.29V38.6904Z" fill="#C1200F"/>
<path d="M1287.29 52.6826H1288.2V64.7244H1287.29V52.6826Z" fill="#C1200F"/>
<path d="M1287.29 66.6748H1288.2V78.7166H1287.29V66.6748Z" fill="#C1200F"/>
<path d="M1287.29 80.668H1288.2V92.7098H1287.29V80.668Z" fill="#C1200F"/>
<path d="M1281.75 14.4414H1342.7V15.3403H1281.75V14.4414Z" fill="#FEF2F0"/>
<path d="M1305.61 121.583V101.179H1298.41V121.583H1305.61ZM1297.5 121.583V101.179H1290.31V121.583H1297.5ZM1281.75 101.179V100.28H1314.16V101.179H1306.51V121.583H1314.18V122.482H1281.76V121.583H1289.41V101.179H1281.75Z" fill="#FEF2F0"/>
<path d="M1346.57 68.5526V125.202H1402.56V67.6339L1375.11 44.4959L1375.11 44.4941L1375.11 44.4977L1346.57 68.5526Z" fill="#F5887C"/>
<path d="M1315.12 68.5518H1346.58V125.201H1315.12V68.5518Z" fill="#FEF2F0"/>
<path d="M1339 77.5244H1341.19V82.9412H1339V77.5244Z" fill="#F47B6D"/>
<path d="M1332.52 77.5244H1334.7V82.9412H1332.52V77.5244Z" fill="#F47B6D"/>
<path d="M1326.04 77.5244H1328.22V82.9412H1326.04V77.5244Z" fill="#F47B6D"/>
<path d="M1319.55 77.5244H1321.74V82.9412H1319.55V77.5244Z" fill="#F47B6D"/>
<path d="M1339 89.0117H1341.19V94.4285H1339V89.0117Z" fill="#F47B6D"/>
<path d="M1332.52 89.0117H1334.7V94.4285H1332.52V89.0117Z" fill="#F47B6D"/>
<path d="M1326.04 89.0117H1328.22V94.4285H1326.04V89.0117Z" fill="#F47B6D"/>
<path d="M1319.55 89.0117H1321.74V94.4285H1319.55V89.0117Z" fill="#F47B6D"/>
<path d="M1339 100.498H1341.19V105.915H1339V100.498Z" fill="#F47B6D"/>
<path d="M1332.52 100.498H1334.7V105.915H1332.52V100.498Z" fill="#F47B6D"/>
<path d="M1326.04 100.498H1328.22V105.915H1326.04V100.498Z" fill="#F47B6D"/>
<path d="M1319.55 100.498H1321.74V105.915H1319.55V100.498Z" fill="#F47B6D"/>
<path d="M1339 111.981H1341.19V117.398H1339V111.981Z" fill="#F47B6D"/>
<path d="M1332.52 111.981H1334.7V117.398H1332.52V111.981Z" fill="#F47B6D"/>
<path d="M1326.04 111.981H1328.22V117.398H1326.04V111.981Z" fill="#F47B6D"/>
<path d="M1319.55 111.981H1321.74V117.398H1319.55V111.981Z" fill="#F47B6D"/>
<path d="M1315.12 122.481H1346.58V125.202H1315.12V122.481Z" fill="#F5887C"/>
<path d="M1315.12 68.5361H1346.58V71.2562H1315.12V68.5361Z" fill="#F5887C"/>
<path d="M1314.16 68.5522H1346.57L1375.11 44.4902H1342.7L1314.16 68.5522Z" fill="#FDE5E2"/>
<path d="M1342.7 43.415H1375.11V44.4937H1342.7V43.415Z" fill="#FEF2F0"/>
<path d="M1314.16 68.4699V69.3688H1346.57V68.4699H1341.09L1369.47 44.4941H1368.08L1339.69 68.4699H1334.46L1362.82 44.4941H1361.42L1333.06 68.4699H1327.82L1356.22 44.4941H1354.82L1326.42 68.4699H1321.19L1349.57 44.4941H1348.17L1319.79 68.4699H1314.16Z" fill="#FCD7D3"/>
<path d="M1164.89 38.0283H1192.98V125.201H1164.89V38.0283Z" fill="#FEF2F0"/>
<path d="M1145.91 38.0283H1164.89V125.163H1145.91V38.0283Z" fill="#F5887C"/>
<path d="M1186.53 104.714H1188.46V121.099H1186.53V104.714Z" fill="#F47B6D"/>
<path d="M1180.84 104.714H1182.77V121.099H1180.84V104.714Z" fill="#F47B6D"/>
<path d="M1174.96 104.714H1176.9V121.099H1174.96V104.714Z" fill="#F47B6D"/>
<path d="M1169.08 104.714H1171.02V121.099H1169.08V104.714Z" fill="#F47B6D"/>
<path d="M1188.39 104.714H1189.3V121.099H1188.39V104.714Z" fill="#C1200F"/>
<path d="M1182.71 104.714H1183.61V121.099H1182.71V104.714Z" fill="#C1200F"/>
<path d="M1176.83 104.714H1177.74V121.099H1176.83V104.714Z" fill="#C1200F"/>
<path d="M1170.95 104.714H1171.86V121.099H1170.95V104.714Z" fill="#C1200F"/>
<path d="M1186.53 44.0986V75.4975C1187.22 74.5139 1187.85 73.481 1188.4 72.4071C1188.42 72.3621 1188.44 72.3172 1188.46 72.2723V44.0986H1186.53Z" fill="#F47B6D"/>
<path d="M1180.84 44.0986V81.2595C1181.47 80.7939 1182.09 80.2887 1182.71 79.7404L1182.77 79.6793V44.0986H1180.84Z" fill="#F47B6D"/>
<path d="M1174.96 44.0986V84.6664C1175.56 84.4021 1176.19 84.1055 1176.83 83.7675L1176.9 83.7315V44.0986H1174.96Z" fill="#F47B6D"/>
<path d="M1169.08 44.0986V86.5703C1169.08 86.5703 1169.79 86.448 1170.95 86.1155L1171.02 86.0975V44.0986H1169.08Z" fill="#F47B6D"/>
<path d="M1188.39 44.0986V72.4053C1188.72 71.7689 1189.02 71.1043 1189.3 70.4115V44.0986H1188.39Z" fill="#C1200F"/>
<path d="M1182.71 44.0986V79.7404C1183.01 79.4671 1183.31 79.1843 1183.61 78.8918V44.0986H1182.71Z" fill="#C1200F"/>
<path d="M1176.83 44.0986V83.7675C1177.13 83.6105 1177.43 83.4463 1177.74 83.2749V44.0986H1176.83Z" fill="#C1200F"/>
<path d="M1170.95 44.0986V86.1154C1171.23 86.0363 1171.53 85.9441 1171.86 85.8386V44.0986H1170.95Z" fill="#C1200F"/>
<path d="M1157.33 44.0986V63.4072L1159.26 65.4118V44.0986H1157.33Z" fill="#F7A299"/>
<path d="M1151.45 44.0986V57.3198L1153.38 59.3244V44.0986H1151.45Z" fill="#F7A299"/>
<path d="M1145.91 35.3564H1192.98V36.2554H1145.91V35.3564Z" fill="#FEF2F0"/>
<path d="M1079.48 75.5615H1127.38V125.199H1079.48V75.5615Z" fill="#F5887C"/>
<path d="M1127.38 75.5606V125.2H1164.44V125.184H1163.99V75.0914L1145.91 56.3779L1127.38 75.5606Z" fill="#FEF2F0"/>
<path d="M1145.91 72.5531C1144.4 72.5531 1143.17 71.3369 1143.17 69.8366C1143.17 68.3363 1144.4 67.1201 1145.91 67.1201C1147.42 67.1201 1148.65 68.3363 1148.65 69.8366C1148.65 71.3369 1147.42 72.5531 1145.91 72.5531Z" fill="#FCD7D3"/>
<path d="M1127.38 107.976V108.874H1143.05V125.195H1143.96V108.874H1150.33V125.195H1151.23V108.874H1163.99V107.976H1127.38Z" fill="#F5887C"/>
<path d="M1145.91 56.3779H1097.89L1079.47 75.5606H1127.38L1145.91 56.3779Z" fill="#FDE5E2"/>
<path d="M1097.88 55.4795H1145.91V56.3784H1097.88V55.4795Z" fill="#FEF2F0"/>
<path d="M1079.48 75.5876V76.4865H1127.38V75.5876H1119.03L1137.59 56.3779H1136.33L1117.78 75.5876H1111.11L1129.73 56.3779H1128.41L1109.86 75.5876H1103.19L1121.75 56.3779H1120.49L1101.94 75.5876H1095.28L1113.83 56.3779H1112.57L1094.02 75.5876H1087.36L1105.91 56.3779H1104.65L1086.1 75.5876H1079.48Z" fill="#FCD7D3"/>
<path d="M1143.2 81.3271H1148.62V86.7008H1143.2V81.3271Z" fill="#F6958A"/>
<path d="M1152.98 81.3271H1158.4V86.7008H1152.98V81.3271Z" fill="#F6958A"/>
<path d="M1133.42 81.3271H1138.84V86.7008H1133.42V81.3271Z" fill="#F6958A"/>
<path d="M1143.2 99.3467H1148.62V104.72H1143.2V99.3467Z" fill="#F6958A"/>
<path d="M1152.98 99.3467H1158.4V104.72H1152.98V99.3467Z" fill="#F6958A"/>
<path d="M1133.42 99.3467H1138.84V104.72H1133.42V99.3467Z" fill="#F6958A"/>
<path d="M1143.2 90.3359H1148.62V95.7096H1143.2V90.3359Z" fill="#F6958A"/>
<path d="M1152.98 90.3359H1158.4V95.7096H1152.98V90.3359Z" fill="#F6958A"/>
<path d="M1133.42 90.3359H1138.84V95.7096H1133.42V90.3359Z" fill="#F6958A"/>
<path d="M1157.56 81.3271H1158.47V86.7008H1157.56V81.3271Z" fill="#FCD7D3"/>
<path d="M1157.56 90.3496H1158.47V95.7233H1157.56V90.3496Z" fill="#FCD7D3"/>
<path d="M1157.56 99.3467H1158.47V104.72H1157.56V99.3467Z" fill="#FCD7D3"/>
<path d="M1147.71 81.3271H1148.62V86.7008H1147.71V81.3271Z" fill="#FCD7D3"/>
<path d="M1147.71 90.3496H1148.62V95.7233H1147.71V90.3496Z" fill="#FCD7D3"/>
<path d="M1147.71 99.3467H1148.62V104.72H1147.71V99.3467Z" fill="#FCD7D3"/>
<path d="M1137.94 81.3271H1138.84V86.7008H1137.94V81.3271Z" fill="#FCD7D3"/>
<path d="M1137.94 90.3496H1138.84V95.7233H1137.94V90.3496Z" fill="#FCD7D3"/>
<path d="M1137.93 99.3467H1138.84V104.72H1137.93V99.3467Z" fill="#FCD7D3"/>
<path d="M1102.71 114.331V125.201H1117.54V99.3467L1102.71 114.331Z" fill="#FEF2F0"/>
<path d="M1065 114.331H1102.71V125.199H1065V114.331Z" fill="#F5887C"/>
<path d="M1110.48 114.331C1109.81 114.331 1109.17 114.594 1108.7 115.062C1108.22 115.531 1107.96 116.166 1107.96 116.828V125.199H1113V116.83C1113 116.502 1112.94 116.177 1112.81 115.873C1112.68 115.57 1112.5 115.295 1112.26 115.062C1112.03 114.83 1111.75 114.646 1111.44 114.521C1111.14 114.395 1110.81 114.331 1110.48 114.331V114.331Z" fill="#F7A299"/>
<path d="M1079.48 99.3418L1065 114.33H1102.71L1117.54 99.3454L1079.48 99.3418Z" fill="#FDE5E2"/>
<path d="M1065 114.354V115.252H1102.71V114.354H1095.46L1109.96 99.3418H1108.7L1094.2 114.354H1087.54L1102.04 99.3418H1100.78L1086.28 114.354H1079.62L1094.12 99.3418H1092.86L1078.36 114.354H1071.7L1086.2 99.3418H1084.94L1070.44 114.354H1065Z" fill="#FCD7D3"/>
<path d="M1079.45 98.4434H1117.54V99.3423H1079.45V98.4434Z" fill="#FEF2F0"/>
<path d="M1103.54 81.3271H1108.6V86.7008H1103.54V81.3271Z" fill="#F7A299"/>
<path d="M1103.54 90.3359H1108.6V95.7096H1103.54V90.3359Z" fill="#F7A299"/>
<path d="M1112.48 81.3271H1117.54V86.7008H1112.48V81.3271Z" fill="#F7A299"/>
<path d="M1112.48 90.3359H1117.54V95.7096H1112.48V90.3359Z" fill="#F7A299"/>
<path d="M1085.64 81.3271H1090.7V86.7008H1085.64V81.3271Z" fill="#F7A299"/>
<path d="M1085.64 90.3359H1090.7V95.7096H1085.64V90.3359Z" fill="#F7A299"/>
<path d="M1094.59 81.3271H1099.65V86.7008H1094.59V81.3271Z" fill="#F7A299"/>
<path d="M1094.59 90.3359H1099.65V95.7096H1094.59V90.3359Z" fill="#F7A299"/>
<path d="M1112.21 81.3271H1113.11V86.7008H1112.21V81.3271Z" fill="#AE1D0D"/>
<path d="M1112.21 90.3359H1113.11V95.7096H1112.21V90.3359Z" fill="#AE1D0D"/>
<path d="M1085.37 81.3271H1086.28V86.7008H1085.37V81.3271Z" fill="#AE1D0D"/>
<path d="M1085.37 90.3359H1086.28V95.7096H1085.37V90.3359Z" fill="#AE1D0D"/>
<path d="M1094.32 90.3359H1095.23V95.7096H1094.32V90.3359Z" fill="#AE1D0D"/>
<path d="M1094.32 81.3271H1095.23V86.7008H1094.32V81.3271Z" fill="#AE1D0D"/>
<path d="M1103.26 81.3271H1104.17V86.7008H1103.26V81.3271Z" fill="#AE1D0D"/>
<path d="M1103.26 90.3359H1104.17V95.7096H1103.26V90.3359Z" fill="#AE1D0D"/>
<path d="M1375.11 44.4951L1375.11 44.498V44.4922L1375.11 44.4951Z" fill="#F5887C"/>
<path d="M1375.1 44.4902V44.4985L1375.11 44.4943L1375.1 44.4902Z" fill="#F5887C"/>
<path d="M1346.57 96.0928H1402.56V125.201H1346.57V96.0928Z" fill="#FEF2F0"/>
<path d="M1346.57 96.0928H1402.56V98.8129H1346.57V96.0928Z" fill="#F5887C"/>
<path d="M1402.56 96.0905H1346.57L1375.11 72.0303H1402.56V96.0905Z" fill="#FDE5E2"/>
<path d="M1346.57 95.8334V96.7323H1402.56V95.8334H1395.47L1402.56 89.8646V88.6853L1394.07 95.8334H1388.4L1402.56 83.9013V82.7219L1386.99 95.8334H1381.5L1402.56 78.0925V76.9113L1380.1 95.8334H1374.6L1402.56 72.282V72.0303H1401.45L1373.2 95.8334H1368.07L1396.32 72.0303H1394.92L1366.67 95.8334H1361.17L1389.42 72.0303H1388.02L1359.77 95.8334H1354.28L1382.53 72.0303H1381.13L1352.88 95.8334H1346.57Z" fill="#FCD7D3"/>
<path d="M1352.29 113.656V125.192H1369.39V113.656C1369.36 111.43 1368.45 109.307 1366.85 107.745C1365.25 106.183 1363.09 105.308 1360.84 105.308C1358.6 105.308 1356.44 106.183 1354.84 107.745C1353.24 109.307 1352.33 111.43 1352.29 113.656H1352.29Z" fill="#F5887C"/>
<path d="M1360.84 107.799C1359.28 107.799 1357.77 108.416 1356.66 109.515C1355.55 110.614 1354.93 112.104 1354.93 113.658V125.195H1366.76V113.656C1366.76 112.103 1366.13 110.613 1365.03 109.515C1363.92 108.417 1362.41 107.799 1360.84 107.799Z" fill="#C1200F"/>
<path d="M1352.29 113.207V114.105H1354.46V119.033H1352.29V119.932H1354.46V125.193H1355.37V113.656C1355.4 112.239 1355.98 110.888 1357.01 109.895C1358.03 108.902 1359.4 108.345 1360.83 108.345C1362.26 108.345 1363.64 108.902 1364.66 109.895C1365.68 110.888 1366.27 112.239 1366.29 113.656V125.193H1367.2V119.932H1369.38V119.033H1367.2V114.105H1369.38V113.207H1367.18C1367.08 111.744 1366.47 110.362 1365.45 109.298L1366.99 107.772C1366.78 107.554 1366.56 107.349 1366.32 107.157L1364.77 108.698C1363.77 107.918 1362.56 107.454 1361.29 107.365V105.187H1360.39V107.365C1359.12 107.453 1357.91 107.917 1356.91 108.696L1355.36 107.159C1355.16 107.319 1354.97 107.49 1354.79 107.668C1354.76 107.702 1354.72 107.736 1354.69 107.772L1356.24 109.298C1355.22 110.358 1354.6 111.739 1354.49 113.203L1352.29 113.207Z" fill="#FEF2F0"/>
<path d="M1392.9 100.498H1395.09V105.915H1392.9V100.498Z" fill="#F47B6D"/>
<path d="M1386.42 100.498H1388.6V105.915H1386.42V100.498Z" fill="#F47B6D"/>
<path d="M1379.93 100.498H1382.12V105.915H1379.93V100.498Z" fill="#F47B6D"/>
<path d="M1392.9 111.981H1395.09V117.398H1392.9V111.981Z" fill="#F47B6D"/>
<path d="M1386.42 111.981H1388.6V117.398H1386.42V111.981Z" fill="#F47B6D"/>
<path d="M1379.93 111.981H1382.12V117.398H1379.93V111.981Z" fill="#F47B6D"/>
<path d="M1346.57 122.481V125.202H1402.56V122.481H1369.39V125.193H1352.29V122.481H1346.57Z" fill="#F5887C"/>
<path d="M1256.74 123.226V125.204H1281.75V106.886H1277.48C1274.97 106.886 1272.56 107.875 1270.78 109.635C1269 111.395 1268 113.783 1268 116.272V116.811H1263.22C1261.5 116.811 1259.86 117.487 1258.64 118.69C1257.42 119.892 1256.74 121.524 1256.74 123.226V123.226Z" fill="#E82711"/>
<path d="M1204.33 125.202V123.992C1204.33 122.337 1203.67 120.749 1202.48 119.579C1201.3 118.408 1199.7 117.75 1198.03 117.748H1186.05C1185.46 115.588 1184.16 113.681 1182.37 112.321C1180.57 110.962 1178.37 110.225 1176.11 110.225H1174.73C1172.57 110.225 1170.45 110.903 1168.7 112.162C1166.94 113.421 1165.63 115.197 1164.95 117.236H1163.72C1161.7 117.236 1159.77 118.028 1158.34 119.439C1156.91 120.849 1156.11 122.763 1156.11 124.76V125.263L1204.33 125.202Z" fill="#E82711"/>
<path d="M1164.89 91.9825V91.0836C1172.41 90.9559 1179.44 88.0902 1184.73 82.9826C1187.39 80.4489 1189.5 77.4105 1190.94 74.0497C1192.38 70.6889 1193.12 67.0748 1193.11 63.4241V59.9346H1194.02V63.4241C1194.02 78.6786 1207 91.089 1222.96 91.089C1238.92 91.089 1251.9 78.684 1251.9 63.4241V59.9346H1252.81V63.4241C1252.81 78.6786 1265.79 91.089 1281.75 91.089V91.9879C1279.93 91.9893 1278.12 91.8305 1276.33 91.5133V96.4285H1281.75V97.3274H1252.81V98.3629H1281.75V99.2619H1252.81V103.774C1253.42 102.715 1254.3 101.833 1255.36 101.219C1256.42 100.606 1257.63 100.282 1258.86 100.281H1281.75V101.18H1258.86C1257.26 101.182 1255.72 101.814 1254.58 102.938C1253.45 104.061 1252.81 105.585 1252.81 107.174V125.203H1251.9V107.174C1251.9 105.585 1251.26 104.061 1250.13 102.937C1248.99 101.813 1247.46 101.182 1245.85 101.18H1200.07C1198.47 101.182 1196.93 101.813 1195.79 102.937C1194.66 104.061 1194.02 105.585 1194.02 107.174V125.203H1193.11V107.174C1193.11 105.585 1192.47 104.061 1191.34 102.938C1190.2 101.814 1188.66 101.182 1187.06 101.18H1164.89V100.281H1187.06C1188.29 100.282 1189.5 100.606 1190.56 101.219C1191.62 101.833 1192.5 102.715 1193.11 103.774V99.2619H1164.89V98.3629H1193.11V97.3274H1164.89V96.4285H1169.59V91.551C1168.04 91.8139 1166.47 91.9581 1164.89 91.9825V91.9825ZM1270.44 96.4285H1275.41V91.3407C1273.71 90.9889 1272.05 90.4939 1270.44 89.8611V96.4285ZM1264.56 96.4285H1269.53V89.4853C1267.79 88.7368 1266.13 87.8266 1264.56 86.767V96.4285ZM1258.68 96.4285H1263.65V86.1288C1261.82 84.7923 1260.15 83.251 1258.68 81.5354V96.4285ZM1252.8 96.4285H1257.77V80.4279C1255.46 77.4568 1253.77 74.056 1252.8 70.4266V96.4285ZM1204.86 86.1288C1203.03 84.7924 1201.36 83.2517 1199.89 81.5372V96.4285H1204.87L1204.86 86.1288ZM1210.74 89.4871C1209 88.738 1207.33 87.8272 1205.77 86.767V96.4285H1210.74V89.4871ZM1216.62 91.3407C1214.92 90.9892 1213.26 90.4942 1211.65 89.8611V96.4285H1216.62V91.3407ZM1222.5 91.9843C1220.83 91.9623 1219.17 91.8047 1217.53 91.5133V96.4285H1222.5V91.9843ZM1228.38 91.5151C1226.73 91.805 1225.07 91.962 1223.41 91.9843V96.4285H1228.38V91.5151ZM1234.26 89.8611C1232.64 90.4937 1230.98 90.9892 1229.28 91.3425V96.4285H1234.26V89.8611ZM1240.13 86.7688C1238.57 87.8277 1236.9 88.7379 1235.16 89.4871V96.4285H1240.13V86.7688ZM1246.01 81.5372C1244.54 83.2523 1242.87 84.7936 1241.04 86.1306V96.4285H1246.01V81.5372ZM1251.89 70.4248C1250.93 74.0559 1249.24 77.4581 1246.92 80.4297V96.4303H1251.89V70.4248ZM1194 103.774C1194.61 102.714 1195.49 101.833 1196.55 101.219C1197.62 100.605 1198.82 100.282 1200.05 100.281H1245.85C1247.08 100.282 1248.29 100.606 1249.35 101.219C1250.42 101.833 1251.3 102.714 1251.9 103.774V99.2619H1194.01L1194 103.774ZM1194 98.3629H1251.89V97.3274H1194V98.3629ZM1194 96.4285H1198.97V80.4279C1196.66 77.4563 1194.97 74.0541 1194 70.423V96.4285ZM1188.12 96.4285H1193.09V70.5093C1192.14 74.1518 1190.45 77.5649 1188.12 80.543V96.4285ZM1182.24 96.4285H1187.22V81.6522C1186.63 82.333 1186.01 82.9922 1185.35 83.6298C1184.38 84.5711 1183.34 85.4446 1182.24 86.2439V96.4285ZM1176.36 96.4285H1181.34V86.8749C1179.77 87.9297 1178.11 88.8328 1176.36 89.5716V96.4285ZM1170.48 96.4285H1175.46V89.9384C1173.84 90.5587 1172.18 91.0399 1170.48 91.3766V96.4285Z" fill="#DBDBDB"/>
<g clip-path="url(#clip0_1433_76066)">
<path d="M158.493 140.091C158.493 140.091 158.116 140.837 157.251 141.023C156.724 141.135 156.272 141.433 155.971 141.806C155.745 142.142 155.971 142.589 156.385 142.589H160.714C161.09 142.589 161.353 142.291 161.316 141.918C161.278 141.582 161.241 141.247 161.241 140.949C161.203 140.315 160.601 139.83 160.601 139.83L158.493 140.091Z" fill="#1A1A1A"/>
<path d="M157.514 129.278C157.326 132.522 157.778 139.942 157.778 139.942C157.778 139.942 158.079 140.762 159.998 140.948C161.015 141.06 161.956 140.799 161.956 140.799C162.332 139.047 162.708 137.369 163.009 135.766C165.381 124.32 166.284 117.273 166.284 117.273L156.987 115.148C156.987 115.148 157.401 121.598 157.514 125.997C157.552 127.377 157.552 128.533 157.514 129.278Z" fill="#34488B"/>
<path d="M156.987 115.148C156.987 115.148 157.401 121.598 157.514 125.997L163.009 135.766C165.381 124.32 166.284 117.273 166.284 117.273L156.987 115.148Z" fill="#2D3A64"/>
<path d="M166.321 100.347C166.321 100.347 169.897 98.7436 172.644 100.16C175.354 101.577 173.698 113.284 169.821 114.403C169.821 114.403 162.519 116.714 166.321 100.347Z" fill="#34488B"/>
<path d="M155.933 117.871L155.97 117.833C156.045 117.721 156.196 117.386 156.309 117.125C155.594 113.62 156.083 111.607 156.083 111.607C156.008 110.6 155.368 103.442 156.798 100.161C157.476 98.5576 158.643 98.5576 158.643 98.5576C158.643 98.5576 158.379 101.093 158.567 102.472C158.718 103.74 157.513 115.484 157.325 117.423L157.25 119.362L156.685 119.213C156.648 119.213 156.648 119.213 156.61 119.175C156.535 119.138 156.46 119.101 156.422 119.026L155.97 118.281C155.857 118.169 155.857 118.02 155.933 117.871Z" fill="#E8935C"/>
<path d="M166.057 140.091C166.057 140.091 165.681 140.837 164.815 141.023C164.288 141.135 163.837 141.433 163.536 141.806C163.31 142.142 163.536 142.589 163.95 142.589H168.278C168.655 142.589 168.918 142.291 168.88 141.918C168.843 141.582 168.805 141.247 168.805 140.949C168.768 140.315 168.165 139.83 168.165 139.83L166.057 140.091Z" fill="#1A1A1A"/>
<path d="M163.047 85.4707C163.988 85.4707 165.118 85.8808 165.757 86.4774C166.435 87.1112 167.112 87.1485 167.602 87.8941C168.129 88.6771 168.43 89.4973 168.166 90.6158C167.903 91.8089 167.941 93.002 167.188 93.8595C166.811 94.3069 166.209 94.3442 165.757 94.7543C164.967 95.5 164.064 95.7237 163.047 95.7237C161.128 95.7237 159.923 94.6052 158.907 93.1884C158.117 92.0699 158.267 91.287 158.079 90.3176C157.514 87.2603 160.074 85.4707 163.047 85.4707Z" fill="#0C0D0D"/>
<path d="M160.3 97.7371L163.989 99.6013L164.741 97.066C164.741 97.066 164.29 96.1712 164.064 94.7544C163.989 94.1578 163.913 93.4495 163.989 92.6665L160.977 94.1951C160.977 94.1951 161.053 94.4561 161.09 94.8662C161.128 95.3136 161.166 95.9102 161.053 96.4694C160.94 96.9541 160.714 97.4388 160.3 97.7371Z" fill="#F9B07D"/>
<path d="M168.88 116.155C168.88 116.155 169.596 125.364 169.407 140.054C169.407 140.054 168.579 140.502 167.525 140.613C165.606 140.8 165.154 140.054 165.154 140.054C165.154 140.054 163.197 132.896 162.707 129.652C162.256 126.669 159.32 115.932 159.32 115.932L168.88 116.155Z" fill="#34488B"/>
<path d="M157.89 97.9983C158.229 97.8492 159.245 97.4391 160.789 97.1781C160.789 97.7001 160.901 98.1847 161.842 98.3339C163.085 98.483 164.176 97.6628 164.741 97.1035C164.741 97.1035 165.606 97.1781 166.623 97.4018C167.15 97.5136 167.677 97.6628 168.166 97.8492C168.768 98.0729 169.257 98.3339 169.559 98.6694C170.5 99.8252 172.08 103.33 172.08 103.33C172.08 103.33 169.483 104.299 168.806 104.859V104.97L168.392 108.326L169.596 115.037C169.596 115.112 169.596 115.149 169.596 115.223C169.596 115.671 169.295 116.081 168.843 116.193C168.843 116.193 168.731 116.193 168.542 116.23C167.263 116.416 162.031 117.013 157.89 115.932C156.949 115.671 156.347 114.813 156.422 113.881L157.1 105.567C156.761 105.492 156.347 105.455 156.008 105.418C155.745 105.38 155.519 105.38 155.406 105.418C155.444 105.306 155.895 98.8186 157.89 97.9983Z" fill="white"/>
<path d="M165.607 110.376C165.644 112.725 167.188 115.446 168.543 116.192C168.731 116.155 168.844 116.155 168.844 116.155C169.295 116.043 169.597 115.633 169.597 115.185C169.597 115.111 169.597 115.074 169.597 114.999L168.392 108.288L168.806 104.932C168.769 104.858 168.769 104.858 168.769 104.858C168.769 104.858 165.531 106.237 165.607 110.376Z" fill="white"/>
<path d="M156.046 105.343C156.385 105.38 157.138 105.492 157.138 105.492L157.514 102.025C157.552 101.988 156.235 104.448 156.046 105.343Z" fill="white"/>
<path d="M169.408 113.807V112.241C164.063 104.56 163.348 103.032 165.757 99.5645C166.434 98.5951 167.714 97.9613 168.203 97.8121C167.714 97.6257 167.149 97.4766 166.66 97.3647C166.171 97.5884 165.681 97.8494 165.305 98.1477C157.965 104.486 169.408 113.807 169.408 113.807Z" fill="#34488B"/>
<path d="M163.16 103.963C165.268 104.113 165.531 106.238 165.531 106.238C165.531 106.238 169.032 106.536 169.559 106.797C169.559 106.797 169.257 106.014 168.768 104.858C169.22 104.411 170.725 103.74 171.742 103.441C172.494 105.38 172.796 107.282 172.382 109.109C172.344 109.295 172.156 109.444 171.968 109.444C170.838 109.481 167.15 109.481 164.44 107.244H164.402C163.762 107.207 163.16 106.573 162.896 105.716C162.67 104.895 162.633 105.119 162.482 104.56C162.256 103.963 163.16 103.963 163.16 103.963Z" fill="#F9B07D"/>
<path d="M161.053 96.4694C162.747 96.4322 164.064 94.7544 164.064 94.7544L161.09 94.8662C161.166 95.3136 161.166 95.9102 161.053 96.4694Z" fill="#E8935C"/>
<path d="M160.863 95.4627C160.863 95.4627 164.627 95.9101 164.74 93.263C164.815 90.6159 163.234 88.9008 162.18 88.9381C160.072 88.9754 159.734 89.8329 159.508 90.6904C159.282 91.5852 159.131 95.2763 160.863 95.4627Z" fill="#F9B07D"/>
<path d="M161.881 93.934C161.881 93.934 161.805 94.2695 160.977 94.1949C160.977 94.1949 160.3 94.1577 160.3 93.7848C160.3 93.7848 160.977 93.5611 161.881 93.934Z" fill="white"/>
<path d="M161.278 88.9753C161.278 88.9753 164.515 88.9753 163.763 91.175C163.311 92.5545 164.854 92.7782 164.854 92.7782L165.607 90.5412L165.118 88.8262L161.278 88.9753Z" fill="#0C0D0D"/>
<path d="M114.981 92.6289C114.981 92.6289 113.701 89.9445 110.615 91.5477C107.528 93.1509 110.539 99.1908 108.921 100.682C107.302 102.174 109.523 103.143 109.184 104.224C108.846 105.305 109.787 106.536 111.97 106.387C114.153 106.237 116.411 106.349 117.39 104.485C118.368 102.621 118.143 98.4825 117.766 97.8859C117.352 97.3267 114.981 92.6289 114.981 92.6289Z" fill="#222222"/>
<path d="M121.304 118.094L111.367 117.833C110.576 117.796 109.937 117.162 109.974 116.379L110.313 103.255C110.351 102.472 110.991 101.838 111.781 101.876L121.718 102.137C122.508 102.174 123.148 102.808 123.111 103.591L122.772 116.714C122.772 117.497 122.094 118.094 121.304 118.094Z" fill="#1D3E70"/>
<path d="M155.331 95.9845C154.465 95.0524 153.336 91.9579 152.922 90.7648L151.604 87.0737C149.986 87.2601 148.894 87.7448 149.007 88.6769C149.421 92.2562 154.314 96.8048 154.314 96.8048C154.314 96.8048 155.331 98.2961 156.196 98.7808C157.062 99.3028 158.53 98.6689 158.643 98.4452C158.718 98.2215 158.266 97.3267 157.928 96.842C157.589 96.3946 155.443 96.0218 155.331 95.9845Z" fill="#D8925C"/>
<path d="M119.987 106.872L114.718 103.74C114.755 103.74 114.868 103.554 115.244 102.435C115.395 101.95 115.508 101.54 115.546 101.205C115.546 101.167 115.546 101.13 115.546 101.093C115.583 100.608 115.546 100.347 115.546 100.347L116.712 100.757L118.858 101.54C118.82 102.062 118.896 102.435 119.008 102.696C119.272 103.33 119.799 103.33 119.837 103.33L119.987 106.872Z" fill="#F9B07D"/>
<path d="M119.046 102.696C116.976 102.882 115.809 101.54 115.583 101.205C115.546 101.167 115.508 101.13 115.508 101.13C115.508 101.13 115.546 101.13 115.583 101.093C115.734 101.056 116.223 100.906 116.75 100.757L118.896 101.54C118.858 102.062 118.933 102.435 119.046 102.696Z" fill="#ED975F"/>
<path d="M119.159 101.988C119.159 101.988 114.566 102.472 114.491 99.415C114.416 96.3577 113.738 94.941 116.9 94.68C120.062 94.419 120.815 95.5375 121.003 96.5814C121.567 99.7878 120.438 101.838 119.159 101.988Z" fill="#F9B07D"/>
<path d="M117.126 96.1715C115.507 95.7614 116.109 98.595 115.733 98.4086C115.281 98.1849 114.491 98.1849 114.604 98.7441C114.717 99.3034 114.905 99.4898 115.018 99.8253C115.093 100.161 115.018 100.832 114.641 100.72C114.265 100.571 110.764 96.6189 113.249 93.5244C115.733 90.4299 123.11 92.3313 120.777 95.575C120.325 96.1343 118.255 96.4325 117.126 96.1715Z" fill="#0C0D0D"/>
<path d="M130.715 102.062C130.564 101.652 130 101.726 129.586 102.211C129.209 102.621 129.209 103.777 129.247 103.963C128.758 104.56 127.214 106.2 126.311 106.983C126.123 107.132 125.784 107.095 125.596 106.908C125.107 106.461 124.241 105.753 123.789 105.454C123.112 105.044 119.385 102.546 118.896 103.628C118.896 103.628 119.159 107.729 125.219 110.227C125.822 110.488 126.499 110.413 127.026 110.04C127.93 109.444 129.36 107.99 130.339 104.336C130.301 104.373 131.204 103.329 130.715 102.062Z" fill="#F9B07D"/>
<path d="M123.11 140.277L120.701 140.911C120.701 140.911 119.196 135.766 118.894 132.187C118.857 131.628 118.819 131.143 118.857 130.696C118.932 128.645 114.528 120.144 117.539 118.206C119.61 116.863 122.583 117.982 122.583 117.982C122.583 117.982 122.997 128.794 122.997 130.845C122.997 131.106 122.997 131.479 122.997 131.926C122.997 134.759 123.11 140.277 123.11 140.277Z" fill="#F9B07D"/>
<path d="M118.48 118.653C118.48 118.653 116.523 129.652 116.033 132.113C115.996 132.299 115.958 132.448 115.958 132.523C115.732 133.529 114.603 140.539 114.603 140.539L112.194 140.427C112.194 140.427 111.479 135.282 111.629 131.591C111.667 130.696 111.742 129.876 111.931 129.242C112.796 126.035 110.801 118.094 113.926 116.23C117.05 114.328 118.48 118.653 118.48 118.653Z" fill="#F9B07D"/>
<path d="M118.857 100.198C118.857 100.011 119.271 99.8247 119.572 99.8247C119.873 99.8247 120.25 100.011 120.25 100.123C120.212 100.421 119.873 100.682 119.572 100.682C119.271 100.72 118.857 100.496 118.857 100.198Z" fill="white"/>
<path d="M112.308 104.188C112.308 104.188 108.845 111.048 107.98 111.868C107.114 112.725 104.14 115.41 103.086 116.193C103.086 116.193 99.887 117.088 99.9622 117.46C100.038 117.833 102.183 117.759 102.409 117.871C102.635 117.982 101.92 118.542 102.522 118.542C102.898 118.542 103.312 117.833 103.5 117.386C103.5 117.386 108.921 114.776 109.711 114.329C110.501 113.919 112.91 110.936 113.324 109.668C113.851 108.363 112.308 104.188 112.308 104.188Z" fill="#F9B07D"/>
<path d="M124.842 109.295C125.482 107.729 125.105 106.089 125.105 106.089C122.847 103.591 121.454 103.33 120.965 103.367C119.384 103.069 116.486 103.293 114.867 103.442C114.867 103.405 114.867 103.405 114.867 103.405C114.867 103.405 112.308 103.591 111.593 104.448C110.877 105.306 108.28 109.594 108.28 109.594C108.28 109.594 108.167 110.638 109.334 111.793C109.748 112.203 110.351 112.614 111.179 113.024C111.404 113.136 111.593 113.173 111.818 113.173L109.41 124.619C110.313 126.073 112.157 127.005 114.265 127.564C118.669 128.757 124.277 128.422 124.691 127.751C125.143 124.992 124.503 117.013 123.6 110.973C124.24 110.488 124.616 109.892 124.842 109.295Z" fill="white"/>
<path d="M116.033 132.113C115.996 132.299 115.958 132.448 115.958 132.523C115.732 133.53 114.603 140.539 114.603 140.539L112.194 140.427C112.194 140.427 111.479 135.282 111.629 131.591C112.269 131.889 113.549 132.225 116.033 132.113Z" fill="#8C6239"/>
<path d="M118.068 142.329H112.045C112.045 142.329 111.932 141.359 112.083 140.502C112.083 140.39 112.158 140.315 112.233 140.241C112.572 140.352 113.099 140.427 113.701 140.241C114.191 140.054 114.605 139.756 114.831 139.532C114.906 139.607 116.073 140.837 116.637 140.837C117.202 140.8 118.105 141.098 118.068 142.329Z" fill="#1A1A1A"/>
<path d="M123.112 140.278L120.703 140.912C120.703 140.912 119.197 135.766 118.896 132.187C119.912 132.262 121.644 132.299 122.999 131.926C122.999 134.76 123.112 140.278 123.112 140.278Z" fill="#8C6239"/>
<path d="M126.423 142.329H120.401C120.401 142.329 120.288 141.359 120.438 140.502C120.438 140.39 120.438 140.315 120.514 140.241C120.852 140.352 121.455 140.427 122.019 140.241C122.509 140.054 122.847 139.756 123.111 139.532C123.186 139.607 124.391 140.837 124.993 140.837C125.557 140.8 126.461 141.098 126.423 142.329Z" fill="#1A1A1A"/>
<path d="M114.264 127.564C112.157 126.968 110.275 126.035 109.409 124.619L111.818 113.135C111.818 113.098 117.087 123.575 114.264 127.564Z" fill="white"/>
<path d="M111.63 104.411C111.63 104.411 111.141 110.376 109.372 111.756C108.205 110.6 108.318 109.556 108.318 109.556C108.318 109.556 110.877 105.268 111.63 104.411Z" fill="white"/>
<path d="M124.842 109.295C124.578 109.891 124.24 110.488 123.6 111.01C123.449 110.488 123.11 109.257 123.524 109.071C124.014 108.773 124.842 109.295 124.842 109.295Z" fill="white"/>
<path d="M130.3 101.615C130.676 101.391 131.015 100.682 131.128 100.421C132.257 97.6625 133.537 92.2936 133.951 91.3243C134.102 90.9514 134.403 89.2737 134.779 87.0739C135.494 83.1592 136.473 77.6785 137.489 75.4787C137.602 75.2178 137.941 74.9941 138.393 74.8076C139.597 74.3229 141.517 74.062 141.968 74.0247C142.458 73.6518 143.135 72.0114 143.098 69.4761L143.323 69.5134L146.974 70.2217C146.974 70.2217 146.899 71.3403 146.899 72.4215C146.899 73.3163 146.937 74.1738 147.163 74.2484C147.426 74.2857 147.577 74.2857 147.577 74.2857C147.577 74.2857 150.625 78.4614 150.851 82.3389C151.115 86.2164 148.405 87.8942 150.889 95.6492C153.373 103.553 136.398 98.5573 137.339 96.5067C139.032 92.7411 139.823 91.6971 139.86 90.504C139.898 89.6838 139.522 88.789 138.807 86.8502C138.731 87.0739 138.694 87.2976 138.618 87.5213C138.204 89.0127 137.866 90.3549 137.715 90.9887C137.263 93.0393 132.521 100.869 132.521 100.869C132.521 100.869 132.37 100.981 132.22 101.428C132.069 101.913 130.714 104.448 130.112 104.448C129.547 104.448 129.397 103.591 129.284 103.031C129.208 102.584 129.848 101.913 130.3 101.615Z" fill="#D8925C"/>
<path d="M138.431 59.4468C139.221 58.9622 140.538 59.5587 140.538 59.5587C140.087 58.9249 138.468 59.1486 138.468 59.1486C141.705 58.4775 142.383 60.5281 142.42 60.7145C144.754 58.6266 148.518 63.1006 148.518 63.1006L143.136 70.1845C143.136 70.1845 142.646 69.066 142.006 69.4016C140.99 69.9608 139.033 67.7238 139.673 64.8157C139.748 64.5174 139.823 64.2191 139.899 63.9582C139.673 64.0327 139.447 64.1073 139.221 64.1073C138.619 64.1073 137.753 62.6159 137.603 62.1313C137.49 61.6093 137.64 59.9315 138.431 59.4468Z" fill="#0C0D0D"/>
<path d="M147.012 70.2592C147.012 70.2592 146.936 71.3777 146.936 72.4589C144.904 72.3843 143.812 70.5574 143.398 69.5508L147.012 70.2592Z" fill="#CA7D44"/>
<path d="M143.023 69.1404C143.023 69.1404 141.969 67.4627 141.705 66.0459C141.517 65.0392 142.044 61.2363 145.883 61.7956C145.883 61.7956 147.013 61.9074 148.029 62.6158C148.857 63.1751 150.061 64.3681 148.706 67.6864L148.368 68.8049L143.023 69.1404Z" fill="#2F2F30"/>
<path d="M147.689 71.2661C147.689 71.2661 142.871 71.3407 142.871 68.358C142.871 65.3753 142.231 63.3993 145.317 63.2128C148.404 63.0264 149.006 64.1822 149.232 65.1516C149.496 66.1955 148.969 71.1542 147.689 71.2661Z" fill="#D8925C"/>
<path d="M141.63 132.56C142.834 137.332 144.678 140.986 144.678 140.986L146.259 140.874C146.259 140.874 145.469 137.22 145.506 132.261C145.544 128.794 145.958 124.693 147.351 120.778C152.093 107.319 150.776 97.625 150.776 97.625L142.42 98.5944L142.006 98.6317C141.968 102.696 141.855 108.214 141.78 112.538C141.705 116.416 141.63 119.324 141.63 119.324C139.898 123.015 140.5 128.16 141.63 132.56Z" fill="#1D3E70"/>
<path d="M138.543 86.1793C139.446 88.64 139.898 89.6466 139.898 90.5787C142.758 86.1793 147.99 85.5082 147.99 85.5082L138.129 84.3896C138.166 84.9862 138.317 85.5827 138.543 86.1793Z" fill="#CA7D44"/>
<path d="M136.511 131.814C137.038 137.258 139.296 140.762 139.296 140.762L140.049 141.321C140.049 141.321 140.764 137.481 141.291 132.933C141.78 128.608 142.42 124.022 143.173 122.642C146.147 117.087 147.05 96.171 147.05 96.171L137.979 95.7236C137.075 97.2523 136.661 99.713 136.586 102.547C136.36 109.705 138.054 118.989 138.28 120.331C138.318 120.443 138.28 120.555 138.205 120.629C136.398 124.171 136.172 128.198 136.511 131.814Z" fill="#2A4E96"/>
<path d="M144.189 67.1643C142.157 67.6863 141.291 67.127 141.291 67.127C141.291 67.127 140.388 63.4732 142.119 62.1683C144.603 60.2668 147.389 62.914 147.502 63.1004C147.803 62.8394 148.367 62.653 149.12 63.5478C150.249 64.89 149.233 67.2761 149.233 67.2761C148.781 67.3134 148.668 65.7848 148.443 65.0018C148.254 64.4426 147.69 63.8833 147.389 63.6223C147.276 63.9579 146.335 67.3134 143.888 68.3946C143.888 68.3946 145.017 67.4253 145.808 66.0458C145.356 66.5678 144.791 67.0152 144.189 67.1643Z" fill="#0C0D0D"/>
<path d="M136.209 99.2662C136.209 99.5645 136.774 124.917 136.849 125.066C137.037 125.663 137.715 125.924 139.296 125.775C140.274 125.663 140.124 98.9679 140.312 97.5884C140.914 99.5645 141.818 126.26 142.872 126.483C144.415 126.819 152.244 127.751 152.771 124.097C153.335 120.033 149.609 93.0771 151.453 83.4207C151.679 82.0412 151.755 80.8481 151.755 79.8414C151.679 77.0824 150.889 75.5538 150.249 74.92C150.061 74.7709 149.91 74.6963 149.195 74.5844C148.819 74.5099 148.329 74.4353 147.614 74.3607L147.313 74.3235C147.464 74.5472 149.233 77.2316 149.082 77.9027C148.932 78.6111 142.646 77.9772 142.232 77.5671C141.78 77.157 141.103 74.1743 141.103 74.1743C141.103 74.1743 138.882 74.398 137.79 75.2183C137.677 75.3301 137.564 75.4047 137.489 75.5165C136.322 77.7163 135.155 83.2342 134.365 87.1863C136.36 88.2675 138.054 87.932 138.618 87.8201C137.903 92.3314 136.322 97.2156 136.209 99.2662Z" fill="#AED093"/>
<path d="M136.511 131.814C137.038 137.257 139.297 140.762 139.297 140.762L140.087 141.47C140.087 141.47 140.802 137.481 141.292 132.932C140.727 132.97 138.356 133.044 136.511 131.814Z" fill="#2A4E96"/>
<path d="M141.629 132.56C142.834 137.332 144.678 140.986 144.678 140.986L146.259 140.874C146.259 140.874 145.468 137.22 145.506 132.262C144.979 132.523 143.85 132.821 141.629 132.56Z" fill="#1D3E70"/>
<path d="M143.737 142.328H144.753C145.092 142.291 145.355 142.179 145.694 142.142C146.221 142.067 146.484 142.291 146.522 142.328H150.813C150.926 142.179 150.813 141.806 150.7 141.545C150.625 141.359 150.474 141.247 150.286 141.172C149.834 141.023 148.931 140.911 148.103 140.203C147.651 139.793 145.845 138.674 145.845 138.674C145.807 138.674 145.619 138.749 144.828 139.42C144.414 139.756 143.699 138.935 143.699 138.935C143.699 138.935 143.549 139.047 143.473 139.234C143.398 139.383 143.323 139.606 143.398 139.905C143.473 140.278 143.247 140.986 143.097 141.471C142.984 141.769 142.909 141.955 142.909 141.955C142.909 141.955 142.871 142.216 143.737 142.328Z" fill="#1A1A1A"/>
<path d="M143.51 139.234C143.736 139.42 144.263 139.719 144.601 139.793C145.053 139.868 145.919 138.712 145.919 138.712C145.881 138.712 145.693 138.786 144.902 139.458C144.488 139.793 143.773 138.973 143.773 138.973C143.773 138.973 143.585 139.047 143.51 139.234Z" fill="#476AA4"/>
<path d="M143.737 142.328H144.753C145.092 142.291 145.355 142.179 145.694 142.142C146.221 142.067 146.484 142.291 146.522 142.328H150.813C150.926 142.179 150.813 141.806 150.7 141.545C150.587 141.433 150.549 142.03 150.474 142.142C150.399 142.254 146.974 142.179 146.748 142.03C146.56 141.881 145.957 141.62 145.129 141.844C144.414 142.03 143.323 141.583 143.059 141.471C142.946 141.769 142.871 141.955 142.871 141.955C142.871 141.955 142.871 142.216 143.737 142.328Z" fill="#476AA4"/>
<path d="M138.317 142.328H139.333C139.672 142.291 139.935 142.179 140.274 142.142C140.801 142.067 141.065 142.291 141.102 142.328H145.393C145.506 142.179 145.393 141.806 145.28 141.545C145.205 141.359 145.054 141.247 144.866 141.172C144.415 141.023 143.511 140.911 142.683 140.203C142.231 139.793 140.425 138.674 140.425 138.674C140.387 138.674 140.199 138.749 139.408 139.42C138.994 139.756 138.279 138.935 138.279 138.935C138.279 138.935 138.129 139.047 138.053 139.234C137.978 139.383 137.903 139.606 137.978 139.905C138.053 140.278 137.828 140.986 137.677 141.471C137.564 141.769 137.489 141.955 137.489 141.955C137.489 141.955 137.451 142.216 138.317 142.328Z" fill="#1A1A1A"/>
<path d="M138.09 139.234C138.316 139.42 138.843 139.719 139.181 139.793C139.633 139.868 140.499 138.712 140.499 138.712C140.461 138.712 140.273 138.786 139.483 139.458C139.068 139.793 138.353 138.973 138.353 138.973C138.353 138.973 138.203 139.047 138.09 139.234Z" fill="#476AA4"/>
<path d="M138.317 142.328H139.333C139.672 142.291 139.935 142.179 140.274 142.142C140.801 142.067 141.064 142.291 141.102 142.328H145.393C145.506 142.179 145.393 141.806 145.28 141.545C145.167 141.433 145.129 142.03 145.054 142.142C144.979 142.254 141.554 142.179 141.328 142.03C141.14 141.881 140.537 141.62 139.709 141.844C138.994 142.03 137.903 141.583 137.639 141.471C137.526 141.769 137.451 141.955 137.451 141.955C137.451 141.955 137.451 142.216 138.317 142.328Z" fill="#476AA4"/>
<path d="M136.209 99.2657C137.301 98.8929 138.468 101.018 140.124 98.8929C144.528 93.2631 140.688 83.6066 140.124 83.4948C139.597 83.3829 138.581 87.7824 138.581 87.7824C137.903 92.331 136.322 97.2151 136.209 99.2657Z" fill="#86B174"/>
<path d="M147.163 69.6624C147.163 69.6624 147.954 69.476 148.556 69.6624C148.556 69.6624 147.991 70.3335 147.163 69.6624Z" fill="white"/>
<path d="M123.6 111.01C123.6 111.01 121.943 104.635 119.76 103.218C119.76 103.218 121.002 103.143 121.191 103.441C123.035 106.611 124.202 110.413 123.6 111.01Z" fill="#2A4E96"/>
<path d="M113.889 103.516C113.889 103.516 114.717 108.997 111.744 113.135C111.744 113.135 111.744 113.135 111.744 113.173L111.292 115.298C111.292 115.335 111.33 115.41 111.405 115.372C112.158 114.776 116.073 111.383 114.943 103.404C114.906 103.367 114.529 103.218 113.889 103.516Z" fill="#2A4E96"/>
<path d="M150.174 74.6588C150.174 74.6588 155.143 86.4405 147.69 87.7454C140.237 89.0503 137.038 76.6722 137.038 76.6722C137.038 76.6722 135.721 72.7574 140.952 74.0996C141.329 74.1742 139.635 73.764 140.952 74.0996C140.952 74.0996 140.877 79.9531 145.319 79.7294C149.76 79.5057 147.464 74.286 147.464 74.286L149.911 74.6216L150.174 74.6588Z" fill="#34488B"/>
<path d="M134.365 98.2963L131.618 114.515L137.565 113.881L137.339 96.5813L137.753 91.1006L134.365 98.2963Z" fill="#34488B"/>
<path d="M129.322 141.173C129.623 141.844 129.284 142.59 128.644 142.888C127.967 143.186 127.214 142.851 126.913 142.217C126.612 141.546 126.951 140.8 127.59 140.502C128.268 140.204 129.058 140.502 129.322 141.173Z" fill="#D66827"/>
<path d="M129.472 141.173C129.773 141.844 129.435 142.59 128.795 142.888C128.117 143.186 127.364 142.851 127.063 142.217C126.762 141.546 127.101 140.8 127.741 140.502C128.381 140.204 129.171 140.502 129.472 141.173Z" fill="#EFA250"/>
<path d="M139.936 141.173C140.237 141.844 139.899 142.59 139.259 142.888C138.581 143.186 137.829 142.851 137.527 142.217C137.226 141.546 137.565 140.8 138.205 140.502C138.882 140.204 139.635 140.502 139.936 141.173Z" fill="#D66827"/>
<path d="M140.049 141.173C140.35 141.844 140.012 142.59 139.372 142.888C138.694 143.186 137.941 142.851 137.64 142.217C137.339 141.546 137.678 140.8 138.318 140.502C138.995 140.204 139.748 140.502 140.049 141.173Z" fill="#EFA250"/>
<path d="M126.611 141.024L128.493 141.695C128.681 141.769 128.869 141.807 129.095 141.807L139.747 141.695L140.914 139.793L126.611 141.024Z" fill="#D66827"/>
<path d="M133.687 108.513C133.725 108.252 134.064 105.716 137.15 105.642L139.371 105.418C139.522 105.381 140.463 105.232 141.178 105.791C141.667 106.164 141.931 106.76 141.968 107.543C142.006 108.55 140.726 115.186 140.124 118.132L144.114 118.915C144.114 118.915 145.77 119.586 145.469 122.494C145.168 125.067 143.888 139.383 143.888 139.383C143.888 139.383 143.624 142.366 137.188 141.509L138.392 117.759L139.597 117.983C140.387 114.105 141.479 108.401 141.441 107.506C141.404 106.872 141.215 106.425 140.877 106.164C140.312 105.754 139.522 105.903 139.522 105.903L137.226 106.126H137.188C134.515 106.201 134.29 108.401 134.29 108.475L132.408 118.766L131.843 118.654L133.687 108.513Z" fill="#D66827"/>
<path d="M141.554 121.711L140.011 137.78C139.936 138.414 139.71 139.011 139.371 139.533C138.694 140.465 137.602 141.061 136.398 141.061L131.09 141.099H130.977L127.627 141.136C127.289 141.136 126.95 141.099 126.649 141.024C126.574 140.987 126.498 140.987 126.423 140.95C125.256 140.577 124.39 139.645 124.052 138.489C123.901 138.004 123.863 137.482 123.939 136.923L126.348 121.562C126.611 119.922 127.966 118.654 129.622 118.505L130.563 118.43L130.789 118.393H130.977L134.139 118.095L134.516 118.057L137.564 117.759C138.054 117.722 138.505 117.759 138.919 117.871C138.957 117.871 138.957 117.871 138.995 117.908L139.183 117.983C140.651 118.505 141.705 120.033 141.554 121.711Z" fill="#EFA250"/>
<path opacity="0.4" d="M139.334 139.533C138.656 140.465 137.564 141.062 136.36 141.062L131.053 141.099H130.94L127.59 141.136C127.251 141.136 126.912 141.099 126.611 141.024C126.536 140.987 126.461 140.987 126.385 140.95C125.219 140.577 123.901 139.198 123.864 137.706C123.864 137.706 135.118 137.557 137.489 137.93C138.731 138.116 139.108 138.974 139.334 139.533Z" fill="#D66827"/>
<path d="M125.369 138.377C125.444 137.743 127.627 122.531 127.966 121.152C128.267 119.958 129.998 118.765 130.563 118.43L130.789 118.393H130.977C130.939 118.393 128.493 119.884 128.154 121.189C127.815 122.531 125.594 138.227 125.557 138.377C125.557 138.377 125.482 139.905 126.761 141.024L126.611 140.986C126.535 140.949 126.46 140.949 126.385 140.912C125.218 139.756 125.369 138.414 125.369 138.377Z" fill="#D66827"/>
<path d="M132.294 121.151C132.558 119.51 133.537 118.504 134.101 118.056L134.478 118.019C134.139 118.243 132.784 119.287 132.483 121.151C132.144 123.351 130.826 139.42 130.789 139.569C130.789 139.569 130.601 140.427 131.128 141.023H130.977H130.864C130.337 140.389 130.563 139.606 130.563 139.494C130.676 139.084 131.956 123.351 132.294 121.151Z" fill="#D66827"/>
<path d="M136.924 121.077C137.225 119.026 138.618 118.057 138.919 117.908C138.957 117.908 138.957 117.908 138.994 117.945L139.183 118.02C139.183 118.02 138.656 118.318 138.204 118.803C137.752 119.287 137.263 120.07 137.112 121.151C136.774 123.351 135.72 139.383 135.72 139.532C135.72 139.532 135.682 140.502 136.209 141.098H135.87C135.456 140.576 135.494 139.57 135.531 139.458C135.531 138.936 136.585 123.277 136.924 121.077Z" fill="#D66827"/>
</g>
<defs>
<clipPath id="clip0_1433_76066">
<rect width="74" height="84" fill="white" transform="translate(100 59)"/>
</clipPath>
</defs>
</svg>
