<svg width="1440" height="205" viewBox="0 0 1440 205" fill="none" xmlns="http://www.w3.org/2000/svg">
<rect width="1440" height="205" fill="#F04935"/>
<g clip-path="url(#clip0_1605_62922)">
<path d="M158.493 188.093C158.493 188.093 158.117 188.839 157.251 189.025C156.724 189.137 156.272 189.435 155.971 189.808C155.745 190.144 155.971 190.591 156.385 190.591H160.714C161.09 190.591 161.354 190.293 161.316 189.92C161.278 189.584 161.241 189.249 161.241 188.951C161.203 188.317 160.601 187.832 160.601 187.832L158.493 188.093Z" fill="#1A1A1A"/>
<path d="M157.514 177.279C157.326 180.523 157.778 187.942 157.778 187.942C157.778 187.942 158.079 188.762 159.998 188.949C161.015 189.061 161.956 188.8 161.956 188.8C162.332 187.047 162.709 185.369 163.01 183.766C165.381 172.32 166.284 165.274 166.284 165.274L156.987 163.148C156.987 163.148 157.401 169.599 157.514 173.998C157.552 175.377 157.552 176.533 157.514 177.279Z" fill="#34488B"/>
<path d="M156.987 163.148C156.987 163.148 157.401 169.599 157.514 173.998L163.01 183.766C165.381 172.32 166.284 165.274 166.284 165.274L156.987 163.148Z" fill="#2D3A64"/>
<path d="M166.321 148.349C166.321 148.349 169.897 146.746 172.644 148.163C175.354 149.58 173.698 161.287 169.821 162.405C169.821 162.405 162.519 164.717 166.321 148.349Z" fill="#34488B"/>
<path d="M155.933 165.872L155.97 165.834C156.046 165.722 156.196 165.387 156.309 165.126C155.594 161.621 156.083 159.608 156.083 159.608C156.008 158.601 155.368 151.443 156.799 148.162C157.476 146.559 158.643 146.559 158.643 146.559C158.643 146.559 158.379 149.094 158.568 150.473C158.718 151.741 157.514 163.485 157.325 165.424L157.25 167.363L156.686 167.214C156.648 167.214 156.648 167.214 156.61 167.176C156.535 167.139 156.46 167.102 156.422 167.027L155.97 166.282C155.858 166.17 155.858 166.021 155.933 165.872Z" fill="#E8935C"/>
<path d="M166.057 188.093C166.057 188.093 165.681 188.839 164.815 189.025C164.288 189.137 163.837 189.435 163.536 189.808C163.31 190.144 163.536 190.591 163.95 190.591H168.278C168.655 190.591 168.918 190.293 168.88 189.92C168.843 189.584 168.805 189.249 168.805 188.951C168.768 188.317 168.165 187.832 168.165 187.832L166.057 188.093Z" fill="#1A1A1A"/>
<path d="M163.048 133.473C163.989 133.473 165.118 133.883 165.758 134.479C166.435 135.113 167.113 135.15 167.602 135.896C168.129 136.679 168.43 137.499 168.167 138.618C167.903 139.811 167.941 141.004 167.188 141.861C166.812 142.309 166.209 142.346 165.758 142.756C164.967 143.502 164.064 143.726 163.048 143.726C161.128 143.726 159.923 142.607 158.907 141.19C158.117 140.072 158.267 139.289 158.079 138.32C157.515 135.262 160.074 133.473 163.048 133.473Z" fill="#0C0D0D"/>
<path d="M160.3 145.739L163.989 147.603L164.742 145.067C164.742 145.067 164.29 144.173 164.064 142.756C163.989 142.159 163.914 141.451 163.989 140.668L160.978 142.197C160.978 142.197 161.053 142.458 161.091 142.868C161.128 143.315 161.166 143.912 161.053 144.471C160.94 144.956 160.714 145.44 160.3 145.739Z" fill="#F9B07D"/>
<path d="M168.881 164.157C168.881 164.157 169.596 173.366 169.408 188.056C169.408 188.056 168.58 188.503 167.526 188.615C165.606 188.802 165.154 188.056 165.154 188.056C165.154 188.056 163.197 180.898 162.708 177.654C162.256 174.671 159.32 163.934 159.32 163.934L168.881 164.157Z" fill="#34488B"/>
<path d="M157.89 146C158.229 145.851 159.246 145.441 160.789 145.18C160.789 145.702 160.902 146.187 161.843 146.336C163.085 146.485 164.176 145.665 164.741 145.105C164.741 145.105 165.607 145.18 166.623 145.404C167.15 145.516 167.677 145.665 168.166 145.851C168.768 146.075 169.258 146.336 169.559 146.671C170.5 147.827 172.081 151.332 172.081 151.332C172.081 151.332 169.484 152.301 168.806 152.86V152.972L168.392 156.328L169.596 163.039C169.596 163.113 169.596 163.151 169.596 163.225C169.596 163.673 169.295 164.083 168.844 164.195C168.844 164.195 168.731 164.195 168.543 164.232C167.263 164.418 162.031 165.015 157.89 163.934C156.949 163.673 156.347 162.815 156.423 161.883L157.1 153.569C156.761 153.494 156.347 153.457 156.008 153.42C155.745 153.382 155.519 153.382 155.406 153.42C155.444 153.308 155.896 146.821 157.89 146Z" fill="white"/>
<path d="M165.607 158.377C165.645 160.726 167.188 163.448 168.543 164.194C168.731 164.156 168.844 164.156 168.844 164.156C169.296 164.044 169.597 163.634 169.597 163.187C169.597 163.112 169.597 163.075 169.597 163.001L168.393 156.289L168.807 152.934C168.769 152.859 168.769 152.859 168.769 152.859C168.769 152.859 165.532 154.239 165.607 158.377Z" fill="white"/>
<path d="M156.046 153.346C156.385 153.383 157.138 153.495 157.138 153.495L157.514 150.028C157.552 149.99 156.235 152.451 156.046 153.346Z" fill="white"/>
<path d="M169.408 161.809V160.243C164.063 152.563 163.348 151.034 165.757 147.567C166.434 146.598 167.714 145.964 168.204 145.815C167.714 145.628 167.15 145.479 166.66 145.367C166.171 145.591 165.682 145.852 165.305 146.15C157.966 152.488 169.408 161.809 169.408 161.809Z" fill="#34488B"/>
<path d="M163.16 151.963C165.268 152.113 165.531 154.238 165.531 154.238C165.531 154.238 169.032 154.536 169.559 154.797C169.559 154.797 169.258 154.014 168.768 152.858C169.22 152.411 170.726 151.74 171.742 151.441C172.495 153.38 172.796 155.282 172.382 157.109C172.344 157.295 172.156 157.444 171.968 157.444C170.839 157.481 167.15 157.481 164.44 155.244H164.402C163.762 155.207 163.16 154.573 162.897 153.716C162.671 152.895 162.633 153.119 162.483 152.56C162.257 151.963 163.16 151.963 163.16 151.963Z" fill="#F9B07D"/>
<path d="M161.053 144.473C162.747 144.436 164.064 142.758 164.064 142.758L161.091 142.87C161.166 143.317 161.166 143.914 161.053 144.473Z" fill="#E8935C"/>
<path d="M160.863 143.467C160.863 143.467 164.627 143.914 164.74 141.267C164.815 138.62 163.234 136.905 162.181 136.942C160.073 136.979 159.734 137.837 159.508 138.694C159.282 139.589 159.132 143.28 160.863 143.467Z" fill="#F9B07D"/>
<path d="M161.881 141.934C161.881 141.934 161.806 142.27 160.978 142.195C160.978 142.195 160.3 142.158 160.3 141.785C160.3 141.785 160.978 141.562 161.881 141.934Z" fill="white"/>
<path d="M161.278 136.977C161.278 136.977 164.515 136.977 163.763 139.177C163.311 140.556 164.854 140.78 164.854 140.78L165.607 138.543L165.118 136.828L161.278 136.977Z" fill="#0C0D0D"/>
<path d="M114.981 140.631C114.981 140.631 113.701 137.946 110.615 139.55C107.528 141.153 110.54 147.193 108.921 148.684C107.303 150.175 109.523 151.145 109.185 152.226C108.846 153.307 109.787 154.538 111.97 154.389C114.153 154.239 116.411 154.351 117.39 152.487C118.369 150.623 118.143 146.484 117.766 145.888C117.352 145.329 114.981 140.631 114.981 140.631Z" fill="#222222"/>
<path d="M121.304 166.095L111.367 165.834C110.576 165.797 109.937 165.163 109.974 164.38L110.313 151.256C110.351 150.473 110.991 149.839 111.781 149.877L121.718 150.138C122.508 150.175 123.148 150.809 123.111 151.592L122.772 164.715C122.772 165.498 122.094 166.095 121.304 166.095Z" fill="#1D3E70"/>
<path d="M155.331 143.985C154.465 143.053 153.336 139.958 152.922 138.765L151.604 135.074C149.986 135.261 148.894 135.745 149.007 136.677C149.421 140.257 154.314 144.805 154.314 144.805C154.314 144.805 155.331 146.297 156.196 146.781C157.062 147.303 158.53 146.669 158.643 146.446C158.718 146.222 158.266 145.327 157.928 144.843C157.589 144.395 155.443 144.022 155.331 143.985Z" fill="#D8925C"/>
<path d="M119.987 154.872L114.718 151.74C114.755 151.74 114.868 151.554 115.245 150.436C115.395 149.951 115.508 149.541 115.546 149.205C115.546 149.168 115.546 149.131 115.546 149.093C115.583 148.609 115.546 148.348 115.546 148.348L116.713 148.758L118.858 149.541C118.821 150.063 118.896 150.436 119.009 150.697C119.272 151.33 119.799 151.33 119.837 151.33L119.987 154.872Z" fill="#F9B07D"/>
<path d="M119.046 150.697C116.976 150.883 115.809 149.541 115.584 149.205C115.546 149.168 115.508 149.131 115.508 149.131C115.508 149.131 115.546 149.131 115.584 149.093C115.734 149.056 116.223 148.907 116.75 148.758L118.896 149.541C118.858 150.063 118.934 150.436 119.046 150.697Z" fill="#ED975F"/>
<path d="M119.159 149.99C119.159 149.99 114.566 150.475 114.491 147.418C114.416 144.361 113.738 142.944 116.9 142.683C120.062 142.422 120.815 143.54 121.003 144.584C121.567 147.791 120.438 149.841 119.159 149.99Z" fill="#F9B07D"/>
<path d="M117.126 144.174C115.507 143.764 116.109 146.598 115.733 146.411C115.281 146.188 114.491 146.188 114.604 146.747C114.717 147.306 114.905 147.493 115.018 147.828C115.093 148.164 115.018 148.835 114.642 148.723C114.265 148.574 110.765 144.622 113.249 141.527C115.733 138.433 123.111 140.334 120.777 143.578C120.325 144.137 118.255 144.435 117.126 144.174Z" fill="#0C0D0D"/>
<path d="M130.715 150.063C130.564 149.653 130 149.728 129.586 150.212C129.209 150.622 129.209 151.778 129.247 151.965C128.758 152.561 127.214 154.202 126.311 154.985C126.123 155.134 125.784 155.096 125.596 154.91C125.107 154.463 124.241 153.754 123.789 153.456C123.112 153.046 119.385 150.548 118.896 151.629C118.896 151.629 119.159 155.73 125.219 158.228C125.822 158.489 126.499 158.415 127.026 158.042C127.93 157.445 129.36 155.991 130.339 152.337C130.301 152.375 131.204 151.331 130.715 150.063Z" fill="#F9B07D"/>
<path d="M123.11 188.279L120.701 188.913C120.701 188.913 119.196 183.768 118.895 180.189C118.857 179.63 118.819 179.145 118.857 178.698C118.932 176.647 114.528 168.146 117.54 166.207C119.61 164.865 122.583 165.984 122.583 165.984C122.583 165.984 122.997 176.796 122.997 178.847C122.997 179.108 122.997 179.48 122.997 179.928C122.997 182.761 123.11 188.279 123.11 188.279Z" fill="#F9B07D"/>
<path d="M118.48 166.657C118.48 166.657 116.523 177.655 116.034 180.116C115.996 180.302 115.958 180.451 115.958 180.526C115.732 181.533 114.603 188.542 114.603 188.542L112.194 188.43C112.194 188.43 111.479 183.285 111.63 179.594C111.667 178.699 111.743 177.879 111.931 177.245C112.797 174.039 110.802 166.097 113.926 164.233C117.05 162.332 118.48 166.657 118.48 166.657Z" fill="#F9B07D"/>
<path d="M118.857 148.201C118.857 148.015 119.271 147.828 119.572 147.828C119.873 147.828 120.25 148.015 120.25 148.126C120.212 148.425 119.873 148.686 119.572 148.686C119.271 148.723 118.857 148.499 118.857 148.201Z" fill="white"/>
<path d="M112.308 152.188C112.308 152.188 108.845 159.048 107.98 159.868C107.114 160.725 104.14 163.41 103.086 164.193C103.086 164.193 99.887 165.088 99.9622 165.46C100.038 165.833 102.183 165.759 102.409 165.871C102.635 165.982 101.92 166.542 102.522 166.542C102.898 166.542 103.312 165.833 103.5 165.386C103.5 165.386 108.921 162.776 109.711 162.329C110.501 161.919 112.91 158.936 113.324 157.668C113.851 156.363 112.308 152.188 112.308 152.188Z" fill="#F9B07D"/>
<path d="M124.842 157.298C125.482 155.732 125.105 154.091 125.105 154.091C122.847 151.593 121.454 151.332 120.965 151.37C119.384 151.071 116.486 151.295 114.867 151.444C114.867 151.407 114.867 151.407 114.867 151.407C114.867 151.407 112.308 151.593 111.593 152.451C110.877 153.308 108.28 157.596 108.28 157.596C108.28 157.596 108.167 158.64 109.334 159.796C109.748 160.206 110.351 160.616 111.179 161.026C111.404 161.138 111.593 161.175 111.818 161.175L109.41 172.621C110.313 174.075 112.157 175.007 114.265 175.567C118.669 176.76 124.277 176.424 124.691 175.753C125.143 172.994 124.503 165.015 123.6 158.976C124.24 158.491 124.616 157.894 124.842 157.298Z" fill="white"/>
<path d="M116.034 180.116C115.996 180.302 115.958 180.451 115.958 180.526C115.732 181.532 114.603 188.542 114.603 188.542L112.194 188.43C112.194 188.43 111.479 183.285 111.63 179.594C112.27 179.892 113.549 180.228 116.034 180.116Z" fill="#8C6239"/>
<path d="M118.068 190.331H112.046C112.046 190.331 111.933 189.362 112.083 188.505C112.083 188.393 112.158 188.318 112.234 188.244C112.572 188.355 113.099 188.43 113.702 188.244C114.191 188.057 114.605 187.759 114.831 187.535C114.906 187.61 116.073 188.84 116.638 188.84C117.202 188.803 118.106 189.101 118.068 190.331Z" fill="#1A1A1A"/>
<path d="M123.112 188.281L120.703 188.915C120.703 188.915 119.197 183.77 118.896 180.191C119.912 180.265 121.644 180.303 122.999 179.93C122.999 182.763 123.112 188.281 123.112 188.281Z" fill="#8C6239"/>
<path d="M126.423 190.331H120.401C120.401 190.331 120.288 189.362 120.438 188.505C120.438 188.393 120.438 188.318 120.513 188.244C120.852 188.355 121.454 188.43 122.019 188.244C122.508 188.057 122.847 187.759 123.111 187.535C123.186 187.61 124.39 188.84 124.993 188.84C125.557 188.803 126.461 189.101 126.423 190.331Z" fill="#1A1A1A"/>
<path d="M114.265 175.566C112.157 174.969 110.275 174.037 109.409 172.62L111.818 161.137C111.818 161.1 117.088 171.576 114.265 175.566Z" fill="white"/>
<path d="M111.63 152.41C111.63 152.41 111.141 158.376 109.372 159.755C108.205 158.599 108.318 157.555 108.318 157.555C108.318 157.555 110.877 153.268 111.63 152.41Z" fill="white"/>
<path d="M124.842 157.296C124.578 157.893 124.239 158.489 123.599 159.011C123.449 158.489 123.11 157.259 123.524 157.073C124.013 156.774 124.842 157.296 124.842 157.296Z" fill="white"/>
<path d="M130.3 149.615C130.677 149.391 131.015 148.683 131.128 148.422C132.257 145.663 133.537 140.294 133.951 139.325C134.102 138.952 134.403 137.274 134.779 135.074C135.494 131.16 136.473 125.679 137.489 123.479C137.602 123.218 137.941 122.995 138.393 122.808C139.597 122.323 141.517 122.062 141.969 122.025C142.458 121.652 143.135 120.012 143.098 117.477L143.324 117.514L146.975 118.222C146.975 118.222 146.899 119.341 146.899 120.422C146.899 121.317 146.937 122.174 147.163 122.249C147.426 122.286 147.577 122.286 147.577 122.286C147.577 122.286 150.626 126.462 150.852 130.339C151.115 134.217 148.405 135.895 150.889 143.65C153.373 151.554 136.398 146.558 137.339 144.507C139.033 140.742 139.823 139.698 139.861 138.505C139.898 137.684 139.522 136.789 138.807 134.851C138.732 135.074 138.694 135.298 138.619 135.522C138.205 137.013 137.866 138.355 137.715 138.989C137.264 141.04 132.521 148.869 132.521 148.869C132.521 148.869 132.37 148.981 132.22 149.429C132.069 149.913 130.714 152.449 130.112 152.449C129.547 152.449 129.397 151.591 129.284 151.032C129.209 150.584 129.849 149.913 130.3 149.615Z" fill="#D8925C"/>
<path d="M138.431 107.448C139.222 106.964 140.539 107.56 140.539 107.56C140.087 106.926 138.469 107.15 138.469 107.15C141.706 106.479 142.383 108.53 142.421 108.716C144.755 106.628 148.519 111.102 148.519 111.102L143.136 118.186C143.136 118.186 142.647 117.067 142.007 117.403C140.991 117.962 139.033 115.725 139.673 112.817C139.749 112.519 139.824 112.221 139.899 111.96C139.673 112.034 139.447 112.109 139.222 112.109C138.619 112.109 137.754 110.617 137.603 110.133C137.49 109.611 137.641 107.933 138.431 107.448Z" fill="#0C0D0D"/>
<path d="M147.012 118.259C147.012 118.259 146.937 119.378 146.937 120.459C144.904 120.384 143.812 118.557 143.398 117.551L147.012 118.259Z" fill="#CA7D44"/>
<path d="M143.023 117.143C143.023 117.143 141.969 115.465 141.706 114.048C141.517 113.042 142.044 109.239 145.884 109.798C145.884 109.798 147.013 109.91 148.029 110.618C148.857 111.178 150.062 112.371 148.707 115.689L148.368 116.807L143.023 117.143Z" fill="#2F2F30"/>
<path d="M147.689 119.269C147.689 119.269 142.871 119.343 142.871 116.36C142.871 113.378 142.231 111.402 145.317 111.215C148.404 111.029 149.006 112.185 149.232 113.154C149.496 114.198 148.969 119.157 147.689 119.269Z" fill="#D8925C"/>
<path d="M141.63 180.56C142.834 185.332 144.679 188.986 144.679 188.986L146.259 188.874C146.259 188.874 145.469 185.22 145.507 180.261C145.544 176.794 145.958 172.693 147.351 168.778C152.094 155.319 150.776 145.625 150.776 145.625L142.42 146.594L142.006 146.632C141.969 150.696 141.856 156.214 141.78 160.538C141.705 164.416 141.63 167.324 141.63 167.324C139.898 171.015 140.501 176.16 141.63 180.56Z" fill="#1D3E70"/>
<path d="M138.543 134.18C139.446 136.641 139.898 137.648 139.898 138.58C142.759 134.18 147.991 133.509 147.991 133.509L138.129 132.391C138.167 132.987 138.317 133.584 138.543 134.18Z" fill="#CA7D44"/>
<path d="M136.511 179.817C137.038 185.261 139.296 188.765 139.296 188.765L140.049 189.324C140.049 189.324 140.764 185.484 141.291 180.936C141.78 176.611 142.42 172.025 143.173 170.645C146.147 165.09 147.05 144.174 147.05 144.174L137.979 143.727C137.075 145.255 136.661 147.716 136.586 150.549C136.36 157.708 138.054 166.992 138.28 168.334C138.318 168.446 138.28 168.557 138.205 168.632C136.398 172.174 136.172 176.201 136.511 179.817Z" fill="#2A4E96"/>
<path d="M144.189 115.164C142.157 115.686 141.291 115.127 141.291 115.127C141.291 115.127 140.388 111.473 142.119 110.168C144.604 108.267 147.389 110.914 147.502 111.1C147.803 110.839 148.368 110.653 149.12 111.548C150.25 112.89 149.233 115.276 149.233 115.276C148.782 115.313 148.669 113.785 148.443 113.002C148.255 112.443 147.69 111.883 147.389 111.622C147.276 111.958 146.335 115.313 143.888 116.395C143.888 116.395 145.018 115.425 145.808 114.046C145.356 114.568 144.792 115.015 144.189 115.164Z" fill="#0C0D0D"/>
<path d="M136.21 147.268C136.21 147.566 136.774 172.919 136.849 173.068C137.038 173.664 137.715 173.925 139.296 173.776C140.275 173.664 140.124 146.969 140.312 145.59C140.915 147.566 141.818 174.261 142.872 174.485C144.415 174.82 152.244 175.752 152.771 172.099C153.336 168.035 149.609 141.079 151.454 131.422C151.68 130.043 151.755 128.85 151.755 127.843C151.68 125.084 150.889 123.555 150.249 122.921C150.061 122.772 149.911 122.698 149.195 122.586C148.819 122.511 148.33 122.437 147.614 122.362L147.313 122.325C147.464 122.549 149.233 125.233 149.082 125.904C148.932 126.613 142.646 125.979 142.232 125.569C141.78 125.158 141.103 122.176 141.103 122.176C141.103 122.176 138.882 122.399 137.79 123.22C137.678 123.332 137.565 123.406 137.489 123.518C136.323 125.718 135.156 131.236 134.365 135.188C136.36 136.269 138.054 135.933 138.619 135.822C137.903 140.333 136.323 145.217 136.21 147.268Z" fill="#AED093"/>
<path d="M136.512 179.816C137.039 185.26 139.297 188.764 139.297 188.764L140.088 189.473C140.088 189.473 140.803 185.484 141.292 180.935C140.727 180.972 138.356 181.047 136.512 179.816Z" fill="#2A4E96"/>
<path d="M141.629 180.56C142.834 185.332 144.678 188.986 144.678 188.986L146.259 188.874C146.259 188.874 145.469 185.22 145.506 180.262C144.979 180.523 143.85 180.821 141.629 180.56Z" fill="#1D3E70"/>
<path d="M143.737 190.33H144.753C145.092 190.292 145.356 190.18 145.694 190.143C146.221 190.069 146.485 190.292 146.522 190.33H150.813C150.926 190.18 150.813 189.808 150.7 189.547C150.625 189.36 150.475 189.248 150.286 189.174C149.835 189.025 148.931 188.913 148.103 188.204C147.652 187.794 145.845 186.676 145.845 186.676C145.807 186.676 145.619 186.75 144.829 187.421C144.415 187.757 143.699 186.937 143.699 186.937C143.699 186.937 143.549 187.049 143.474 187.235C143.398 187.384 143.323 187.608 143.398 187.906C143.474 188.279 143.248 188.987 143.097 189.472C142.984 189.77 142.909 189.957 142.909 189.957C142.909 189.957 142.871 190.218 143.737 190.33Z" fill="#1A1A1A"/>
<path d="M143.51 187.237C143.736 187.423 144.263 187.721 144.601 187.796C145.053 187.871 145.919 186.715 145.919 186.715C145.881 186.715 145.693 186.789 144.902 187.461C144.488 187.796 143.773 186.976 143.773 186.976C143.773 186.976 143.585 187.05 143.51 187.237Z" fill="#476AA4"/>
<path d="M143.737 190.33H144.753C145.092 190.293 145.355 190.181 145.694 190.144C146.221 190.069 146.485 190.293 146.522 190.33H150.813C150.926 190.181 150.813 189.808 150.7 189.547C150.587 189.435 150.55 190.032 150.474 190.144C150.399 190.256 146.974 190.181 146.748 190.032C146.56 189.883 145.958 189.622 145.129 189.845C144.414 190.032 143.323 189.585 143.059 189.473C142.946 189.771 142.871 189.957 142.871 189.957C142.871 189.957 142.871 190.218 143.737 190.33Z" fill="#476AA4"/>
<path d="M138.317 190.33H139.333C139.672 190.292 139.936 190.18 140.274 190.143C140.801 190.069 141.065 190.292 141.102 190.33H145.393C145.506 190.18 145.393 189.808 145.28 189.547C145.205 189.36 145.055 189.248 144.866 189.174C144.415 189.025 143.511 188.913 142.683 188.204C142.232 187.794 140.425 186.676 140.425 186.676C140.387 186.676 140.199 186.75 139.409 187.421C138.995 187.757 138.279 186.937 138.279 186.937C138.279 186.937 138.129 187.049 138.054 187.235C137.978 187.384 137.903 187.608 137.978 187.906C138.054 188.279 137.828 188.987 137.677 189.472C137.564 189.77 137.489 189.957 137.489 189.957C137.489 189.957 137.451 190.218 138.317 190.33Z" fill="#1A1A1A"/>
<path d="M138.09 187.237C138.316 187.423 138.843 187.721 139.181 187.796C139.633 187.871 140.499 186.715 140.499 186.715C140.461 186.715 140.273 186.789 139.483 187.461C139.068 187.796 138.353 186.976 138.353 186.976C138.353 186.976 138.203 187.05 138.09 187.237Z" fill="#476AA4"/>
<path d="M138.317 190.33H139.333C139.672 190.293 139.935 190.181 140.274 190.144C140.801 190.069 141.065 190.293 141.102 190.33H145.393C145.506 190.181 145.393 189.808 145.28 189.547C145.167 189.435 145.13 190.032 145.054 190.144C144.979 190.256 141.554 190.181 141.328 190.032C141.14 189.883 140.538 189.622 139.71 189.845C138.994 190.032 137.903 189.585 137.639 189.473C137.526 189.771 137.451 189.957 137.451 189.957C137.451 189.957 137.451 190.218 138.317 190.33Z" fill="#476AA4"/>
<path d="M136.209 147.265C137.301 146.892 138.468 149.018 140.124 146.892C144.528 141.263 140.689 131.606 140.124 131.494C139.597 131.382 138.581 135.782 138.581 135.782C137.903 140.33 136.322 145.215 136.209 147.265Z" fill="#86B174"/>
<path d="M147.164 117.665C147.164 117.665 147.954 117.478 148.556 117.665C148.556 117.665 147.992 118.336 147.164 117.665Z" fill="white"/>
<path d="M123.6 159.011C123.6 159.011 121.943 152.636 119.76 151.219C119.76 151.219 121.002 151.145 121.191 151.443C123.035 154.612 124.202 158.415 123.6 159.011Z" fill="#2A4E96"/>
<path d="M113.889 151.518C113.889 151.518 114.717 156.999 111.744 161.137C111.744 161.137 111.744 161.137 111.744 161.175L111.292 163.3C111.292 163.337 111.33 163.412 111.405 163.374C112.158 162.778 116.072 159.385 114.943 151.406C114.905 151.369 114.529 151.22 113.889 151.518Z" fill="#2A4E96"/>
<path d="M150.174 122.66C150.174 122.66 155.143 134.441 147.69 135.746C140.237 137.051 137.038 124.673 137.038 124.673C137.038 124.673 135.721 120.758 140.952 122.101C141.329 122.175 139.635 121.765 140.952 122.101C140.952 122.101 140.877 127.954 145.319 127.73C149.76 127.507 147.464 122.287 147.464 122.287L149.911 122.623L150.174 122.66Z" fill="#34488B"/>
<path d="M134.365 146.297L131.618 162.516L137.565 161.882L137.339 144.582L137.753 139.102L134.365 146.297Z" fill="#34488B"/>
<path d="M129.322 189.177C129.623 189.848 129.285 190.594 128.645 190.892C127.967 191.191 127.215 190.855 126.913 190.221C126.612 189.55 126.951 188.805 127.591 188.506C128.268 188.208 129.059 188.506 129.322 189.177Z" fill="#D66827"/>
<path d="M129.473 189.177C129.774 189.848 129.435 190.594 128.795 190.892C128.118 191.191 127.365 190.855 127.064 190.221C126.763 189.55 127.101 188.805 127.741 188.506C128.381 188.208 129.172 188.506 129.473 189.177Z" fill="#EFA250"/>
<path d="M139.937 189.177C140.238 189.848 139.899 190.594 139.259 190.892C138.582 191.191 137.829 190.855 137.528 190.221C137.227 189.55 137.565 188.805 138.205 188.506C138.883 188.208 139.635 188.506 139.937 189.177Z" fill="#D66827"/>
<path d="M140.049 189.177C140.351 189.848 140.012 190.594 139.372 190.892C138.694 191.191 137.942 190.855 137.64 190.221C137.339 189.55 137.678 188.805 138.318 188.506C138.995 188.208 139.748 188.506 140.049 189.177Z" fill="#EFA250"/>
<path d="M126.611 189.027L128.493 189.698C128.682 189.773 128.87 189.81 129.096 189.81L139.748 189.698L140.914 187.797L126.611 189.027Z" fill="#D66827"/>
<path d="M133.688 156.516C133.725 156.255 134.064 153.719 137.15 153.645L139.371 153.421C139.522 153.384 140.463 153.235 141.178 153.794C141.667 154.167 141.931 154.763 141.968 155.546C142.006 156.553 140.726 163.189 140.124 166.135L144.114 166.918C144.114 166.918 145.77 167.589 145.469 170.497C145.168 173.069 143.888 187.386 143.888 187.386C143.888 187.386 143.625 190.369 137.188 189.512L138.393 165.762L139.597 165.986C140.388 162.108 141.479 156.404 141.441 155.509C141.404 154.875 141.216 154.428 140.877 154.167C140.312 153.757 139.522 153.906 139.522 153.906L137.226 154.129H137.188C134.516 154.204 134.29 156.404 134.29 156.478L132.408 166.769L131.843 166.657L133.688 156.516Z" fill="#D66827"/>
<path d="M141.554 169.712L140.011 185.781C139.936 186.415 139.71 187.012 139.371 187.534C138.694 188.466 137.602 189.062 136.398 189.062L131.091 189.1H130.978L127.628 189.137C127.289 189.137 126.95 189.1 126.649 189.025C126.574 188.988 126.499 188.988 126.423 188.95C125.256 188.578 124.391 187.646 124.052 186.49C123.901 186.005 123.864 185.483 123.939 184.924L126.348 169.563C126.611 167.923 127.966 166.655 129.623 166.506L130.564 166.431L130.789 166.394H130.978L134.139 166.096L134.516 166.058L137.565 165.76C138.054 165.723 138.506 165.76 138.92 165.872C138.957 165.872 138.957 165.872 138.995 165.909L139.183 165.984C140.651 166.506 141.705 168.034 141.554 169.712Z" fill="#EFA250"/>
<path opacity="0.4" d="M139.334 187.536C138.656 188.468 137.565 189.065 136.36 189.065L131.053 189.102H130.94L127.59 189.139C127.251 189.139 126.913 189.102 126.611 189.027C126.536 188.99 126.461 188.99 126.386 188.953C125.219 188.58 123.901 187.2 123.864 185.709C123.864 185.709 135.118 185.56 137.489 185.933C138.732 186.119 139.108 186.977 139.334 187.536Z" fill="#D66827"/>
<path d="M125.369 186.379C125.444 185.745 127.628 170.533 127.966 169.154C128.267 167.96 129.999 166.767 130.563 166.432L130.789 166.395H130.977C130.94 166.395 128.493 167.886 128.154 169.191C127.816 170.533 125.595 186.229 125.557 186.379C125.557 186.379 125.482 187.907 126.762 189.026L126.611 188.988C126.536 188.951 126.461 188.951 126.385 188.914C125.219 187.758 125.369 186.416 125.369 186.379Z" fill="#D66827"/>
<path d="M132.295 169.155C132.558 167.515 133.537 166.508 134.101 166.061L134.478 166.023C134.139 166.247 132.784 167.291 132.483 169.155C132.144 171.355 130.827 187.424 130.789 187.573C130.789 187.573 130.601 188.431 131.128 189.027H130.977H130.864C130.337 188.394 130.563 187.611 130.563 187.499C130.676 187.089 131.956 171.355 132.295 169.155Z" fill="#D66827"/>
<path d="M136.925 169.079C137.226 167.029 138.618 166.059 138.92 165.91C138.957 165.91 138.957 165.91 138.995 165.947L139.183 166.022C139.183 166.022 138.656 166.32 138.204 166.805C137.753 167.29 137.263 168.073 137.113 169.154C136.774 171.354 135.72 187.386 135.72 187.535C135.72 187.535 135.683 188.504 136.21 189.101H135.871C135.457 188.579 135.494 187.572 135.532 187.46C135.532 186.938 136.586 171.279 136.925 169.079Z" fill="#D66827"/>
</g>
<path d="M1282.92 81.5401C1273.57 81.5401 1265.99 74.0319 1265.99 64.7701C1265.99 55.5082 1273.57 48 1282.92 48C1292.27 48 1299.85 55.5082 1299.85 64.7701C1299.85 74.0319 1292.27 81.5401 1282.92 81.5401Z" fill="#FFB728"/>
<path d="M1185.52 173.187H1213.65C1213.97 171.62 1213.95 170.004 1213.59 168.446C1213.22 166.889 1212.53 165.425 1211.56 164.153C1210.58 162.88 1209.34 161.828 1207.92 161.066C1206.5 160.305 1204.94 159.85 1203.33 159.734C1203.21 157.479 1202.23 155.355 1200.57 153.801C1198.92 152.248 1196.72 151.383 1194.45 151.387C1192.17 151.39 1189.98 152.262 1188.33 153.821C1186.68 155.38 1185.7 157.507 1185.59 159.763L1185.52 173.187Z" fill="#EE3420"/>
<path d="M1218.83 173.345H1325.7L1289.26 137.612C1284.7 133.098 1278.52 130.562 1272.08 130.562C1265.63 130.562 1259.45 133.098 1254.9 137.612L1218.83 173.345Z" fill="#EE3420"/>
<path d="M1314.16 65.1875H1342.7V173.2H1314.16V65.1875Z" fill="#F5887C"/>
<path d="M1281.75 65.1875H1314.16V173.2H1281.75V65.1875Z" fill="#FEF2F0"/>
<path d="M1281.75 170.48H1314.16V173.201H1281.75V170.48Z" fill="#F5887C"/>
<path d="M1281.75 146.328H1314.16V170.48H1281.75V146.328Z" fill="#F5887C"/>
<path d="M1305.77 72.6992H1308.67V84.741H1305.77V72.6992Z" fill="#F47B6D"/>
<path d="M1305.77 86.6914H1308.67V98.7332H1305.77V86.6914Z" fill="#F47B6D"/>
<path d="M1305.77 100.684H1308.67V112.725H1305.77V100.684Z" fill="#F47B6D"/>
<path d="M1305.77 114.676H1308.67V126.718H1305.77V114.676Z" fill="#F47B6D"/>
<path d="M1305.77 128.668H1308.67V140.71H1305.77V128.668Z" fill="#F47B6D"/>
<path d="M1299.63 72.6992H1302.53V84.741H1299.63V72.6992Z" fill="#F47B6D"/>
<path d="M1299.63 86.6914H1302.53V98.7332H1299.63V86.6914Z" fill="#F47B6D"/>
<path d="M1299.63 100.684H1302.53V112.725H1299.63V100.684Z" fill="#F47B6D"/>
<path d="M1299.63 114.676H1302.53V126.718H1299.63V114.676Z" fill="#F47B6D"/>
<path d="M1299.63 128.668H1302.53V140.71H1299.63V128.668Z" fill="#F47B6D"/>
<path d="M1293.5 72.6992H1296.39V84.741H1293.5V72.6992Z" fill="#F47B6D"/>
<path d="M1293.5 86.6914H1296.39V98.7332H1293.5V86.6914Z" fill="#F47B6D"/>
<path d="M1293.5 100.684H1296.39V112.725H1293.5V100.684Z" fill="#F47B6D"/>
<path d="M1293.5 114.676H1296.39V126.718H1293.5V114.676Z" fill="#F47B6D"/>
<path d="M1293.5 128.668H1296.39V140.71H1293.5V128.668Z" fill="#F47B6D"/>
<path d="M1287.36 72.6992H1290.25V84.741H1287.36V72.6992Z" fill="#F47B6D"/>
<path d="M1287.36 86.6914H1290.25V98.7332H1287.36V86.6914Z" fill="#F47B6D"/>
<path d="M1287.36 100.684H1290.25V112.725H1287.36V100.684Z" fill="#F47B6D"/>
<path d="M1287.36 114.676H1290.25V126.718H1287.36V114.676Z" fill="#F47B6D"/>
<path d="M1287.36 128.668H1290.25V140.71H1287.36V128.668Z" fill="#F47B6D"/>
<path d="M1305.7 72.6992H1306.61V84.741H1305.7V72.6992Z" fill="#C1200F"/>
<path d="M1305.7 86.6914H1306.61V98.7332H1305.7V86.6914Z" fill="#C1200F"/>
<path d="M1305.7 100.684H1306.61V112.725H1305.7V100.684Z" fill="#C1200F"/>
<path d="M1305.7 114.676H1306.61V126.718H1305.7V114.676Z" fill="#C1200F"/>
<path d="M1305.7 128.668H1306.61V140.71H1305.7V128.668Z" fill="#C1200F"/>
<path d="M1299.57 72.6992H1300.47V84.741H1299.57V72.6992Z" fill="#C1200F"/>
<path d="M1299.57 86.6914H1300.47V98.7332H1299.57V86.6914Z" fill="#C1200F"/>
<path d="M1299.57 100.684H1300.47V112.725H1299.57V100.684Z" fill="#C1200F"/>
<path d="M1299.57 114.676H1300.47V126.718H1299.57V114.676Z" fill="#C1200F"/>
<path d="M1299.57 128.668H1300.47V140.71H1299.57V128.668Z" fill="#C1200F"/>
<path d="M1293.43 72.6992H1294.34V84.741H1293.43V72.6992Z" fill="#C1200F"/>
<path d="M1293.43 86.6914H1294.34V98.7332H1293.43V86.6914Z" fill="#C1200F"/>
<path d="M1293.43 100.684H1294.34V112.725H1293.43V100.684Z" fill="#C1200F"/>
<path d="M1293.43 114.676H1294.34V126.718H1293.43V114.676Z" fill="#C1200F"/>
<path d="M1293.43 128.668H1294.34V140.71H1293.43V128.668Z" fill="#C1200F"/>
<path d="M1287.29 72.6992H1288.2V84.741H1287.29V72.6992Z" fill="#C1200F"/>
<path d="M1287.29 86.6914H1288.2V98.7332H1287.29V86.6914Z" fill="#C1200F"/>
<path d="M1287.29 100.684H1288.2V112.725H1287.29V100.684Z" fill="#C1200F"/>
<path d="M1287.29 114.676H1288.2V126.718H1287.29V114.676Z" fill="#C1200F"/>
<path d="M1287.29 128.668H1288.2V140.71H1287.29V128.668Z" fill="#C1200F"/>
<path d="M1281.75 62.4414H1342.7V63.3403H1281.75V62.4414Z" fill="#FEF2F0"/>
<path d="M1305.61 169.584V149.18H1298.41V169.584H1305.61ZM1297.5 169.584V149.18H1290.31V169.584H1297.5ZM1281.75 149.18V148.281H1314.16V149.18H1306.52V169.584H1314.18V170.483H1281.76V169.584H1289.41V149.18H1281.75Z" fill="#FEF2F0"/>
<path d="M1346.57 116.551V173.2H1402.56V115.632L1375.11 92.494L1375.11 92.4922L1375.11 92.4958L1346.57 116.551Z" fill="#F5887C"/>
<path d="M1315.12 116.551H1346.58V173.2H1315.12V116.551Z" fill="#FEF2F0"/>
<path d="M1339 125.523H1341.19V130.94H1339V125.523Z" fill="#F47B6D"/>
<path d="M1332.52 125.523H1334.71V130.94H1332.52V125.523Z" fill="#F47B6D"/>
<path d="M1326.04 125.523H1328.22V130.94H1326.04V125.523Z" fill="#F47B6D"/>
<path d="M1319.55 125.523H1321.74V130.94H1319.55V125.523Z" fill="#F47B6D"/>
<path d="M1339 137.012H1341.19V142.429H1339V137.012Z" fill="#F47B6D"/>
<path d="M1332.52 137.012H1334.71V142.429H1332.52V137.012Z" fill="#F47B6D"/>
<path d="M1326.04 137.012H1328.22V142.429H1326.04V137.012Z" fill="#F47B6D"/>
<path d="M1319.55 137.012H1321.74V142.429H1319.55V137.012Z" fill="#F47B6D"/>
<path d="M1339 148.5H1341.19V153.917H1339V148.5Z" fill="#F47B6D"/>
<path d="M1332.52 148.5H1334.71V153.917H1332.52V148.5Z" fill="#F47B6D"/>
<path d="M1326.04 148.5H1328.22V153.917H1326.04V148.5Z" fill="#F47B6D"/>
<path d="M1319.55 148.5H1321.74V153.917H1319.55V148.5Z" fill="#F47B6D"/>
<path d="M1339 159.98H1341.19V165.397H1339V159.98Z" fill="#F47B6D"/>
<path d="M1332.52 159.98H1334.71V165.397H1332.52V159.98Z" fill="#F47B6D"/>
<path d="M1326.04 159.98H1328.22V165.397H1326.04V159.98Z" fill="#F47B6D"/>
<path d="M1319.55 159.98H1321.74V165.397H1319.55V159.98Z" fill="#F47B6D"/>
<path d="M1315.12 170.48H1346.58V173.201H1315.12V170.48Z" fill="#F5887C"/>
<path d="M1315.12 116.535H1346.58V119.255H1315.12V116.535Z" fill="#F5887C"/>
<path d="M1314.16 116.554H1346.58L1375.11 92.4922H1342.7L1314.16 116.554Z" fill="#FDE5E2"/>
<path d="M1342.7 91.4141H1375.11V92.4928H1342.7V91.4141Z" fill="#FEF2F0"/>
<path d="M1314.16 116.468V117.367H1346.58V116.468H1341.09L1369.47 92.4922H1368.08L1339.69 116.468H1334.46L1362.82 92.4922H1361.42L1333.06 116.468H1327.82L1356.22 92.4922H1354.82L1326.42 116.468H1321.19L1349.57 92.4922H1348.17L1319.79 116.468H1314.16Z" fill="#FCD7D3"/>
<path d="M1164.89 86.0273H1192.98V173.2H1164.89V86.0273Z" fill="#FEF2F0"/>
<path d="M1145.91 86.0273H1164.89V173.162H1145.91V86.0273Z" fill="#F5887C"/>
<path d="M1186.53 152.711H1188.46V169.096H1186.53V152.711Z" fill="#F47B6D"/>
<path d="M1180.84 152.711H1182.78V169.096H1180.84V152.711Z" fill="#F47B6D"/>
<path d="M1174.96 152.711H1176.9V169.096H1174.96V152.711Z" fill="#F47B6D"/>
<path d="M1169.08 152.711H1171.02V169.096H1169.08V152.711Z" fill="#F47B6D"/>
<path d="M1188.4 152.711H1189.3V169.096H1188.4V152.711Z" fill="#C1200F"/>
<path d="M1182.71 152.711H1183.62V169.096H1182.71V152.711Z" fill="#C1200F"/>
<path d="M1176.83 152.711H1177.74V169.096H1176.83V152.711Z" fill="#C1200F"/>
<path d="M1170.95 152.711H1171.86V169.096H1170.95V152.711Z" fill="#C1200F"/>
<path d="M1186.53 92.0977V123.497C1187.22 122.513 1187.85 121.48 1188.4 120.406C1188.42 120.361 1188.44 120.316 1188.46 120.271V92.0977H1186.53Z" fill="#F47B6D"/>
<path d="M1180.84 92.0977V129.259C1181.47 128.793 1182.09 128.288 1182.71 127.739L1182.78 127.678V92.0977H1180.84Z" fill="#F47B6D"/>
<path d="M1174.96 92.0977V132.665C1175.56 132.401 1176.19 132.105 1176.83 131.767L1176.9 131.731V92.0977H1174.96Z" fill="#F47B6D"/>
<path d="M1169.08 92.0977V134.569C1169.08 134.569 1169.79 134.447 1170.95 134.114L1171.02 134.097V92.0977H1169.08Z" fill="#F47B6D"/>
<path d="M1188.4 92.0977V120.404C1188.72 119.768 1189.02 119.103 1189.3 118.411V92.0977H1188.4Z" fill="#C1200F"/>
<path d="M1182.71 92.0977V127.739C1183.01 127.466 1183.32 127.183 1183.62 126.891V92.0977H1182.71Z" fill="#C1200F"/>
<path d="M1176.83 92.0977V131.767C1177.13 131.61 1177.43 131.445 1177.74 131.274V92.0977H1176.83Z" fill="#C1200F"/>
<path d="M1170.95 92.0977V134.114C1171.23 134.035 1171.53 133.943 1171.86 133.838V92.0977H1170.95Z" fill="#C1200F"/>
<path d="M1157.33 92.0977V111.406L1159.26 113.411V92.0977H1157.33Z" fill="#F7A299"/>
<path d="M1151.45 92.0977V105.319L1153.38 107.323V92.0977H1151.45Z" fill="#F7A299"/>
<path d="M1145.91 83.3555H1192.98V84.2544H1145.91V83.3555Z" fill="#FEF2F0"/>
<path d="M1079.48 123.562H1127.38V173.2H1079.48V123.562Z" fill="#F5887C"/>
<path d="M1127.38 123.558V173.197H1164.44V173.181H1163.99V123.088L1145.91 104.375L1127.38 123.558Z" fill="#FEF2F0"/>
<path d="M1145.91 120.55C1144.4 120.55 1143.17 119.334 1143.17 117.834C1143.17 116.333 1144.4 115.117 1145.91 115.117C1147.42 115.117 1148.65 116.333 1148.65 117.834C1148.65 119.334 1147.42 120.55 1145.91 120.55Z" fill="#FCD7D3"/>
<path d="M1127.38 155.973V156.872H1143.05V173.192H1143.96V156.872H1150.33V173.192H1151.24V156.872H1163.99V155.973H1127.38Z" fill="#F5887C"/>
<path d="M1145.91 104.375H1097.89L1079.47 123.558H1127.38L1145.91 104.375Z" fill="#FDE5E2"/>
<path d="M1097.88 103.48H1145.91V104.379H1097.88V103.48Z" fill="#FEF2F0"/>
<path d="M1079.48 123.585V124.484H1127.38V123.585H1119.04L1137.59 104.375H1136.33L1117.78 123.585H1111.12L1129.73 104.375H1128.41L1109.86 123.585H1103.2L1121.75 104.375H1120.49L1101.94 123.585H1095.28L1113.83 104.375H1112.57L1094.02 123.585H1087.36L1105.91 104.375H1104.65L1086.1 123.585H1079.48Z" fill="#FCD7D3"/>
<path d="M1143.2 129.324H1148.62V134.698H1143.2V129.324Z" fill="#F6958A"/>
<path d="M1152.98 129.324H1158.4V134.698H1152.98V129.324Z" fill="#F6958A"/>
<path d="M1133.42 129.324H1138.84V134.698H1133.42V129.324Z" fill="#F6958A"/>
<path d="M1143.2 147.344H1148.62V152.717H1143.2V147.344Z" fill="#F6958A"/>
<path d="M1152.98 147.344H1158.4V152.717H1152.98V147.344Z" fill="#F6958A"/>
<path d="M1133.42 147.344H1138.84V152.717H1133.42V147.344Z" fill="#F6958A"/>
<path d="M1143.2 138.336H1148.62V143.71H1143.2V138.336Z" fill="#F6958A"/>
<path d="M1152.98 138.336H1158.4V143.71H1152.98V138.336Z" fill="#F6958A"/>
<path d="M1133.42 138.336H1138.84V143.71H1133.42V138.336Z" fill="#F6958A"/>
<path d="M1157.56 129.324H1158.47V134.698H1157.56V129.324Z" fill="#FCD7D3"/>
<path d="M1157.56 138.348H1158.47V143.721H1157.56V138.348Z" fill="#FCD7D3"/>
<path d="M1157.56 147.344H1158.47V152.717H1157.56V147.344Z" fill="#FCD7D3"/>
<path d="M1147.71 129.324H1148.62V134.698H1147.71V129.324Z" fill="#FCD7D3"/>
<path d="M1147.71 138.348H1148.62V143.721H1147.71V138.348Z" fill="#FCD7D3"/>
<path d="M1147.71 147.344H1148.62V152.717H1147.71V147.344Z" fill="#FCD7D3"/>
<path d="M1137.94 129.324H1138.84V134.698H1137.94V129.324Z" fill="#FCD7D3"/>
<path d="M1137.94 138.348H1138.84V143.721H1137.94V138.348Z" fill="#FCD7D3"/>
<path d="M1137.93 147.344H1138.84V152.717H1137.93V147.344Z" fill="#FCD7D3"/>
<path d="M1102.71 162.329V173.198H1117.54V147.344L1102.71 162.329Z" fill="#FEF2F0"/>
<path d="M1065 162.328H1102.71V173.196H1065V162.328Z" fill="#F5887C"/>
<path d="M1110.48 162.328C1109.81 162.328 1109.17 162.591 1108.7 163.06C1108.22 163.528 1107.96 164.163 1107.96 164.825V173.196H1113V164.827C1113 164.499 1112.94 164.174 1112.81 163.871C1112.68 163.567 1112.5 163.292 1112.26 163.06C1112.03 162.827 1111.75 162.643 1111.45 162.518C1111.14 162.392 1110.81 162.328 1110.48 162.328V162.328Z" fill="#F7A299"/>
<path d="M1079.48 147.34L1065 162.328H1102.71L1117.54 147.343L1079.48 147.34Z" fill="#FDE5E2"/>
<path d="M1065 162.352V163.251H1102.71V162.352H1095.46L1109.96 147.34H1108.71L1094.2 162.352H1087.54L1102.04 147.34H1100.79L1086.28 162.352H1079.62L1094.12 147.34H1092.87L1078.36 162.352H1071.7L1086.2 147.34H1084.95L1070.45 162.352H1065Z" fill="#FCD7D3"/>
<path d="M1079.45 146.441H1117.54V147.34H1079.45V146.441Z" fill="#FEF2F0"/>
<path d="M1103.54 129.324H1108.6V134.698H1103.54V129.324Z" fill="#F7A299"/>
<path d="M1103.54 138.336H1108.6V143.71H1103.54V138.336Z" fill="#F7A299"/>
<path d="M1112.48 129.324H1117.54V134.698H1112.48V129.324Z" fill="#F7A299"/>
<path d="M1112.48 138.336H1117.54V143.71H1112.48V138.336Z" fill="#F7A299"/>
<path d="M1085.64 129.324H1090.71V134.698H1085.64V129.324Z" fill="#F7A299"/>
<path d="M1085.64 138.336H1090.71V143.71H1085.64V138.336Z" fill="#F7A299"/>
<path d="M1094.59 129.324H1099.65V134.698H1094.59V129.324Z" fill="#F7A299"/>
<path d="M1094.59 138.336H1099.65V143.71H1094.59V138.336Z" fill="#F7A299"/>
<path d="M1112.21 129.324H1113.12V134.698H1112.21V129.324Z" fill="#AE1D0D"/>
<path d="M1112.21 138.336H1113.12V143.71H1112.21V138.336Z" fill="#AE1D0D"/>
<path d="M1085.37 129.324H1086.28V134.698H1085.37V129.324Z" fill="#AE1D0D"/>
<path d="M1085.37 138.336H1086.28V143.71H1085.37V138.336Z" fill="#AE1D0D"/>
<path d="M1094.32 138.336H1095.23V143.71H1094.32V138.336Z" fill="#AE1D0D"/>
<path d="M1094.32 129.324H1095.23V134.698H1094.32V129.324Z" fill="#AE1D0D"/>
<path d="M1103.26 129.324H1104.17V134.698H1103.26V129.324Z" fill="#AE1D0D"/>
<path d="M1103.26 138.336H1104.17V143.71H1103.26V138.336Z" fill="#AE1D0D"/>
<path d="M1375.11 92.4951L1375.11 92.498V92.4922L1375.11 92.4951Z" fill="#F5887C"/>
<path d="M1375.11 92.4922V92.5004L1375.11 92.4963L1375.11 92.4922Z" fill="#F5887C"/>
<path d="M1346.57 144.094H1402.56V173.202H1346.57V144.094Z" fill="#FEF2F0"/>
<path d="M1346.57 144.094H1402.56V146.814H1346.57V144.094Z" fill="#F5887C"/>
<path d="M1402.56 144.091H1346.57L1375.11 120.031H1402.56V144.091Z" fill="#FDE5E2"/>
<path d="M1346.57 143.834V144.733H1402.56V143.834H1395.47L1402.56 137.866V136.686L1394.07 143.834H1388.4L1402.56 131.902V130.723L1386.99 143.834H1381.5L1402.56 126.093V124.912L1380.1 143.834H1374.6L1402.56 120.283V120.031H1401.45L1373.2 143.834H1368.07L1396.32 120.031H1394.92L1366.67 143.834H1361.17L1389.42 120.031H1388.02L1359.77 143.834H1354.28L1382.53 120.031H1381.13L1352.88 143.834H1346.57Z" fill="#FCD7D3"/>
<path d="M1352.29 161.657V173.193H1369.39V161.657C1369.36 159.431 1368.45 157.308 1366.85 155.746C1365.25 154.184 1363.09 153.309 1360.84 153.309C1358.6 153.309 1356.44 154.184 1354.84 155.746C1353.24 157.308 1352.33 159.431 1352.29 161.657H1352.29Z" fill="#F5887C"/>
<path d="M1360.85 155.797C1359.28 155.797 1357.77 156.414 1356.66 157.513C1355.55 158.612 1354.93 160.102 1354.93 161.656V173.193H1366.76V161.654C1366.76 160.101 1366.13 158.611 1365.03 157.513C1363.92 156.415 1362.41 155.797 1360.85 155.797Z" fill="#C1200F"/>
<path d="M1352.29 161.208V162.106H1354.46V167.034H1352.29V167.933H1354.46V173.194H1355.37V161.657C1355.4 160.24 1355.98 158.889 1357.01 157.896C1358.03 156.902 1359.4 156.346 1360.83 156.346C1362.26 156.346 1363.64 156.902 1364.66 157.896C1365.68 158.889 1366.27 160.24 1366.29 161.657V173.194H1367.2V167.933H1369.38V167.034H1367.2V162.106H1369.38V161.208H1367.18C1367.08 159.745 1366.47 158.363 1365.45 157.299L1366.99 155.773C1366.78 155.555 1366.56 155.35 1366.32 155.158L1364.77 156.699C1363.77 155.919 1362.56 155.455 1361.29 155.366V153.188H1360.39V155.366C1359.12 155.454 1357.91 155.918 1356.91 156.697L1355.36 155.16C1355.16 155.32 1354.97 155.491 1354.79 155.668C1354.76 155.703 1354.72 155.737 1354.69 155.773L1356.24 157.299C1355.22 158.359 1354.6 159.74 1354.49 161.204L1352.29 161.208Z" fill="#FEF2F0"/>
<path d="M1392.9 148.5H1395.09V153.917H1392.9V148.5Z" fill="#F47B6D"/>
<path d="M1386.42 148.5H1388.6V153.917H1386.42V148.5Z" fill="#F47B6D"/>
<path d="M1379.93 148.5H1382.12V153.917H1379.93V148.5Z" fill="#F47B6D"/>
<path d="M1392.9 159.98H1395.09V165.397H1392.9V159.98Z" fill="#F47B6D"/>
<path d="M1386.42 159.98H1388.6V165.397H1386.42V159.98Z" fill="#F47B6D"/>
<path d="M1379.93 159.98H1382.12V165.397H1379.93V159.98Z" fill="#F47B6D"/>
<path d="M1346.57 170.48V173.201H1402.56V170.48H1369.39V173.192H1352.29V170.48H1346.57Z" fill="#F5887C"/>
<path d="M1256.74 171.227V173.205H1281.75V154.887H1277.48C1274.97 154.887 1272.56 155.876 1270.78 157.636C1269 159.396 1268 161.784 1268 164.273V164.812H1263.22C1261.5 164.812 1259.86 165.488 1258.64 166.691C1257.42 167.893 1256.74 169.525 1256.74 171.227V171.227Z" fill="#E82711"/>
<path d="M1204.33 173.204V171.994C1204.33 170.339 1203.67 168.751 1202.49 167.581C1201.3 166.41 1199.7 165.752 1198.03 165.75H1186.05C1185.46 163.59 1184.16 161.683 1182.37 160.323C1180.57 158.964 1178.37 158.227 1176.11 158.227H1174.73C1172.57 158.227 1170.45 158.905 1168.7 160.164C1166.94 161.423 1165.63 163.198 1164.95 165.238H1163.72C1161.7 165.238 1159.77 166.03 1158.34 167.441C1156.92 168.851 1156.11 170.765 1156.11 172.762V173.265L1204.33 173.204Z" fill="#E82711"/>
<path d="M1164.89 139.982V139.083C1172.41 138.955 1179.44 136.089 1184.74 130.982C1187.39 128.448 1189.5 125.41 1190.94 122.049C1192.38 118.688 1193.12 115.074 1193.11 111.423V107.934H1194.02V111.423C1194.02 126.678 1207 139.088 1222.96 139.088C1238.92 139.088 1251.9 126.683 1251.9 111.423V107.934H1252.81V111.423C1252.81 126.678 1265.79 139.088 1281.75 139.088V139.987C1279.93 139.988 1278.12 139.83 1276.33 139.512V144.428H1281.75V145.326H1252.81V146.362H1281.75V147.261H1252.81V151.773C1253.42 150.714 1254.3 149.832 1255.36 149.218C1256.42 148.605 1257.63 148.281 1258.86 148.28H1281.75V149.179H1258.86C1257.26 149.181 1255.72 149.813 1254.59 150.937C1253.45 152.061 1252.81 153.584 1252.81 155.173V173.202H1251.9V155.173C1251.9 153.584 1251.26 152.06 1250.13 150.936C1248.99 149.812 1247.46 149.181 1245.85 149.179H1200.07C1198.47 149.181 1196.93 149.812 1195.79 150.936C1194.66 152.06 1194.02 153.584 1194.02 155.173V173.202H1193.11V155.173C1193.11 153.584 1192.47 152.061 1191.34 150.937C1190.2 149.813 1188.66 149.181 1187.06 149.179H1164.89V148.28H1187.06C1188.29 148.281 1189.5 148.605 1190.56 149.218C1191.62 149.832 1192.5 150.714 1193.11 151.773V147.261H1164.89V146.362H1193.11V145.326H1164.89V144.428H1169.59V139.55C1168.04 139.813 1166.47 139.957 1164.89 139.982V139.982ZM1270.44 144.428H1275.41V139.34C1273.71 138.988 1272.05 138.493 1270.44 137.86V144.428ZM1264.56 144.428H1269.53V137.484C1267.79 136.736 1266.13 135.826 1264.56 134.766V144.428ZM1258.68 144.428H1263.65V134.128C1261.82 132.791 1260.15 131.25 1258.68 129.534V144.428ZM1252.8 144.428H1257.77V128.427C1255.46 125.456 1253.77 122.055 1252.8 118.426V144.428ZM1204.86 134.128C1203.03 132.791 1201.36 131.251 1199.89 129.536V144.428H1204.87L1204.86 134.128ZM1210.74 137.486C1209 136.737 1207.33 135.826 1205.77 134.766V144.428H1210.74V137.486ZM1216.62 139.34C1214.92 138.988 1213.26 138.493 1211.65 137.86V144.428H1216.62V139.34ZM1222.5 139.983C1220.83 139.961 1219.17 139.804 1217.53 139.512V144.428H1222.5V139.983ZM1228.38 139.514C1226.74 139.804 1225.07 139.961 1223.41 139.983V144.428H1228.38V139.514ZM1234.26 137.86C1232.64 138.493 1230.98 138.988 1229.28 139.341V144.428H1234.26V137.86ZM1240.13 134.768C1238.57 135.827 1236.9 136.737 1235.16 137.486V144.428H1240.13V134.768ZM1246.01 129.536C1244.54 131.251 1242.87 132.793 1241.04 134.13V144.428H1246.01V129.536ZM1251.89 118.424C1250.93 122.055 1249.24 125.457 1246.92 128.429V144.429H1251.89V118.424ZM1194 151.773C1194.61 150.713 1195.49 149.832 1196.55 149.218C1197.62 148.604 1198.82 148.281 1200.05 148.28H1245.85C1247.08 148.281 1248.29 148.605 1249.35 149.218C1250.42 149.832 1251.3 150.713 1251.9 151.773V147.261H1194.01L1194 151.773ZM1194 146.362H1251.89V145.326H1194V146.362ZM1194 144.428H1198.97V128.427C1196.66 125.455 1194.97 122.053 1194 118.422V144.428ZM1188.12 144.428H1193.09V118.508C1192.14 122.151 1190.45 125.564 1188.12 128.542V144.428ZM1182.24 144.428H1187.22V129.651C1186.63 130.332 1186.01 130.991 1185.35 131.629C1184.38 132.57 1183.34 133.444 1182.24 134.243V144.428ZM1176.37 144.428H1181.34V134.874C1179.77 135.929 1178.11 136.832 1176.37 137.571V144.428ZM1170.49 144.428H1175.46V137.937C1173.85 138.558 1172.18 139.039 1170.49 139.376V144.428Z" fill="#DBDBDB"/>
<path opacity="0.2" d="M0 173H1440V205H0V173Z" fill="#151414"/>
<path d="M1.34552e-05 196V205H7.85933V198.916H90.665V205H98.5243V198.916H182.996V205H190.856V198.916H275.343V205H283.203V198.916H367.675V205H375.534V198.916H460.022V205H467.881V198.916H552.353V205H560.212V198.916H644.7V205H652.559V198.916H737.047V205H744.906V198.916H829.378V205H837.237V198.916H921.725V205H929.584V198.916H1014.06V205H1021.92V198.916H1106.4V205H1114.26V198.916H1198.42V205H1206.28V198.916H1290.77V205H1298.63V198.916H1383.1V205H1390.96V198.916H1440V196H1.34552e-05Z" fill="white"/>
<defs>
<clipPath id="clip0_1605_62922">
<rect width="74" height="84" fill="white" transform="translate(100 107)"/>
</clipPath>
</defs>
</svg>
