<svg xmlns="http://www.w3.org/2000/svg" xmlns:xlink="http://www.w3.org/1999/xlink" width="412" height="413" fill="none" xmlns:v="https://vecta.io/nano"><style><![CDATA[.B{fill:#fff}.C{fill:#fde5e2}.D{fill:#fcd7d3}.E{fill:#151414}.F{fill:#233862}.G{fill:#2b478b}.H{fill:#d9935c}.I{opacity:.4}.J{fill:#d86713}.K{fill:#f1a34f}.L{stroke:#fde5e2}.M{fill:#aa413e}.N{fill:#b64c41}.O{fill:#466aa5}.P{fill:#fef2f0}.Q{fill-rule:evenodd}.R{stroke-width:.572}.S{stroke-miterlimit:10}.T{fill:#f7a299}.U{fill:#a05f32}.V{fill:#9ed9f0}.W{fill:#cb8757}.X{fill:#cb7d45}.Y{fill:#ab7041}.Z{fill:#3f9ae9}.a{stroke-width:.286}.b{stroke-linejoin:round}]]></style><g clip-path="url(#A)"><g clip-path="url(#B)"><path d="M0-18h412v431H0z" class="P"/><g class="D"><path d="M56.437 152.799h-1.876c-.179 0-.268 0-.447.09a2.8 2.8 0 0 0-2.769-2.412h-2.59c-1.25 0-2.322.893-2.679 2.054h-.179-1.518a1.6 1.6 0 0 0-1.608 1.608c0 .179 0 .358.089.536h-3.036a1.03 1.03 0 1 0 0 2.145h14.646.893 1.161c1.072 0 1.965-.894 1.965-1.966-.089-1.161-.982-2.055-2.054-2.055z" class="I"/><path d="M40.897 163.256h-2.143c.089-.179.089-.447.089-.626a1.6 1.6 0 0 0-1.608-1.608h-1.518-.268c-.447-.983-1.34-1.608-2.501-1.608h-2.59c-1.518 0-2.679 1.251-2.679 2.68 0 .447.089.804.268 1.162h-1.965a.99.99 0 0 0-.982.982v.179c0 .536.447.983.982.983h14.825c.536 0 .982-.447.982-.983v-.179c.089-.446-.357-.982-.893-.982z"/><path d="M59.742 128.323h-1.875c-.179 0-.268 0-.447.089A2.8 2.8 0 0 0 54.651 126h-2.59c-1.25 0-2.322.893-2.679 2.055h-.179-1.518a1.6 1.6 0 0 0-1.608 1.608c0 .179 0 .357.089.536H43.13a1.03 1.03 0 1 0 0 2.144h14.647.714 1.161c1.072 0 1.965-.893 1.965-1.965s-.804-2.055-1.875-2.055z" class="I"/><path d="M79.477 136.901h-5.001c.089-.268.179-.536.179-.893 0-1.34-1.072-2.502-2.501-2.502h-1.697c-.536-1.787-2.143-3.037-4.019-3.037h-4.019c-1.875 0-3.572 1.34-4.019 3.037h-.268-2.322c-1.34 0-2.501 1.072-2.501 2.502 0 .268.089.625.179.893h-4.555a1.6 1.6 0 1 0 0 3.216h7.234 16.165 7.145a1.6 1.6 0 1 0 0-3.216z"/><path d="M357.58 136.9h-5.359c.09-.268.179-.626.179-.894 0-1.429-1.161-2.591-2.59-2.591h-1.875a4.42 4.42 0 0 0-4.287-3.216h-4.198a4.42 4.42 0 0 0-4.286 3.216h-.268-2.501c-1.429 0-2.59 1.162-2.59 2.591 0 .358.089.626.179.894h-4.912c-.983 0-1.697.804-1.697 1.697s.804 1.698 1.697 1.698h7.68 17.147 7.681c.982 0 1.697-.805 1.697-1.698s-.715-1.697-1.697-1.697zm-214.337 31.445h-1.965c-.178 0-.268 0-.446.09a2.99 2.99 0 0 0-2.948-2.591h-2.768c-1.34 0-2.501.893-2.858 2.144h-.179-1.607c-.982 0-1.697.804-1.697 1.697 0 .179 0 .447.089.626h-3.215c-.625 0-1.161.536-1.161 1.161s.536 1.162 1.161 1.162h15.629.715 1.25a2.02 2.02 0 0 0 2.054-2.055c.089-1.34-.893-2.234-2.054-2.234z" class="I"/><path d="M382.948 133.236h-1.965c-.178 0-.268 0-.446.089a2.99 2.99 0 0 0-2.947-2.591h-2.769c-1.34 0-2.501.894-2.858 2.145h-.178-1.608c-.982 0-1.697.804-1.697 1.697 0 .179 0 .447.089.625h-3.215c-.625 0-1.161.536-1.161 1.162s.536 1.161 1.161 1.161h15.629.715 1.25a2.02 2.02 0 0 0 2.054-2.055c0-1.34-.893-2.233-2.054-2.233zm-15.986 9.381h-2.233c.089-.178.089-.446.089-.625 0-.983-.803-1.697-1.696-1.697h-1.608-.268c-.446-.983-1.429-1.787-2.679-1.787h-2.679a2.82 2.82 0 0 0-2.858 2.859c0 .446.089.893.268 1.25h-2.054a1.03 1.03 0 0 0-1.072 1.072v.179a1.03 1.03 0 0 0 1.072 1.072h15.718a1.03 1.03 0 0 0 1.071-1.072v-.179c.09-.625-.446-1.072-1.071-1.072z"/></g><g clip-path="url(#C)"><g class="C"><path d="M81.606 297.875H64.608h-.901v2.755h.564v1.52h.338v50.882h16.998V302.15h.341v-1.52h.564v-2.755h-.904zm-74.409-8.666v-1.894h-.209v-.824h1.817v-3.542l.876 1.208v2.334h1.817v.824h-.209v3.525l6.206 2.472v59.72H1.191v-66.217l6.005 2.394zm97.256 11.139h-2.484v-5.324h.644v-1.445h-4.32v-3.945h.28v-1.128h-.28-1.551v-1.153h-2.12v-9.095l-.521.961v8.134h-2.12v1.153H90.43h-.28v1.128h.28v3.945h-4.323v1.445h.644v5.324h-2.483v1.448h.526v51.237H87h2.358.684 2.4.684 2.398.684 2.401.684 2.432 2.203v-51.237h.527v-1.448zm-52.599-6.293l-9.244 3.462v.558 1.539h.552v1.156h.335v52.261h16.715V300.77h.332v-1.156h.552v-1.539-.558l-9.241-3.462zm-11.072 5.768v-1.68h-2.063v-6.446h.632v-1.679H37.58v-1.877h-8.189v-6.297h-.798v6.297h-1.791v-6.297h-.795v6.297h-2.392v1.877h-1.768v1.679h.632v6.446h-2.066v1.68h.979v11.759h-.979v1.68h.979v11.021h-.979v1.679h.979v11.759h-.979v1.68h.979v13.633h18.411v-13.633h.978v-1.68h-.978v-11.759h.978v-1.679h-.978v-11.021h.978v-1.68h-.978v-11.759h.978zm147.671-1.948h-16.998-.904v2.755h.563v1.52h.341v50.882h16.998V302.15h.34v-1.52h.561v-2.755h-.901zm-74.408-8.666v-1.894h-.209v-.824h1.816v-3.542l.876 1.208v2.334h1.817v.824h-.209v3.525l6.206 2.472v59.72h-16.303v-66.217l6.006 2.394zm96.719 15.222v-4.083h-1.945v-5.324h.644v-1.445h-4.324v-3.945h.281v-1.128h-1.828v-1.153h-2.123v-9.095l-.521.961v8.134h-2.12v1.153H197v1.128h.277v3.945h-4.32v1.445h.644v5.324h-2.484v1.448h.527v51.237h19.132v-48.602h-.012zm-52.066-10.376l-9.241 3.462v.558 1.539h.552v1.156h.335v52.261h16.712V300.77h.334v-1.156h.553v-1.539-.558l-9.245-3.462zm-11.07 5.768v-1.68h-2.066v-6.446h.633v-1.679h-1.769v-1.877h-8.188v-6.297h-.798v6.297h-1.791v-6.297h-.796v6.297h-2.392v1.877h-1.768v1.679h.63v6.446h-2.063v1.68h.978v11.759h-.978v1.68h.978v11.021h-.978v1.679h.978v11.759h-.978v1.68h.978v13.633h18.412v-13.633h.978v-1.68h-.978v-11.759h.978v-1.679h-.978v-11.021h.978v-1.68h-.978v-11.759h.978z"/></g><g class="D"><path d="M39.799 298.391H20.186v54.604h19.613v-54.604z"/><path d="M35.103 294.195h-10.22v5.125h10.22v-5.125z"/></g><g class="C"><path d="M26.607 294.195h-.386v5.125h.386v-5.125zm2.389 0h-.386v5.125h.386v-5.125zm2.384 0h-.386v5.125h.386v-5.125zm2.385 0h-.386v5.125h.386v-5.125z"/><path d="M40.175 298.387H19.812v1.859h20.362v-1.859zm0 12.98H19.813v1.86h20.362v-1.86zm0 12.973H19.812v1.86h20.362v-1.86zm0 12.972H19.812v1.86h20.362v-1.86zm-4.065-43.781H23.873v1.86H36.11v-1.86z"/><use xlink:href="#E"/><path d="M27.455 301.945h-1.697v8.089h1.697v-8.089zm3.58 0h-1.697v8.089h1.697v-8.089zm3.576 0h-1.697v8.089h1.697v-8.089zm3.582 0h-1.697v8.089h1.697v-8.089z"/><use xlink:href="#F"/><path d="M27.455 314.805h-1.697v8.088h1.697v-8.088zm3.58 0h-1.697v8.088h1.697v-8.088zm3.576 0h-1.697v8.088h1.697v-8.088zm3.582 0h-1.697v8.088h1.697v-8.088zM23.872 327.66h-1.697v8.089h1.697v-8.089zm3.583 0h-1.697v8.089h1.697v-8.089zm3.58 0h-1.697v8.089h1.697v-8.089zm3.576 0h-1.697v8.089h1.697v-8.089zm3.582 0h-1.697v8.089h1.697v-8.089zm-14.321 13.145h-1.697v8.088h1.697v-8.088zm3.583 0h-1.697v8.088h1.697v-8.088zm3.58 0h-1.697v8.088h1.697v-8.088zm3.576 0h-1.697v8.088h1.697v-8.088zm3.582 0h-1.697v8.088h1.697v-8.088z"/></g><path d="M16.34 301.386v-1.628h-2.003v-6.252h.612v-1.628h-1.717v-1.819h-7.94v-6.106h-.772v6.106h-1.74v-6.106h-.772v6.106H-.309v1.819h-1.717v1.628h.612v6.252h-2.003v1.628h.95v11.404h-.95v1.628h.95v10.689h-.95v1.628h.95v11.405h-.95v1.628h.95v13.224H15.39v-13.224h.95v-1.628h-.95v-11.405h.95v-1.628h-.95v-10.689h.95v-1.628h-.95v-11.404h.95z" class="D"/><g class="C"><path d="M16.341 299.758H-3.412v1.985h19.753v-1.985zm0 12.726H-3.412v1.986h19.753v-1.986zm0 12.43H-3.412v1.986h19.753v-1.986zm0-32.996H-3.412v1.986h19.753v-1.986zm0 46.012H-3.412v1.985h19.753v-1.985zM4.163 295.195H.641v3.522h3.522v-3.522zm4.06 0H4.701v3.522h3.522v-3.522zm4.061 0H8.762v3.522h3.522v-3.522z"/><use xlink:href="#G"/><use xlink:href="#H"/><use xlink:href="#I"/><path d="M14.423 303.113h-3.522v3.522h3.522v-3.522zm-12.178 4.528h-3.522v3.522h3.522v-3.522zm4.058 0H2.781v3.522h3.522v-3.522zm4.059 0H6.84v3.522h3.522v-3.522zm4.061 0h-3.522v3.522h3.522v-3.522zm-12.178 7.773h-3.522v3.522h3.522v-3.522zm4.058 0H2.781v3.522h3.522v-3.522zm4.059 0H6.84v3.522h3.522v-3.522zm4.06 0H10.9v3.522h3.522v-3.522zm-12.177 4.527h-3.522v3.522h3.522v-3.522zm4.058 0H2.781v3.522h3.522v-3.522zm4.059 0H6.84v3.522h3.522v-3.522zm4.06 0H10.9v3.522h3.522v-3.522zm-12.177 8.11h-3.522v3.522h3.522v-3.522zm4.058 0H2.781v3.522h3.522v-3.522zm4.059 0H6.84v3.522h3.522v-3.522zm4.061 0h-3.522v3.522h3.522v-3.522zm-12.178 4.527h-3.522v3.522h3.522v-3.522zm4.058 0H2.781v3.522h3.522v-3.522zm4.059 0H6.84v3.522h3.522v-3.522zm4.061.004h-3.522v3.522h3.522v-3.522zm-12.178 8.695h-3.522v3.522h3.522v-3.522zm4.058 0H2.781v3.522h3.522v-3.522zm4.059 0H6.84v3.522h3.522v-3.522zm4.061 0h-3.522v3.522h3.522v-3.522z"/></g><g class="B"><path d="M2.245 345.805h-3.522v3.522h3.522v-3.522zm4.058 0H2.781v3.522h3.522v-3.522zm4.059 0H6.84v3.522h3.522v-3.522zm4.061.004h-3.522v3.522h3.522v-3.522z"/></g><g class="D"><path d="M65.248 298.702H44.94l2.624-4.311h15.061l2.624 4.311z"/><path d="M63.526 298.703H46.6v21.622h16.926v-21.622z"/></g><g class="C"><path d="M52.2 301.086h-2.638v5.405H52.2v-5.405zm4.184 0h-2.638v5.405h2.638v-5.405zm4.184 0H57.93v5.405h2.638v-5.405zm-8.368 6.5h-2.638v5.405H52.2v-5.405zm4.184 0h-2.638v5.405h2.638v-5.405zm0 6.82h-2.638v5.405h2.638v-5.405zm4.184-6.82H57.93v5.405h2.638v-5.405zm-8.368 6.789h-2.638v5.405H52.2v-5.405zm8.368 0H57.93v5.405h2.638v-5.405z"/></g><g class="D"><path d="M68.687 324.505H41.658l3.493-5.739h20.042l3.493 5.739z"/><path d="M66.395 324.504H43.869v28.777h22.526v-28.777z"/></g><g class="C"><use xlink:href="#J"/><path d="M56.886 327.672h-3.511v7.196h3.511v-7.196zm5.564 0h-3.51v7.196h3.511v-7.196zm-11.133 8.648h-3.511v7.196h3.511v-7.196zm5.569 0h-3.511v7.196h3.511v-7.196zm5.564 0h-3.51v7.196h3.511v-7.196z"/></g><g class="B"><g stroke="#fff" class="a b"><path d="M51.317 345.359h-3.511v7.196h3.511v-7.196zm11.133-.004h-3.511v7.196h3.511v-7.196z"/></g><path d="M57.378 353.28v-6.938c0-.944-1.007-1.717-2.252-1.717s-2.252.77-2.252 1.717v6.938h4.503z"/><path d="M56.492 348.924c0 .066-.02.132-.057.187a.33.33 0 0 1-.151.124c-.062.026-.13.033-.195.02a.34.34 0 0 1-.173-.093c-.047-.047-.079-.107-.092-.173a.34.34 0 0 1 .144-.346c.055-.037.121-.057.188-.057a.34.34 0 0 1 .239.099c.063.063.099.149.099.239z"/></g><path d="M60.101 292.098h-1.05v2.291h1.05v-2.291z" class="C"/><path d="M60.174 291.816h-1.193v.284h1.193v-.284z" class="B"/><path d="M128.12 321.379H70.815v31.898h57.306v-31.898z" class="D"/><path d="M128.12 318.59H70.815v2.787h57.306v-2.787z" class="P"/><path d="M110.003 309.711H88.928v43.569h21.075v-43.569z" class="D"/><path d="M110.003 309.711H88.928v3.485h21.075v-3.485z" class="P"/><g class="C"><use xlink:href="#K"/><path d="M81.687 325.012h-3.834v3.831h3.834v-3.831zm4.983 0h-3.834v3.831h3.834v-3.831z"/><use xlink:href="#L"/><path d="M81.687 330.211h-3.834v3.834h3.834v-3.834zm4.983 0h-3.834v3.834h3.834v-3.834zm-9.908 5.203h-3.834v3.834h3.834v-3.834zm4.979 0H77.91v3.834h3.831v-3.834z"/><use xlink:href="#M"/><path d="M76.762 340.613h-3.834v3.834h3.834v-3.834zm4.979 0H77.91v3.834h3.831v-3.834zm4.979 0h-3.831v3.834h3.831v-3.834z"/></g><g class="B"><path d="M76.762 345.816h-3.834v3.834h3.834v-3.834zm4.979 0H77.91v3.834h3.831v-3.834zm4.979 0h-3.831v3.834h3.831v-3.834z"/></g><g class="C"><use xlink:href="#N"/><path d="M101.355 314.719h-3.834v5.433h3.834v-5.433zm4.981 0h-3.834v5.433h3.834v-5.433zm-9.961 7.375h-3.834v5.433h3.834v-5.433zm4.98 0h-3.834v5.433h3.834v-5.433zm4.981 0h-3.834v5.433h3.834v-5.433zm-9.908 7.367h-3.834v5.433h3.834v-5.433zm4.982 0h-3.834v5.433h3.834v-5.433zm4.982 0h-3.833v5.433h3.833v-5.433zm-9.964 7.379h-3.834v5.433h3.834v-5.433zm4.982 0h-3.834v5.433h3.834v-5.433zm4.982 0h-3.833v5.433h3.833v-5.433zm-9.964 7.371h-3.834v5.433h3.834v-5.433zm4.982 0h-3.834v5.433h3.834v-5.433zm4.982 0h-3.833v5.433h3.833v-5.433zm9.18-19.199h-3.834v3.831h3.834v-3.831zm4.983 0h-3.834v3.831h3.834v-3.831zm4.98 0h-3.834v3.831h3.834v-3.831zm-9.963 5.203h-3.834v3.834h3.834v-3.834zm4.983 0h-3.834v3.834h3.834v-3.834zm4.98 0h-3.834v3.834h3.834v-3.834zm-9.913 5.199h-3.831v3.834h3.831v-3.834zm4.982 0h-3.831v3.834h3.831v-3.834zm4.983 0h-3.831v3.834h3.831v-3.834zm-9.965 5.199h-3.831v3.834h3.831v-3.834zm4.982 0h-3.831v3.834h3.831v-3.834zm4.983 0h-3.831v3.834h3.831v-3.834z"/></g><g class="B"><path d="M115.622 345.816h-3.831v3.834h3.831v-3.834zm4.982 0h-3.831v3.834h3.831v-3.834zm4.983 0h-3.831v3.834h3.831v-3.834z"/></g><g fill="#1e3050"><path d="M128.12 352.473H70.815v.806h57.306v-.806z"/><path d="M110.003 352.473H88.928v.806h21.075v-.806z"/></g><path d="M132.131 352.992h16.963v-60.164l-16.963 5.242v54.922z" class="D"/><g class="C"><use xlink:href="#O"/><path d="M146.402 303.105H134.84v1.105h11.562v-1.105z"/><use xlink:href="#P"/><path d="M146.402 308.762H134.84v1.104h11.562v-1.104zm0 2.828H134.84v1.104h11.562v-1.104zm0 2.832H134.84v1.104h11.562v-1.104zm0 2.824H134.84v1.104h11.562v-1.104zm0 2.832H134.84v1.105h11.562v-1.105zm0 2.828H134.84v1.105h11.562v-1.105zm0 2.828H134.84v1.105h11.562v-1.105zm0 2.828H134.84v1.105h11.562v-1.105zm0 2.829H134.84v1.104h11.562v-1.104zm0 2.828H134.84v1.104h11.562v-1.104zm0 2.828H134.84v1.104h11.562v-1.104zm0 2.828H134.84v1.104h11.562v-1.104zm0 2.828H134.84v1.105h11.562v-1.105z"/></g><g class="B"><path d="M146.402 345.531H134.84v1.105h11.562v-1.105zm0 2.832H134.84v1.105h11.562v-1.105zm0 2.828H134.84v1.105h11.562v-1.105z"/></g><path d="M172.784 303.586h-20.448v48.087h20.448v-48.087z" class="C"/><path d="M151.795 303.18v49.812h21.53V303.18h-21.53zm20.703 47.494h-19.561v-1.502h19.561v1.502zm0-2.641h-19.561v-1.502h19.561v1.502zm0-2.638h-19.561v-1.502h19.561v1.502zm0-2.64h-19.561v-1.503h19.561v1.503zm0-2.641h-19.561v-1.499h19.561v1.499zm0-2.638h-19.561v-1.522h19.561v1.522zm0-2.638h-19.561v-1.502h19.561v1.502zm0-2.641h-19.561v-1.502h19.561v1.502zm0-2.641h-19.561v-1.499h19.561v1.499zm0-2.638h-19.561v-1.502h19.561v1.502zm0-2.638h-19.561v-1.502h19.561v1.502zm0-2.64h-19.561v-1.5h19.561v1.5zm0-2.641h-19.561V317.5h19.561v1.499zm0-2.638h-19.561v-1.499h19.561v1.499zm0-2.638h-19.561v-1.517h19.561v1.517zm0-2.641h-19.561v-1.499h19.561v1.499zm0-2.638h-19.561v-1.502h19.561v1.502zm0-2.641h-19.561v-1.502h19.561v1.502z" class="D"/><path d="M204.389 298.395h-26.705v47.571h26.705v-47.571z" class="C"/><path d="M176.031 297.047v56.235h29.621v-56.235h-29.621zm5.213 47.32H178.5v-2.744h2.744v2.744zm0-4.252H178.5v-2.726h2.744v2.726zm0-4.249H178.5v-2.743h2.744v2.743zm0-4.254H178.5v-2.741h2.744v2.741zm0-4.249H178.5v-2.744h2.744v2.744zm0-4.251H178.5v-2.744h2.744v2.744zm0-4.255H178.5v-2.741h2.744v2.741zm0-4.251H178.5v-2.741h2.744v2.741zm0-4.249H178.5v-2.744h2.744v2.744zm0-4.252H178.5v-2.744h2.744v2.744zm0-4.251H178.5v-2.744h2.744v2.744zm4.386 42.513h-2.741v-2.744h2.741v2.744zm0-4.252h-2.741v-2.726h2.741v2.726zm0-4.249h-2.741v-2.743h2.741v2.743zm0-4.254h-2.741v-2.741h2.741v2.741zm0-4.249h-2.741v-2.744h2.741v2.744zm0-4.251h-2.741v-2.744h2.741v2.744zm0-4.255h-2.741v-2.741h2.741v2.741zm0-4.251h-2.741v-2.741h2.741v2.741zm0-4.249h-2.741v-2.744h2.741v2.744zm0-4.252h-2.741v-2.744h2.741v2.744zm0-4.251h-2.741v-2.744h2.741v2.744zm4.389 42.513h-2.744v-2.744h2.744v2.744zm0-4.252h-2.744v-2.726h2.744v2.726zm0-4.249h-2.744v-2.743h2.744v2.743zm0-4.254h-2.744v-2.741h2.744v2.741zm0-4.249h-2.744v-2.744h2.744v2.744zm0-4.251h-2.744v-2.744h2.744v2.744zm0-4.255h-2.744v-2.741h2.744v2.741zm0-4.251h-2.744v-2.741h2.744v2.741zm0-4.249h-2.744v-2.744h2.744v2.744zm0-4.252h-2.744v-2.744h2.744v2.744zm0-4.251h-2.744v-2.744h2.744v2.744zm4.389 42.513h-2.744v-2.744h2.744v2.744zm0-4.252h-2.744v-2.726h2.744v2.726zm0-4.249h-2.744v-2.743h2.744v2.743zm0-4.254h-2.744v-2.741h2.744v2.741zm0-4.249h-2.744v-2.744h2.744v2.744zm0-4.251h-2.744v-2.744h2.744v2.744zm0-4.255h-2.744v-2.741h2.744v2.741zm0-4.251h-2.744v-2.741h2.744v2.741zm0-4.249h-2.744v-2.744h2.744v2.744zm0-4.252h-2.744v-2.744h2.744v2.744zm0-4.251h-2.744v-2.744h2.744v2.744zm4.389 42.513h-2.744v-2.744h2.744v2.744zm0-4.252h-2.744v-2.726h2.744v2.726zm0-4.249h-2.744v-2.743h2.744v2.743zm0-4.254h-2.744v-2.741h2.744v2.741zm0-4.249h-2.744v-2.744h2.744v2.744zm0-4.251h-2.744v-2.744h2.744v2.744zm0-4.255h-2.744v-2.741h2.744v2.741zm0-4.251h-2.744v-2.741h2.744v2.741zm0-4.249h-2.744v-2.744h2.744v2.744zm0-4.252h-2.744v-2.744h2.744v2.744zm0-4.251h-2.744v-2.744h2.744v2.744zm4.389 42.513h-2.744v-2.744h2.744v2.744zm0-4.252h-2.744v-2.726h2.744v2.726zm0-4.249h-2.744v-2.743h2.744v2.743zm0-4.254h-2.744v-2.741h2.744v2.741zm0-4.249h-2.744v-2.744h2.744v2.744zm0-4.251h-2.744v-2.744h2.744v2.744zm0-4.255h-2.744v-2.741h2.744v2.741zm0-4.251h-2.744v-2.741h2.744v2.741zm0-4.249h-2.744v-2.744h2.744v2.744zm0-4.252h-2.744v-2.744h2.744v2.744zm0-4.251h-2.744v-2.744h2.744v2.744z" class="D"/><g class="I"><g class="B"><path d="M40.762 358.843a.32.32 0 0 0 .148-.273.32.32 0 0 0-.039-.155c-.026-.047-.063-.088-.109-.118-.389 0-.535.2-.764.326.472-.066.186.386.764.22zm14.995-5.452c.31.047.628.009.918-.109.106-.409-1.159-.266-.918.109z"/></g><path d="M26.535 307.942c.355-.16-.3-.346.303-.326.318.028.146.406.461.434-.163-.406.572-.171.461-.543-.775 0-.959-.858-1.837-.438-.057.478.278.675.612.873z" class="C"/><g class="B"><path d="M203.388 273.415c-.806-.028-.958.407-1.07.859.647.226 1.248-.16 1.07-.859zm-58.745 62.93c-.506-.186-.667.066-.918.329.323.327 1.001.212.918-.329zm-5.049 4.264c.09-.022.175-.063.249-.121a.65.65 0 0 0 .177-.213c.044-.083.069-.174.074-.267a.64.64 0 0 0-.043-.274c-.586-.086-.835.632-.457.875zm-.765 10.596c-.243-.426.395-.226.458-.435-.286-.194-.707.137-.916.326.089 0 .177.017.152.109h.306z"/><path d="M138.371 342.575c-.612.094-1.144-.163-1.379 0v.655c1.059-.211 1.019.364 1.837.329-.146-.334-.569-.469-.458-.984zm-35.039-31.357c-.481.054-.346-.335-.919-.22-.065.369.893.563.919.22zm9.028 31.681c-.115.412.812.077.612.546-.306.266-.652-.183-.767.22.206 0 .14.192.309.218.02-.201.515-.069.61-.218v-.655c-.367.046-.332-.189-.764-.111zm76.652-41.622c.506-.111.663.063.915-.329-.3-.2-.764.103-.915.329z"/><use xlink:href="#Q"/><use xlink:href="#R"/><use xlink:href="#S"/><path d="M64.323 342.68c-.446 0-.858.04-.764.437a.88.88 0 0 0 .357.198.89.89 0 0 0 .407.02c.049-.04.088-.089.115-.146a.42.42 0 0 0 .041-.182c0-.063-.014-.125-.041-.181s-.067-.107-.115-.146z"/><g class="Q"><path d="M55.145 361.367c.16-.635-.664-.046 0 0zm127.439-12.89c.369-.366-.515.263 0 0zm-72.362-1.421c.369-.369-.515.264 0 0zm12.224-.113c.123-.661-.701-.071 0 0zm-73.727-.973c.463-.369-.572-.332 0 0zm84.449-.775c.512.332.463-.404 0 0zm-28.611-.109c.369-.366-.512.264 0 0zm-47.274-.216c-.464.403-.515-.332 0 0zm-21.875.001c.163-.635-.664-.046 0 0zm10.405-.77c.372-.364-.512.266 0 0zm147.478-2.29c-.461.404-.512-.331 0 0zm-3.059-.44c.779.286.573-.381 0 0zm-104.031-.332c.369-.366-.515.266 0 0zm24.02-1.52c.161-.635-.663-.045 0 0zm61.803-4.706c.369-.366-.512.263 0 0zm-104.643-.432c.126-.661-.701-.074 0 0zm22.186-.425c.16-.633-.664-.046 0 0zm-78.792-.341c.463-.369-.572-.332 0 0zm99.752-.326c.369-.366-.515.266 0 0zm-40.694-1.86c.555-.515-.896-.146 0 0zm116.726-.337c.517.332.466-.4 0 0zm-24.78-.1c.461-.369-.572-.329 0 0zm-99.752-.11c.518.332.464-.403 0 0zm-52.023-.436c.372-.366-.512.263 0 0zm114.135-1.093c.372-.369-.512.263 0 0zm-77.561-.216c.369-.366-.515.266 0 0zm98.522-2.407c.163-.635-.664-.046 0 0zm-69.291-1.525c.372-.369-.512.263 0 0zm-4.754-1.204c.515.332.463-.407 0 0zm-34.27-.657c.372-.366-.512.266 0 0zm-27.067-.87c.466-.369-.572-.332 0 0zm81.542-1.204c.369-.366-.512.263 0 0zm20.493-1.532c.552-.515-.899-.146 0 0zm34.266-.214c.369-.366-.515.263 0 0zm-48.038 0c.369-.366-.512.263 0 0zm78.023-1.859c.369-.367-.512.263 0 0zm-103.572-.547c.372-.366-.512.263 0 0zm13.615-.876c.369-.366-.512.266 0 0zm68.848-.106c-.467.403-.518-.332 0 0zm-29.988-.982c.369-.369-.512.263 0 0zm-59.823-2.513c.372-.366-.512.263 0 0zm14.535-.109c.372-.366-.512.263 0 0zm73.898-.001c.555-.515-.896-.146 0 0zm-82.615-1.093c.366-.366-.515.263 0 0zm-28.916-.109c.372-.367-.512.263 0 0zm-.763-.22c.732.304.372-.357 0 0zm160.943-1.638c.123-.661-.703-.074 0 0zM188.7 305.1c.555-.515-.895-.143 0 0zM1.749 302.916c.123-.66-.701-.074 0 0zm188.943-.654c-.466.403-.515-.335 0 0zm-130.807-1.64c.369-.367-.512.263 0 0zm-15.143-.112c.369-.37-.515.263 0 0zm-10.417-16.166c.369-.366-.512.266 0 0zm23.727-2.176c.369-.366-.515.266 0 0zm61.04-3.176c.369-.366-.512.266 0 0zm87.509-1.976c.369-.366-.515.263 0 0zm-2.898-11.246c.615.384.358-.352 0 0zm-131.271-4.371c.372-.366-.512.263 0 0zm9.484 97.89c.418.332-.463-.286 0 0zm112.141-42.502c.415-.332-.463.3 0 0zm-96.844-16.385c.421.335-.463-.286 0 0z"/></g><path d="M203.388 273.415c-.806-.028-.958.407-1.07.859.647.226 1.248-.16 1.07-.859z"/><use xlink:href="#S"/><use xlink:href="#R"/><use xlink:href="#Q"/><g class="Q"><path d="M182.584 348.477c.369-.366-.515.263 0 0zm10.707-6.666c-.461.404-.512-.331 0 0zm-3.059-.44c.779.286.573-.381 0 0zm-18.208-6.558c.369-.366-.512.263 0 0zm14.535-3.721c.517.332.466-.4 0 0zm-24.78-.1c.461-.369-.572-.329 0 0zM1.749 302.916c.123-.66-.701-.074 0 0zm56.303-20.748c.369-.366-.515.266 0 0zm61.04-3.176c.369-.366-.512.266 0 0zm87.509-1.976c.369-.366-.515.263 0 0zm-2.898-11.246c.615.384.358-.352 0 0zm-131.271-4.371c.372-.366-.512.263 0 0zm121.625 55.388c.415-.332-.463.3 0 0z"/></g></g></g></g><g clip-path="url(#D)"><g class="C"><path d="M312.39 303.359h-17-.902v2.756h.564v1.519h.338v50.885h17v-50.885h.338v-1.519h.564v-2.756h-.902zm-74.412-8.665V292.8h-.209v-.824h1.817v-3.542l.876 1.207v2.335h1.816v.824h-.208v3.525l6.205 2.472v59.722h-16.302v-66.217l6.005 2.392zm97.259 11.139h-2.484v-5.322h.644v-1.448h-4.323v-3.945h.28v-1.124h-.28-1.551v-1.156h-2.12v-9.096l-.521.962v8.134h-2.12v1.156h-1.55-.281v1.124h.281v3.945h-4.323v1.448h.643v5.322h-2.483v1.448h.529v51.239h2.203 2.358.684 2.4.684 2.4.684 2.398.684 2.431 2.204v-51.239h.529v-1.448zm-52.602-6.286l-9.244 3.459v.558 1.539h.555v1.156h.332v52.264h16.714v-52.264h.332v-1.156h.555v-1.539-.558l-9.244-3.459zm-11.072 5.76v-1.679h-2.066v-6.446h.632v-1.68h-1.771v-1.874h-8.188v-6.3h-.796v6.3h-1.794v-6.3h-.795v6.3h-2.392v1.874h-1.768v1.68h.632v6.446h-2.066v1.679h.979v11.76h-.979v1.679h.979v11.021h-.979v1.679h.979v11.76h-.979v1.679h.979v13.636h18.414v-13.636h.979v-1.679h-.979v-11.76h.979v-1.679h-.979v-11.021h.979v-1.679h-.979v-11.76h.979zm-48.767 7.065v-2.529h.776v-1.573h-9.411v1.573h.776v2.529h-3.777v1.574h.166v44.573h15.084v-44.573h.286v-1.574h-3.9zm196.441-9.013h-16.998-.901v2.756h.561v1.519h.34v50.885h16.998v-50.885h.34v-1.519h.561v-2.756h-.901zm-74.411-8.665V292.8h-.209v-.824h1.82v-3.542l.872 1.207v2.335h1.817v.824h-.209v3.525l6.206 2.472v59.722H338.82v-66.217l6.006 2.392zm44.655 4.853l-9.245 3.459v.558 1.539h.553v1.156h.334v52.264h16.712v-52.264h.335v-1.156h.552v-1.539-.558l-9.241-3.459zm-11.072 5.76v-1.679h-2.063v-6.446h.63v-1.68h-1.768v-1.874h-8.189v-6.3h-.795v6.3h-1.794v-6.3h-.796v6.3h-2.391v1.874h-1.769v1.68h.633v6.446h-2.066v1.679h.979v11.76h-.979v1.679h.979v11.021h-.979v1.679h.979v11.76h-.979v1.679h.979v13.636h18.411v-13.636h.978v-1.679h-.978v-11.76h.978v-1.679h-.978v-11.021h.978v-1.679h-.978v-11.76h.978z"/></g><path d="M307.097 299.172h-13.974v53.929h13.974v-53.929z" class="D"/><g class="C"><path d="M306.025 295.82h-11.73v3.148h11.73v-3.148z"/><path d="M304.022 292.961h-7.725v2.861h7.725v-2.861z"/><path d="M301.445 291.242h-2.861v1.717h2.861v-1.717zm-5.638 7.692v52.627z"/></g><path d="M295.807 298.934v52.627" class="L R S"/><path d="M298.676 298.934v52.627z" class="C"/><path d="M298.676 298.934v52.627" class="L R S"/><path d="M301.543 298.934v52.627z" class="C"/><path d="M301.543 298.934v52.627" class="L R S"/><path d="M304.41 298.934v52.627z" class="C"/><path d="M304.41 298.934v52.627" class="L R S"/><path d="M307.168 332.445h-14.02v6.009h14.02v-6.009z" class="C"/><g class="D"><path d="M345.904 340.477h-34.015V353.1h34.015v-12.623zm.038-3.627h-34.09l1.027-14.889h32.036l1.027 14.889z"/></g><g class="C"><path d="M333.179 330.371h-8.566v6.46h8.566v-6.46z"/><path d="M328.894 323.02l2.126 3.676 2.123 3.679h-4.249-4.246l2.123-3.679 2.123-3.676z"/></g><path d="M320.546 318.406h-1.814v3.554h1.814v-3.554z" class="D"/><path d="M321.034 317.648h-2.798v.756h2.798v-.756z" class="B"/><path d="M330.975 331.789h-3.78v3.628h3.78v-3.628z" class="D"/><g class="C"><path d="M318.239 343.582h-3.78v3.628h3.78v-3.628zm5.177 0h-3.779v3.628h3.779v-3.628zm14.627 0h-3.779v3.628h3.779v-3.628zm5.178 0h-3.78v3.628h3.78v-3.628z"/></g><path d="M346.923 336.852h-36.056v4.157h36.056v-4.157z" class="P"/><path d="M331.432 353.102v-7.976c-.022-.658-.298-1.281-.771-1.738s-1.105-.712-1.762-.712-1.29.255-1.762.712-.75 1.08-.772 1.738v7.976h5.067z" class="C"/><path d="M388.349 321.773h-37.417V353.1h37.417v-31.327z" class="D"/><g class="C"><use xlink:href="#T"/><path d="M362.3 324.902h-2.171v6.967h2.171v-6.967z"/><use xlink:href="#U"/><path d="M373.535 324.902h-2.172v6.967h2.172v-6.967zm5.617 0h-2.172v6.967h2.172v-6.967zm5.619 0H382.6v6.967h2.171v-6.967zm-28.088 9.055h-2.171v6.967h2.171v-6.967zm5.617 0h-2.171v6.967h2.171v-6.967zm5.62 0h-2.172v6.967h2.172v-6.967zm5.615 0h-2.172v6.967h2.172v-6.967zm5.617 0h-2.172v6.967h2.172v-6.967zm5.619 0H382.6v6.967h2.171v-6.967zm-28.088 9.051h-2.171v6.967h2.171v-6.967zm5.617 0h-2.171v6.967h2.171v-6.967zm5.62 0h-2.172v6.967h2.172v-6.967zm5.615 0h-2.172v6.967h2.172v-6.967zm5.617 0h-2.172v6.967h2.172v-6.967zm5.619 0H382.6v6.967h2.171v-6.967z"/></g><g class="D"><path d="M389.977 319.07H349.35v2.861h40.627v-2.861zm17.64-10.617h-16.234v44.651h16.234v-44.651z"/><path d="M408.551 308.453h-18.108v4.438h18.108v-4.438z"/></g><g class="C"><path d="M404.911 315.875h-10.829v3.636h10.829v-3.636z"/><use xlink:href="#V"/><path d="M404.911 327.031h-10.829v3.637h10.829v-3.637zm0 5.578h-10.829v3.637h10.829v-3.637zm0 5.582h-10.829v3.637h10.829v-3.637zm0 5.575h-10.829v3.636h10.829v-3.636z"/></g><g class="D"><path d="M245.607 324.322h-27.029l3.494-5.736h20.042l3.493 5.736z"/><path d="M243.315 324.32h-22.526v28.777h22.526V324.32z"/></g><g class="C"><g class="L a b"><path d="M228.239 327.492h-3.51v7.196h3.51v-7.196zm5.568 0h-3.51v7.196h3.51v-7.196zm5.563 0h-3.511v7.196h3.511v-7.196zm-11.131 8.649h-3.51v7.195h3.51v-7.195zm5.568 0h-3.51v7.195h3.51v-7.195zm5.563 0h-3.511v7.195h3.511v-7.195zm-11.131 9.039h-3.51v7.195h3.51v-7.195zm11.131 0h-3.511v7.195h3.511v-7.195z"/></g><path d="M234.302 353.104v-6.938c0-.947-1.007-1.717-2.251-1.717s-2.252.767-2.252 1.717v6.938h4.503z"/></g><path d="M233.412 348.748c0 .067-.02.132-.057.187s-.09.099-.152.125-.129.032-.195.019-.126-.045-.173-.093-.079-.107-.092-.172-.007-.134.019-.195.069-.115.124-.152a.34.34 0 0 1 .188-.057c.089 0 .175.036.239.099a.34.34 0 0 1 .099.239z" class="B"/><path d="M265.612 353.101h-16.964v-60.163l16.964 5.241v54.922z" class="D"/><g class="C"><use xlink:href="#W"/><path d="M262.906 303.211h-11.562v1.104h11.562v-1.104zm0 2.828h-11.562v1.104h11.562v-1.104z"/><use xlink:href="#X"/><path d="M262.906 311.699h-11.562v1.105h11.562v-1.105zm0 2.824h-11.562v1.105h11.562v-1.105zm0 2.832h-11.562v1.105h11.562v-1.105zm0 2.829h-11.562v1.104h11.562v-1.104zm0 2.828h-11.562v1.104h11.562v-1.104zm0 2.828h-11.562v1.104h11.562v-1.104zm0 2.832h-11.562v1.104h11.562v-1.104zm0 2.828h-11.562v1.104h11.562V331.5zm0 2.828h-11.562v1.105h11.562v-1.105zm0 2.828h-11.562v1.105h11.562v-1.105zm0 2.828h-11.562v1.105h11.562v-1.105zm0 2.828h-11.562v1.105h11.562v-1.105z"/></g><g class="B"><path d="M262.906 345.641h-11.562v1.104h11.562v-1.104zm0 2.828h-11.562v1.104h11.562v-1.104zm0 2.828h-11.562v1.104h11.562v-1.104z"/></g><path d="M288.085 298.18h-16.964v54.922h16.964V298.18z" class="D"/><g class="C"><path d="M284.4 291.945h-9.599v8.04h9.599v-8.04zm-12.235-3h-1.044v10.143h1.044v-10.143zm15.918 0h-1.044v10.143h1.044v-10.143z"/><use xlink:href="#Y"/><path d="M277.923 301.094h-1.991v9.101h1.991v-9.101z"/><use xlink:href="#Z"/><path d="M283.275 301.094h-1.992v9.101h1.992v-9.101zm2.675 0h-1.991v9.101h1.991v-9.101z"/><use xlink:href="#a"/><path d="M277.923 311.305h-1.991v2.254h1.991v-2.254zm2.674 0h-1.992v2.254h1.992v-2.254zm2.678 0h-1.992v2.254h1.992v-2.254zm2.675 0h-1.991v2.254h1.991v-2.254zm-10.705 3.351h-1.991v9.101h1.991v-9.101zm2.678 0h-1.991v9.101h1.991v-9.101zm2.674 0h-1.992v9.101h1.992v-9.101zm2.678 0h-1.992v9.101h1.992v-9.101zm2.675 0h-1.991v9.101h1.991v-9.101zm-10.705 10.211h-1.991v2.255h1.991v-2.255zm2.678 0h-1.991v2.255h1.991v-2.255zm2.674 0h-1.992v2.255h1.992v-2.255zm2.678 0h-1.992v2.255h1.992v-2.255zm2.675 0h-1.991v2.255h1.991v-2.255zm-10.705 3.363h-1.991v9.102h1.991v-9.102zm2.678-.003h-1.991v9.101h1.991v-9.101zm2.674 0h-1.992v9.101h1.992v-9.101zm2.678 0h-1.992v9.101h1.992v-9.101zm2.675.003h-1.991v9.102h1.991v-9.102zm-10.705 10.208h-1.991v2.254h1.991v-2.254zm2.678 0h-1.991v2.254h1.991v-2.254zm2.674 0h-1.992v2.254h1.992v-2.254zm2.678 0h-1.992v2.254h1.992v-2.254zm2.675 0h-1.991v2.254h1.991v-2.254zm-10.705 3.359h-1.991v9.101h1.991v-9.101zm2.678 0h-1.991v9.101h1.991v-9.101zm2.674 0h-1.992v9.101h1.992v-9.101zm2.678 0h-1.992v9.101h1.992v-9.101zm2.675 0h-1.991v9.101h1.991v-9.101z"/></g><g class="I"><use xlink:href="#b" class="B"/><path d="M380.868 320.659c-.031.512.693.701 1.07.329.063-.412-.695-.567-1.07-.329z" class="C"/><g class="B"><path d="M275.614 277.504c-.437-.023-.835-.015-.766.326 0 .286.723.26.921.109.049-.206-.175-.241-.155-.435z"/><use xlink:href="#c"/><use xlink:href="#d"/><g class="Q"><path d="M336.654 363.376c.372-.367-.512.263 0 0zm-83.986-3.933c.372-.369-.512.263 0 0zm-14.38-16.28c-.466.403-.515-.332 0 0zm154.057-2.842c.369-.366-.515.263 0 0zm-113.212-1.309c.369-.366-.512.263 0 0zm3.212-3.496c.369-.366-.515.263 0 0zm54.161-.765c.369-.367-.512.263 0 0zm-87.055 0c.372-.367-.512.263 0 0zm-25.392-3.278c.369-.366-.512.263 0 0zm9.179-1.418c.372-.366-.512.263 0 0zm69.455-8.195c.372-.366-.512.263 0 0zm-87.968-5.359c.369-.367-.512.263 0 0zm40.39-.103c.415-.332-.466.286 0 0zm-25.243-8.522c.369-.367-.513.263 0 0zm.153-9.068c-.463.403-.515-.332 0 0zm137.08-6.886c.415.332-.466-.286 0 0zm20.653-3.178c.369-.369-.512.263 0 0zm-170.127-2.72c.372-.367-.512.266 0 0zm35.187-1.421c.372-.369-.512.263 0 0zm-24.478-19.774c.369-.367-.512.263 0 0z"/></g><use xlink:href="#b"/><use xlink:href="#c"/><use xlink:href="#d"/><g class="Q"><path d="M252.668 359.443c.372-.369-.512.263 0 0zm139.677-19.122c.369-.366-.515.263 0 0zm-142.894-5.57c.372-.367-.512.263 0 0zm-25.392-3.278c.369-.366-.512.263 0 0zm9.179-1.418c.372-.366-.512.263 0 0zm-18.513-13.554c.369-.367-.512.263 0 0zm40.39-.103c.415-.332-.466.286 0 0zm-25.243-8.522c.369-.367-.513.263 0 0zm.153-9.068c-.463.403-.515-.332 0 0zm-1.685-33.979c.369-.367-.512.263 0 0z"/></g></g></g></g></g><path d="M412 343H0v27h412v-27z" class="D"/><path d="M412 368H0v45h412v-45z" class="T"/><g class="D"><path d="M-8 390h60v2.059H-8zm92 0h60v2.059H84zm92 0h60v2.059h-60zm92 0h60v2.059h-60zm92 0h60v2.059h-60z"/></g><ellipse cx="307.228" cy="356.664" rx="21.373" ry="2.672" class="T"/><path d="M340.355 323s-5.509 2.256-8.657 6.034-4.093 7.084-4.093 7.084h-40.928s1.154-4.408 3.043-7.136c2.729-3.988 6.874-5.982 6.874-5.982h43.761z" class="B"/><path d="M340.355 324.416s-5.457 2.256-8.657 6.034c-2.886 3.358-3.306 5.667-3.306 5.667h-40.613s.944-3.988 2.833-6.769c1.889-2.728 5.93-4.985 5.93-4.985h43.813v.053z" fill="#ededed"/><g class="B"><path d="M296.542 323h43.813v1.417h-43.813V323zm-9.867 13.117h1.102v19.572h-1.102v-19.572zm39.723 0h1.102v19.572h-1.102v-19.572z"/></g><g fill="#ededed"><path d="M287.78 335.961h.892v19.729h-.892v-19.729zm39.717 0h.892v19.729h-.892v-19.729z"/></g><path d="M284.97 345.916s-1.189-.423-2.085-.054-.349 3.423.936 3.719c0 0 2.758 2.624 1.149-3.665z" class="F"/><path d="M287.075 346.271c.059-.358-.055-1.005-.055-1.005s.403-.017.629.399c.469.862.265 2.723.236 2.988 0 0 .161.529-.078 1.444a1.45 1.45 0 0 0 .111.184c.026.03.033.05.033.071s-.007.041-.021.058l-.155.192c-.014.017-.034.031-.058.04-.008.003-.016.005-.024.007l-.192.036-.019-.51-.407-3.904zm.495 3.94l.004-.004-.008.003z" class="U"/><g class="M"><path d="M283.652 356.377l.153.431h1.29s.384-.552-1.443-.431zm2.766-.004l.153.431h1.29s.384-.552-1.443-.431z"/></g><path d="M284.092 342.686c.161-.196.387-.204.604-.369.205-.156.586-.258.889-.258.971 0 1.811.464 1.62 1.254-.061.25-.01.447-.269.74-.324.365-.718.658-1.351.658-.336 0-.63-.06-.889-.251-.141-.105-.343-.117-.467-.231-.251-.229-.232-.531-.324-.843-.084-.286.019-.497.187-.7z" class="G"/><path d="M286.257 344.318s-.212.644.218.917l-1.21.484-.159-.627s.228-.489.166-1.17l.985.396z" class="U"/><path d="M286.285 344.644s-1.238.118-1.264-.564.49-1.124.834-1.119c.687.01.802.227.88.453s.121 1.182-.45 1.23z" fill="#af7041"/><path d="M287.471 349.801l-2.447.158s-.287 3.356 1.32 6.468c0 0 .203.06.734.06a2.43 2.43 0 0 0 .638-.081l-.245-6.605z" class="F"/><path d="M283.673 349.996s-.755 2.287-.142 6.462a3.52 3.52 0 0 0 .802.077 4.48 4.48 0 0 0 .859-.077l.797-5.419c.031-.161.431-1.003.431-1.003l-2.747-.04z" class="G"/><g class="B"><path d="M283.615 346.599l-.16-1.028.068-.072c.283-.269 1.363-.387 1.581-.406.01.008.509.33.868.292.306-.03.358-.157.349-.295.64.083 1.001.243 1.001.243.652.191.784 1.885.784 1.885-.087-.02-.519.039-.721.068l.081 2.512c-1.556.531-3.797.19-3.797.19l.005-.015.15-2.01-.142-.918-.067-.446zm2.342-2.35s.027.085.298.069c0 0 .228-.013.219-.106 0 0-.222-.065-.517.037z"/></g><path d="M284.613 349.909c-.105.104-.628.159-.943.083l.157-2.026-.21-1.365.203-.074s.891.559.787 1.005.143 2.244.006 2.377z" class="V"/><path d="M282.703 346.702s.751.185 1.018.361c.02.014.042.026.065.037l.964-1.445.179-.277.165-.262.015-.022c-.013 0-.026.001-.039.003l-.582.076c-.171.029-.34.067-.504.114h-.006c-.193.057-.358.129-.45.212l-.068.072c-.315.354-.757 1.131-.757 1.131z" class="B"/><g class="G"><path d="M283.715 349.419s3.351-2.802 1.212-4.042a2.37 2.37 0 0 0-.441-.205c-.171.028-.34.066-.504.113a1.74 1.74 0 0 1 .766.369c.519.451.761 1.411-1.004 3.41l-.029.355zm2.45-6.456s-1.059 0-.815.568c.153.358-.357.414-.357.414s-.221-.424-.245-.574c-.019-.115.034-.379.153-.448.255-.146 1.264.04 1.264.04z"/></g><path d="M282.717 346.707c.327.079.849.24 1 .356l-.276.507c.125-.043.772-.084 1.107-.103.038-.002.344-.081.344-.081s.003-.409.601-.442c0 0 .25 0 .198.134s-.056.074-.123.264-.24.332-.424.342c-.889.585-2.113.59-2.481.576-.033-.001-.063-.011-.088-.027s-.042-.037-.049-.062c-.142-.474-.058-.966.191-1.464z" class="U"/><g class="J"><path d="M259.615 356.622c.013.111.042.208.099.25h2.722c-.016-.064-.09-.227-.432-.264-.429-.048-1.187-.234-1.327-.676s-1.049.154-1.049.154c-.022.178-.027.357-.013.536z"/><path d="M257.211 356.872h2.824c-.043-.062-.103-.117-.176-.16s-.156-.074-.244-.09l-.09-.014c-.43-.048-1.187-.234-1.327-.676s-1.049.154-1.049.154-.079.616.062.786z"/></g><path d="M258.438 344.945l.005.224.223 6.489.01.211.006.108a17.21 17.21 0 0 0 .393 2.66l.434 1.617c.821.13 1.353-.116 1.353-.116l.305-2.396.332-2.51.423-2.985.022-.154.412-2.856-1.453-.108-2.465-.184z" class="G"/><path d="M259.077 354.641l2.423-3.402.424-2.985.022-.154.411-2.857-1.452-.11-2.462.038.634 9.47z" class="F"/><path d="M262.089 345.243s-1.356 5.242-2.462 7.772-1.119 3.233-1.119 3.233-1.014.172-1.46-.028c0 0-.256-4.796.413-6.069.443-.843.781-2.636.666-3.282s-.22-1.939-.22-1.939l4.182.313z" class="G"/><path d="M260.441 338.209l-1.507-.333a3.97 3.97 0 0 0 .344-.999c.049-.284.049-.574-.079-.79-.008-.014-.016-.027-.025-.039-.058-.083-.023-.122.054-.132.137-.016.406.059.52.133.173.113 1.007.444 1.05.461l.026.152c.046.314.08 1.045-.383 1.547z" class="H"/><path d="M258.264 345.524c.321.177.826.241 1.382.235.659-.016 1.313-.099 1.944-.248.265-.058.522-.136.769-.23.859-.351.737-.817.716-2.562-.02-1.781-1.422-4.082-1.674-4.468-.448-.686-2.464-.431-2.464-.431-.442.165-.599.718-.642 1.44-.049.801.045 1.812.045 2.734 0 .762-.184 1.436-.317 1.994-.175.724-.265 1.255.241 1.536z" class="K"/><path d="M258.023 343.99c.388.639 1.152 1.358 1.625 1.772.659-.015 1.313-.099 1.944-.247.242-.453.348-1.209.124-2.457-.17-.951-1.412-4.777-1.412-4.777-1.003-.103-1.626.325-2.008.981-.049.801.045 1.812.045 2.734 0 .762-.184 1.436-.318 1.994z" class="I J"/><path d="M258.429 347.032h.91v-.221c0-.177.09-.346.25-.471s.376-.195.602-.195h.753c.226 0 .443.07.602.195s.25.294.25.471v.221h.91c.132 0 .258.041.351.114s.146.172.146.274v1.813c0 .104-.052.202-.145.276s-.22.114-.352.114h-4.276a.57.57 0 0 1-.35-.114.35.35 0 0 1-.146-.274v-1.813c0-.103.052-.202.144-.275a.58.58 0 0 1 .351-.115zm3.03-.221a.37.37 0 0 0-.151-.285c-.097-.075-.227-.117-.364-.117h-.753c-.136 0-.266.042-.362.118s-.15.177-.151.284v.221h1.782l-.001-.221z" fill="#d6716b"/><path d="M260.826 345.698s.524.791.262 1.099-1.199-.088-1.274-.264 0-1.025 0-1.025l1.012.19z" fill="#da935b"/><g class="K"><path d="M258.582 339.509l.193 3.078c-.004.9.914 3.295.914 3.295l.844.014c.157-.014.307-.057.438-.126 0 0-.202-2.83.183-3.914s.404-3.263.404-3.263-.214-.47-1.491-.322c-1.514.176-1.485 1.238-1.485 1.238z"/><path d="M259.215 336.82s-.344.85-.276 1.001c0 0 1.864.197 2.62.773 0 0-.246-.827-.548-1.035s-1.796-.739-1.796-.739z"/></g><path d="M260.85 336.66h-.023c-.169 0-1.223.002-1.519.197-.009.006-.019.012-.03.017.049-.284.049-.574-.079-.79l.03-.171c.136-.017.406.058.52.132.173.113 1.006.444 1.05.461l.004.015.047.139z" class="W"/><path d="M261.504 336.61s-1.742.261-1.934-.59-.544-1.391.56-1.594 1.395.093 1.547.365.276 1.729-.173 1.819z" class="H"/><path d="M259.258 336.389s.091-.054-.262-.472-.52-.303-.525-.749-.216-.713.443-1.003.555-.559.953-.623.973.192 1.314.137 1.406 1.032.723 1.288c0 0-.317.013-.54-.094s-1.041-.216-1.137-.022-.61 1.388-.969 1.538z" class="F"/><path d="M274.712 344.106s.234.208.098.338-.379.242-.61.116-.291-.587-.158-.587.67.133.67.133z" class="W"/><path d="M274.261 342.137s.671 1.713.53 1.96-.599.203-.856-.092.326-1.868.326-1.868z" class="M"/><path d="M272.509 338.312s1.036.147 1.419.447 1.29 1.186.72 4.138c0 0-.046.89-1.327.976s-.812-5.561-.812-5.561z" class="N"/><path d="M273.087 338.239c-.015-.125-.016-.252-.003-.378l.016-.101-.016-.004-1.242-.296-.031-.007-.067.725a2.11 2.11 0 0 1-.084.389h1.512a1.3 1.3 0 0 1-.085-.328z" class="H"/><path d="M273.565 336.211s-.143-1.591-2.787-.989c-.6.137-.522 1.554.931 2.093l1.856-1.104z" class="G"/><path d="M270.13 345.654c.179.969 1.373 3.487 1.338 4.357a27.81 27.81 0 0 0 .102 3.323c.023.238.062.476.118.711l.305 1.117c.158.633.075 1.002.204 1.341.142.371 1.769.303 1.278.077-.176-.081-.43-.252-.556-.472-.458-.802.184-4.257.375-5.589l.049-.389.787-6.303c-1.753-.763-4.176.858-4 1.827z" class="H"/><path d="M270.13 345.656c.179.968 1.373 3.486 1.338 4.357a27.81 27.81 0 0 0 .102 3.323l1.726-2.814.049-.389.804-6.306c-1.754-.763-4.195.86-4.019 1.829z" class="W"/><path d="M273.937 344.01l-1.678 6.229c-.171.813-1.543 4.641-1.244 5.6.176.566.484.733.484.733.072.104-1.119.31-1.215-.087-.123-.504-.148-1.212-.327-2.411-.308-2.066.303-3.241.451-4.104s-.497-3.608-.139-4.545c.627-1.642 2.024-2.313 3.668-1.415z" class="H"/><path d="M269.92 348.981l.969.079.314-.985.111 1.003c.927.03 2.139-.006 3.032-.295l-.193-4.958s-1.293.269-2.85-.2c.001-.001-2.022 1.234-1.383 5.356z" class="N"/><g class="M"><path d="M269.7 355.742c.072.318.086.89.089 1.035h.128l.012-.754.025.024c.114.099.264.584.375.73h1.414c.006-.015.007-.031.004-.047s-.012-.031-.024-.044c-.064-.08-.225-.141-.225-.141-.301.031-.606.019-.902-.033-.189-.039-.508-1.348-.508-1.348s-.444.211-.494.308c-.025.046.028.156.106.27z"/><path d="M271.649 355.804a6.7 6.7 0 0 1 .074.882v.092h.128l.011-.726c.114.107.262.582.371.726h1.413c.054-.119-.245-.233-.245-.233a3.28 3.28 0 0 1-.902-.033c-.189-.039-.508-1.348-.508-1.348s-.445.211-.494.308c-.026.056.055.199.152.332z"/></g><path d="M271.19 343.703s1.188.641 2.982.172c0 0 .614-1.64.421-3.219-.13-1.059-.899-1.893-1.47-2.221-.09.062-.246.17-1.42-.052 0 0-.537.176-.633.338-.204.347.481 4.293.12 4.982z" fill="#e7f0fd"/><path d="M270.696 344.223c.53.085.938-.207 1.565-.345.186-.039.364-.096.531-.171.56-.269.832-2.264.737-3.019s-1.818-2.301-1.818-2.301c-.398.23-.473.768-.711 1.473-.579 1.695-.304 4.363-.304 4.363z" class="N"/><path d="M270.697 344.223c.53.085 1.113-.069 1.564-.346.254-.285.429-.608.513-.949.285-1.1-.84-2.294-1.778-3.069-.574 1.695-.299 4.364-.299 4.364z" class="M"/><path d="M271.838 337.461c.141.186.59.699 1.246.779-.016-.126-.017-.252-.003-.378l.015-.101-.015-.004-1.243-.296z" class="X"/><path d="M273.433 337.828s-1.544.242-1.72-.512-.498-1.23.48-1.416 1.238.073 1.376.313.26 1.532-.136 1.615z" class="H"/><path d="M271.179 336.011c.516-.506 1.162-.439 1.502-.355a2.62 2.62 0 0 1 .294-.017c1.008-.019.729.892.729.892-.036-.575-.672-.636-.672-.636l-.022-.005c.056.16.037.416-.457.659-.796.39-.735 1.172-.523 1.392-.001 0-1.586-1.209-.851-1.93z" class="G"/><g class="F"><path d="M274.103 345.118c.126-.415.268-.632.434-.662.024-.004.049-.004.073 0s.047.013.067.025c.129.071.238.293.334.676.069.275.103.535.103.538l-.105.008a5.6 5.6 0 0 0-.102-.53c-.117-.466-.233-.591-.292-.624-.007-.005-.016-.009-.025-.011s-.019-.002-.028 0c-.225.038-.42.745-.492 1.18l-.105-.01c.002-.004.049-.296.138-.59z"/><path d="M272.866 347.217l.231-1.197a.5.5 0 0 1 .223-.316c.121-.081.275-.126.434-.126h1.634a.31.31 0 0 1 .189.061c.05.039.078.092.078.148v1.46c0 .056-.028.109-.078.148a.31.31 0 0 1-.189.061h-2.259c-.038 0-.076-.007-.111-.019a.28.28 0 0 1-.09-.054c-.025-.022-.044-.049-.054-.078s-.013-.059-.008-.088z"/></g><path d="M273.976 345.578h1.44a.34.34 0 0 1 .182.051c.052.033.087.079.099.131l.356 1.43c.009.032.007.066-.003.098s-.03.062-.057.087-.06.046-.099.06-.08.022-.122.022h-1.54a.34.34 0 0 1-.188-.055c-.052-.035-.086-.084-.096-.137l-.256-1.431c-.005-.031-.003-.064.009-.095s.032-.059.059-.083.06-.044.097-.058.078-.02.119-.02z" class="G"/><path d="M273.965 344.328s.667.137.707.245-.19.415-.567.343-.679-.423-.679-.423l.539-.165z" fill="#da935b"/><path d="M271.707 338.383s-.983.1-1.454.864.405 3.492.532 3.676 1.596 1.655 2.844 1.782c0 0 .53-.146.513-.387l-2.191-1.81c-.145-.226.057-2.71.039-3.036s-.283-1.089-.283-1.089z" class="N"/><path d="M302.211 339.103l.115-.269.014-.033.043.04c.167.162.737.864.31 2.485a7.04 7.04 0 0 1-.258.777s1.58-.219 2.027-.451c.018-.036.25-.574.427-.647s.502-.153.576-.123.214.436 0 .647-.762.414-.762.414-1.766 1.105-2.993 1.075c-1.029-.026.102-2.953.501-3.915z" class="H"/><path d="M299.893 337.271s-.362-.445-.445-.824c-.062-.271.115-1.276 1.406-1.132a2.08 2.08 0 0 1 .728.215c.28.148.685.468.233 1.345l-.118.296-1.804.1z" class="F"/><path d="M298.386 341.796c.304.657.461.924.453 1.172.97-1.172 2.721-1.35 2.721-1.35l-3.326-.298c.031.162.081.321.152.476z" class="X"/><path d="M294.645 346.265c.043-.107.072-.216.088-.327.892.305 1.868.174 1.868.174.083.269.011.643.011.643-1.004.211-2.118-.251-2.118-.251a1.68 1.68 0 0 0 .151-.239z" class="B"/><path d="M296.018 344.179c.04.077.215.145.465.193l.072.014c.569.097 1.473.102 2.139-.09.743-.216 1.284-3.292 1.513-4.869l.01-.071.112-.846s-.427-.524-2.082-.349-1.821.61-1.97 1.395-.389 4.376-.259 4.623z" class="O"/><path d="M296.555 344.388c.569.097 1.473.103 2.138-.09.744-.216 1.284-3.292 1.514-4.868l.01-.072-.296-.749s-2.078-.196-2.483.294c-.353.429-.781 4.473-.883 5.485z" class="G"/><path d="M295.61 345.908c.123-.06.241-.244.285-.318.378-.734.813-2.161.958-2.424.051-.096.155-.546.284-1.127.236-1.042.572-2.502.909-3.081.04-.07.155-.129.31-.178.402-.131 1.056-.196 1.209-.21.163-.101.387-.539.384-1.207l.073.012 1.226.189-.029.586c0 .237.017.461.086.49l.14.01s1.022 1.11 1.108 2.144-.818 1.481.007 3.543c.843 2.107-4.883.779-4.569.227.569-.998.842-1.28.851-1.594.007-.221-.116-.457-.357-.968l-.063.182-.301.926c-.146.543-1.753 2.629-1.753 2.629s-.049.026-.104.153-.511.799-.705.799-.236-.228-.277-.374.173-.333.328-.409z" class="H"/><path d="M298.35 334.693c.272-.13.706.025.706.025-.151-.165-.698-.111-.698-.111 1.094-.182 1.32.367 1.338.415.792-.558 2.059.633 2.059.633l-1.817 1.885s-.166-.3-.386-.206c-.341.146-1.002-.445-.791-1.222a1.67 1.67 0 0 1 .081-.231c-.071.027-.148.041-.227.044-.199 0-.499-.397-.54-.53s.005-.572.275-.702z" class="F"/><path d="M301.243 337.565l-.028.586c-.686-.016-1.049-.505-1.197-.776l1.225.19z" class="X"/><path d="M301.474 337.835s-1.623.021-1.624-.768-.211-1.32.828-1.367 1.237.254 1.32.519-.102 1.591-.524 1.616z" class="H"/><path d="M299.425 354.14c.249.772.591 1.523 1.022 2.244l.536-.029s-.263-.976-.248-2.296c.011-.922.156-2.012.621-3.052 1.603-3.576 1.345-6.179 1.345-6.179l-3.011.276-.14.012-.08 3.698-.052 1.806c-.58.975-.369 2.352.007 3.52z" class="M"/><path d="M297.697 353.933c.173 1.445.936 2.379.936 2.379l.255.146s.242-1.018.414-2.229c.163-1.152.387-2.37.64-2.741 1.004-1.475 1.306-7.042 1.306-7.042l-3.051-.118c-.307.405-.441 1.066-.473 1.82-.08 1.901.491 4.377.576 4.735.005.028-.002.057-.02.081-.609.939-.697 2.015-.583 2.969z" class="N"/><path d="M300.286 336.744c-.682.137-.977-.006-.977-.006s.051-.542.631-.892c.843-.508 1.423-.224 1.459-.182.106-.072.295-.124.546.114.377.356.042.986.042.986-.156.015-.191-.4-.272-.601-.059-.148-.255-.299-.354-.369-.032.092-.358.979-1.174 1.274a3.27 3.27 0 0 0 .651-.622c-.157.14-.343.256-.552.298z" class="F"/><path d="M297.606 345.285c-.008.064-.001.129.019.191.065.162.288.233.827.189.33-.027.477-.459.542-.827.198.525.476.823.834.885.523.091 3.161.342 3.333-.639.19-1.078-.379-2.988-.41-4.017a4.04 4.04 0 0 0 .096-.954c-.022-.733-.298-1.144-.509-1.31-.06-.036-.12-.058-.362-.091l-.535-.06-.096-.006c.044.063.642.769.595.952-.048.19-2.167.019-2.313-.086s-.377-.907-.377-.907-.751.065-1.118.273l.004.004c-.04.021-.073.049-.096.081-.392.583-.783 2.054-1.058 3.103.667.288 1.249.203 1.43.164-.235 1.207-.771 2.504-.806 3.055z" class="K"/><path d="M301.443 338.648l.004.004c.072.089 1.197 1.497 1.305 2.411a4.04 4.04 0 0 0 .096-.954c-.145-.346-.496-1.114-.87-1.401-.046-.037-.535-.06-.535-.06z" class="O"/><path d="M304.124 341.736l.472-1.109c.013-.016.018-.019.023-.021.024-.005.03-.004.036-.003l.744.194c.012.003.022.01.028.019s.006.018.002.028l-.472 1.109c-.004.01-.013.017-.024.021s-.024.006-.036.002l-.744-.193c-.012-.003-.021-.01-.027-.019s-.006-.019-.002-.028z" class="K"/><path d="M304.291 341.747l.45-1.055c.007-.016.021-.029.041-.037s.042-.009.062-.003l.672.175c.021.006.038.017.047.032s.012.033.005.049l-.449 1.055c-.007.016-.022.029-.042.037s-.041.009-.062.004l-.675-.176c-.02-.006-.036-.018-.045-.033s-.01-.032-.004-.048z" class="J"/><path d="M299.426 354.139c.249.772.591 1.523 1.022 2.244l.536-.029s-.263-.976-.248-2.295c-.181.071-.556.144-1.31.08z" class="H"/><path d="M300.143 356.736h.341l.316-.052c.178-.018.259.04.277.052l.003.003h1.452c.036-.041 0-.136-.034-.205a.16.16 0 0 0-.053-.061c-.023-.017-.051-.029-.082-.036-.155-.035-.457-.066-.736-.263-.155-.11-.754-.404-.754-.404h-.003c-.014 0-.076.014-.348.194-.141.093-.381-.131-.381-.131-.033.024-.06.052-.079.084-.034.054-.045.115-.031.174.022.102-.048.292-.104.421l-.062.133s-.017.062.278.091z" class="F"/><g class="O"><path d="M300.061 355.912c.081.045.253.134.367.146.155.015.443-.292.443-.292h-.003c-.014 0-.076.015-.348.195-.141.092-.381-.131-.381-.131-.033.023-.059.051-.078.082zm.08.822h.342l.316-.052c.178-.018.259.041.277.052l.003.003h1.451c.037-.041 0-.135-.033-.205-.044-.031-.056.133-.081.159a8.29 8.29 0 0 1-1.251-.028c-.067-.038-.267-.105-.547-.053-.244.046-.604-.071-.692-.102l-.063.133s-.016.064.278.093z"/></g><path d="M298.318 356.736h.342l.316-.052c.178-.018.259.04.276.052l.004.003h1.451c.037-.041 0-.136-.033-.205a.17.17 0 0 0-.053-.061c-.024-.017-.052-.029-.082-.036-.155-.035-.458-.066-.736-.263-.155-.11-.755-.404-.755-.404h-.003c-.013 0-.075.014-.348.194-.141.093-.38-.131-.38-.131-.033.024-.06.052-.079.084-.034.054-.045.115-.031.174.021.102-.048.292-.104.421l-.062.133s-.017.062.277.091z" class="F"/><g class="O"><path d="M298.236 355.912c.082.045.254.134.369.146.155.015.442-.292.442-.292h-.003c-.013 0-.076.015-.348.195-.141.092-.381-.131-.381-.131a.28.28 0 0 0-.079.082zm.082.822h.342l.317-.052c.178-.018.258.041.276.052l.003.003h1.452c.036-.041 0-.135-.033-.205-.044-.031-.057.133-.081.159s-1.184.01-1.251-.028-.268-.105-.548-.053c-.244.046-.603-.071-.692-.102l-.062.133s-.017.064.277.093z"/></g><path d="M297.605 345.283c.362-.094.828-.346 1.386-.91 1.478-1.494.126-3.25-.056-3.282s-.522 1.136-.522 1.136c-.237 1.208-.772 2.505-.808 3.056z" class="I J"/><path d="M298.436 338.496s1.487.792 1.599 2.472-1.822 2.022-1.822 2.022l.125-.531s1.567-.445 1.158-1.78-1.637-2.062-1.637-2.062l.577-.121z" class="O"/><g class="H"><path d="M305.505 341.066s-.14-.225-.396-.134-.144.432.005.552c.071.053.134.112.19.175l.201-.593zm-7.806 12.872c.173 1.444.936 2.379.936 2.379l.258.185.409-2.269c-.179.011-.974.033-1.603-.295z"/></g><ellipse cx="59.266" cy="378.645" rx="42.372" ry="1.856" fill="#f6958a"/><g class="E"><use xlink:href="#e"/><path d="M57.749 372.444c0 3.238-2.544 5.898-5.666 5.898s-5.666-2.66-5.666-5.898 2.544-5.897 5.666-5.897 5.666 2.66 5.666 5.897z"/></g><path d="M21.899 351.863l-1.734-3.122 8.557-2.429-6.823 5.551z" fill="#ee3420"/><path d="M99.724 359.727c-3.932-4.394-12.026-5.088-14.339-6.476S76.249 344 63.529 344l-21.971.231c-5.435 0-9.714.925-12.951 2.197-2.197.81-3.932 1.851-5.319 2.776 3.469-1.272 7.863-2.197 12.836-2.082 10.407.232 16.768 6.013 16.768 6.013l4.394 5.089s7.516.231 13.414 3.353c3.932 2.082 4.972 8.095 5.204 11.101 13.877 0 24.862-.231 25.557-.694 2.197-1.503.578-9.713-1.735-12.257z" fill="#f04935"/><path d="M70.931 361.346c-5.898-3.122-13.414-3.353-13.414-3.353l-4.394-5.088s-6.476-5.782-16.767-6.013c-4.973-.116-9.367.925-12.836 2.081-1.041.694-1.85 1.272-2.544 1.85-2.544 2.082-2.544 3.816-2.891 7.286-.116 1.04-.694 3.584-1.85 6.244-.463.925.116 3.238.578 4.394.694 1.619 2.544 3.238 4.163 3.238l55.159.347c-.347-2.775-1.272-8.904-5.204-10.986z" fill="#f26050"/><path d="M16 366.895s0 2.197 1.272 3.7 1.503 2.197 3.932 2.197h78.403c1.619 0 2.891-1.388 2.891-2.891h-83.26s-2.081-1.388-3.238-3.006z" class="E"/><path d="M55.085 353.02h-8.673c-3.354 0-4.741 5.203-.694 5.319s13.877-.116 13.877-.116l-4.51-5.203z" fill="#f04935"/><path d="M36.235 347.009l-7.169-.81-6.36 1.85v2.776l13.53-3.816z" fill="#ee3420"/><g class="E"><path d="M18.425 355.105l2.891-2.66.809 1.851-4.163 4.047.462-3.238z"/><use xlink:href="#f"/></g><path d="M32.302 372.562c0 2.082-1.735 3.816-3.816 3.816s-3.816-1.734-3.816-3.816 1.735-3.816 3.816-3.816 3.816 1.735 3.816 3.816z" class="B"/><g class="E"><path d="M28.375 373.601a1.041 1.041 0 1 0 0-2.081 1.041 1.041 0 1 0 0 2.081zm43.706-1.039c0 3.237-2.544 5.897-5.666 5.897s-5.666-2.66-5.666-5.897 2.544-5.898 5.666-5.898 5.666 2.66 5.666 5.898z"/></g><path d="M70.23 372.562c0 2.082-1.735 3.816-3.816 3.816s-3.816-1.734-3.816-3.816 1.734-3.816 3.816-3.816c2.197 0 3.816 1.619 3.816 3.816z" class="B"/><path d="M67.455 372.56c0 .578-.462 1.041-1.041 1.041s-1.041-.463-1.041-1.041.463-1.04 1.041-1.04 1.041.462 1.041 1.04z" class="E"/><path d="M98.686 364.121h3.123s-.463-3.932-2.082-4.394c-.925.809-1.041 4.394-1.041 4.394z" class="B"/><g class="E"><path d="M96.711 365.625H86.072c-.463 0-.694 0-.925.925-.231.81-.694 3.007-.694 3.007 0 .578.347 1.04.925 1.04h12.373c.694 0 1.156-.578.925-1.272l-.925-3.006c-.231-.347-.694-.694-1.041-.694zm-12.947-4.738s.463 1.04 1.041 1.734c.463.694.925 1.388 2.66 1.388h7.401c1.156-.116 1.85-.463 1.966-1.503.116-.694.347-1.504.347-1.504H83.764v-.115z"/></g><path d="M66.883 359.726s.925 3.816 4.51 4.163c3.469.347 8.21 0 8.21 0s-.347-2.891-3.7-3.585c-3.238-.694-9.02-.578-9.02-.578z" class="B"/><g class="E"><path d="M51.042 350.591a9.27 9.27 0 0 0-1.503-1.504c-2.544-2.312-5.551-3.122-15.611-1.734-5.088.694-8.788 4.394-8.788 4.394l.694 1.388 1.503 2.659 27.753.347c0-.115-1.041-2.197-4.047-5.55zm24.513.228c-2.544-1.735-5.551-3.238-7.979-4.279-7.748-.231-16.767.116-16.767.116l1.85 2.313 5.204 6.476 21.278-.232h1.503c-1.388-1.387-3.122-3.006-5.088-4.394z"/></g><g class="B"><use xlink:href="#g"/><use xlink:href="#g"/><path d="M96.025 366.895h-8.673v2.197h8.673v-2.197z"/></g><g class="F"><path d="M119.097 360.352c-.112.296-.632.494-.702.856-.056.281-.235.463-.432.531h-1.393c-.033-.07-.075-.242.28-.303.447-.077.618-.503.59-.897a3.91 3.91 0 0 1 .005-.519l.037-.403.955-.176.1.101.096.097s.576.416.464.713zm-7.61 1.384h-3.278c.038-.092.154-.238.499-.282.504-.063 1.376-.292 1.571-.795l.016-.05c.155-.538 1.278.165 1.278.165l.008.057c.025.189.086.78-.094.905z"/></g><path d="M108.84 347.364l.371 3.665.633 6.688.28 2.854s.533.417 1.6.242c0 0 .952-2.508 1.223-5.161l.013-.131.645-8.388-4.765.231z" class="G"/><path d="M108.841 347.364l.371 3.665 3.737 4.623.013-.131.645-8.388-4.766.231z" class="F"/><path d="M109.619 347.56s3.074 6.027 5.094 8.86l2.654 3.623s1.158-.362 1.264-.609c0 0-.773-5.469-2.128-6.801-.764-.754-1.663-3.014-1.705-3.805s-.27-2.355-.27-2.355l-4.909 1.087z" class="G"/><path d="M106.511 345.898l-.175.275s-.896.097-.648.826c0 0 .132.3.379.205s.125-.088.478-.215.56-.373.479-.598l.056-.238-.569-.255z" class="Y"/><path d="M111.195 338.26a5.56 5.56 0 0 1-.141-1.007l1.56-.983c-.056 1.351 1.05 2.002 1.05 2.002s-2.079.8-3.281.504a2.82 2.82 0 0 1 .812-.516z" fill="#9c5f33"/><path d="M110.691 337.229s1.985.258 2.171-.711.568-1.588-.691-1.795-1.578.135-1.74.447-.252 1.967.26 2.059z" class="Y"/><path d="M112.845 336.587s-.04-1.299-1.848-1.507c-1.239-.143-.488-.952-.347-1.08l1.916.306c2.034.351.494 2.087.279 2.281z" class="F"/><path d="M106.719 346.281a2.8 2.8 0 0 1-.462-.49l2.438-2.418c.184-.229 1.553-3.871 1.553-3.871l3.463-.549-3.37 5.232c-.791.939-3.159 2.338-3.159 2.338a1.51 1.51 0 0 1-.463-.242z" fill="#74acbe"/><path d="M108.707 347.504c.035.024.08.038.126.038.452-.005 1.767.191 2.88.102.939-.071 1.77-.288 2.661-.601.119-.044.392-.155.386-.258l-.037-.486c-.063-.719-.173-1.958-.066-3.387l.031-.788c.009-1.936-.477-3.666-1.464-4.243-.084-.047-.606.178-1.082.361-.401.155-.857.198-1.293.123l-.415.286c-.504.367-1.059.866-1.3 1.623-.204.645-.325 1.807-.392 3.012l-.06 1.619v.019c-.007.052-.007.108-.007.16l.032 2.42z" class="V"/><path d="M114.723 346.298c-.064-.72-.173-1.959-.066-3.388l.03-.788-.746-1.345h-1.038s-.758 4.054 1.82 5.521z" fill="#74acbe"/><path d="M122.76 350.02l-.804-2.024c-.118-.292-.379-.536-.726-.679a1.86 1.86 0 0 0-1.127-.082l-5.972 1.451c-.374.092-.686.296-.869.567s-.22.588-.105.881l.805 2.024c.117.293.378.537.725.68a1.86 1.86 0 0 0 1.127.082l5.972-1.45c.374-.092.687-.296.87-.568s.22-.589.104-.882z" class="J"/><path d="M123.555 349.853l-.814-2.048c-.117-.293-.379-.539-.727-.682s-.755-.173-1.131-.082l-2.053.499-.173-.438a.39.39 0 0 0-.092-.132c-.042-.039-.092-.071-.15-.094a.56.56 0 0 0-.184-.042c-.064-.005-.129 0-.19.016l-.117.028-1.069.259-.598.146c-.061.015-.119.039-.168.072a.42.42 0 0 0-.121.116.33.33 0 0 0-.054.144c-.005.051.002.101.021.15l.173.437-1.187.286-.133.038h-.002-.007c-.337.113-.609.32-.763.581s-.18.557-.072.832l.813 2.052c.101.252.309.469.589.617s.616.216.953.195c.107-.007.213-.023.316-.048l5.959-1.448c.376-.092.691-.296.875-.569s.222-.591.106-.885zm-7.152-1.724l-.174-.438c-.007-.018-.009-.036-.007-.055s.009-.037.02-.054.027-.031.045-.043.04-.021.063-.027l.582-.141.993-.24.209-.051a.28.28 0 0 1 .071-.006c.024.002.047.007.068.016s.04.021.056.035.027.031.034.049l.174.438-2.134.517z" class="K"/><path d="M116.742 346.55l.197.265s-.385.638.529.876c0 0 .392.077.426-.136s-.024-.131.033-.43-.093-.57-.377-.641l-.224-.168-.584.234z" class="Y"/><path d="M117.263 346.62a4.29 4.29 0 0 1-.777.034l-1.25-2.92c-.143-.244-3.29-3.137-3.29-3.137l1.311-2.566 3.751 5.072c.571 1.032.769 3.347.769 3.347a1.63 1.63 0 0 1-.514.17z" class="V"/><path d="M106.807 346.718l-.77-1.113c-.018-.016-.024-.018-.03-.02s-.013-.002-.02-.001l-.766.32c-.011.005-.02.014-.024.024s-.003.021.004.03l.77 1.114c.007.009.018.016.031.019s.026.002.038-.003l.747-.316c.012-.005.021-.014.024-.024s.003-.021-.004-.03z" class="K"/><path d="M106.631 346.754l-.733-1.059c-.011-.016-.03-.028-.053-.033s-.046-.003-.067.005l-.675.286a.08.08 0 0 0-.042.041c-.006.018-.004.037.007.053l.733 1.059c.011.016.03.028.053.033a.11.11 0 0 0 .067-.005l.677-.286c.02-.01.034-.025.04-.042s.004-.036-.007-.052z" class="J"/><ellipse cx="113.193" cy="362.369" rx="5.674" ry=".63" class="T"/><ellipse cx="359.195" cy="380.575" rx="41.935" ry="1.892" fill="#f6958a"/><g class="E"><path d="M332.417 380.072a4.73 4.73 0 0 1-4.728-4.727 4.73 4.73 0 0 1 4.728-4.728 4.73 4.73 0 0 1 4.728 4.728 4.73 4.73 0 0 1-4.728 4.727zm30.821-4.727c0 2.626 2.101 4.727 4.728 4.727s4.727-2.101 4.727-4.727a4.71 4.71 0 1 0-9.455 0z"/></g><path d="M316.225 365.887c.701-6.741 1.489-12.169 2.627-16.021 1.138-3.765 1.226-5.866 7.004-5.866h71.09c1.663 0 2.976.788 3.589 2.802h-56.907c-2.714 0-2.364 6.916-2.451 15.058l.079 13.088-23.892-.043c.087 0-1.751-2.539-1.139-9.018z" class="Z"/><path d="M343.628 346.805h56.907c.263.875.438 1.926.438 3.239v21.8l-3.59 3.239-56.206-.088v-17.86c0-8.142-.263-10.33 2.451-10.33z" fill="#1e88e5"/><g class="B"><path d="M364.109 375.078s2.101-6.478 12.782-9.105c8.142-2.013 10.594-9.017 10.594-9.017l2.101-.351s.525 1.576-1.051 4.378c-1.488 2.889-3.414 4.027-3.414 4.027s5.253-.262 10.068-4.115c2.189-1.751 2.189-3.939 2.189-3.939h2.276s-.263 4.64-2.014 6.128c-3.852 3.327-8.404 4.29-13.395 6.041-6.916 2.451-7.879 5.953-7.879 5.953h-12.257zm13.137-18.736s-2.364 6.654-7.091 7.53c-8.58 1.575-11.469 4.727-11.469 4.727s.875-3.152 3.677-4.903c3.589-2.276 6.566-1.575 7.442-5.515.525-2.276 7.441-1.839 7.441-1.839z"/></g><path d="M374.797 368.164s-2.889 1.313-4.64 3.502-2.101 3.502-2.101 3.502h-2.977s1.926-3.152 4.29-4.64c2.364-1.576 5.428-2.364 5.428-2.364z" fill="#1e88e5"/><path d="M317.451 374.908l77.743-1.051c3.327 0 5.779-2.013 5.779-2.013s-.526 3.239-5.516 4.377c-2.889.613-61.81.613-74.154.613a4.71 4.71 0 0 1-3.589-1.576l-.263-.35z" class="E"/><g class="B"><path d="M338.636 365.891s.088 2.976-2.364 3.852c-2.363.963-5.778 1.488-5.778 1.488s-.262-2.101 1.839-3.239c2.276-1.138 6.303-2.101 6.303-2.101zm-22.412 0s1.226 1.225 1.926 2.714.963 2.714.963 2.714-2.626-.613-3.064-1.314c-.175-2.188.175-4.114.175-4.114zm68.112-8.846s.175 2.539-3.151 5.077c-2.102 1.664-5.078 2.189-5.078 2.189s3.939-3.327 4.99-5.34l.963-2.014 2.276.088z"/></g><g class="E"><path d="M320.077 375.866v-.7c0-1.051.875-2.014 2.013-2.014h6.654a2.04 2.04 0 0 1 2.014 2.014v.7h-10.681zm-3.676-11.91l.875-7.529c.701-4.727 2.627-9.63 2.627-9.63h16.109c-.088 2.801-.263 9.893-1.314 14.095-.525 2.014-1.313 3.415-2.188 4.465-2.277.263-5.078.526-8.142.526-4.728 0-7.967-1.927-7.967-1.927z"/></g><g class="B"><path d="M335.923 346.797c1.313 0 3.327.525 3.327 2.801 0 3.415-.263 8.58-.525 11.82-.088 1.751-1.489 3.239-3.327 3.589-.876.175-1.839.263-2.977.438.876-1.051 1.751-2.539 2.189-4.465 1.05-4.29 1.226-11.382 1.313-14.183zm33.878 18.039s-.613 1.926-2.714 2.889c-3.24 1.488-4.903 5.516-4.903 5.516s-.175-2.889.613-4.29c.7-1.226 2.101-2.014 3.414-2.452 1.751-.612 3.59-1.663 3.59-1.663z"/></g><g class="E"><path d="M378.91 349.422h10.944v9.455H378.91v-9.455zm-11.904 0h10.943v9.455h-10.943v-9.455zm32.656 9.545h-8.842v-9.455h8.842v9.455zm-55.946 11.556v-20.924-.087h10.419v16.284c-2.452.35-6.829.613-10.419 4.727zm11.299-21.101h10.944v9.455h-10.944v-9.455z"/></g><g class="B"><path d="M378.91 346.797h10.944v2.626H378.91v-2.626zm-11.905 0h10.944v2.626h-10.944v-2.626zm31.344 0c1.313 0 1.313 1.926 1.313 2.626h-8.842v-2.626h7.529zm-52.003 0h7.705v2.626h-10.419c.088-1.4 1.314-2.626 2.714-2.626zm8.669 0h10.944v2.626h-10.944v-2.626z"/></g><use xlink:href="#h" class="E"/><use xlink:href="#i" class="Z"/><g class="E"><path d="M387.139 376.305c-.532 0-.964-.431-.964-.963s.432-.963.964-.963.963.431.963.963-.432.963-.963.963zm-34.755 3.764a4.73 4.73 0 0 1-4.728-4.728 4.73 4.73 0 0 1 4.728-4.728 4.73 4.73 0 0 1 4.727 4.728 4.73 4.73 0 0 1-4.727 4.728z"/></g><path d="M352.386 378.231a2.89 2.89 0 0 1-2.889-2.889 2.89 2.89 0 0 1 2.889-2.889 2.89 2.89 0 0 1 2.889 2.889 2.89 2.89 0 0 1-2.889 2.889z" class="Z"/><path d="M352.385 376.305c-.532 0-.963-.431-.963-.963s.431-.963.963-.963.963.431.963.963-.431.963-.963.963z" class="E"/><path d="M357.805 365.797s-1.489 3.064-4.728 3.239c-3.765.175-6.303 2.627-6.303 2.627s.963-2.539 3.414-3.852c3.852-2.014 5.866-1.139 7.617-2.014z" class="B"/></g><defs><clipPath id="A"><path d="M0 0h412v413H0z" class="B"/></clipPath><clipPath id="B"><path d="M0 0h412v413H0z" class="B"/></clipPath><clipPath id="C"><path transform="translate(-18.027 257.844)" d="M0 0h228.889v103.572H0z" class="B"/></clipPath><clipPath id="D"><path transform="translate(211.148 257.844)" d="M0 0h229.175v105.861H0z" class="B"/></clipPath><path id="E" d="M23.872 301.949h-1.697v8.089h1.697v-8.089z"/><path id="F" d="M23.872 314.805h-1.697v8.088h1.697v-8.088z"/><path id="G" d="M2.245 303.113h-3.522v3.522h3.522v-3.522z"/><path id="H" d="M6.303 303.113H2.781v3.522h3.522v-3.522z"/><path id="I" d="M10.362 303.113H6.84v3.522h3.522v-3.522z"/><path id="J" d="M51.317 327.672h-3.511v7.196h3.511v-7.196z"/><path id="K" d="M76.707 325.012h-3.834v3.831h3.834v-3.831z"/><path id="L" d="M76.707 330.211h-3.834v3.834h3.834v-3.834z"/><path id="M" d="M86.72 335.414h-3.831v3.834h3.831v-3.834z"/><path id="N" d="M96.375 314.719h-3.834v5.433h3.834v-5.433z"/><path id="O" d="M146.402 300.273H134.84v1.105h11.562v-1.105z"/><path id="P" d="M146.402 305.934H134.84v1.104h11.562v-1.104z"/><path id="Q" d="M205.072 349.569c.181.017.166.171.155.326.495.028.735-.129.761-.435-.195-.152-.913-.192-.916.109z"/><path id="R" d="M198.034 349.891c-.286.266.166.532-.151.875.366-.046.332.2.764.109.054-.512-.063-.901-.613-.984z"/><path id="S" d="M157.801 339.516c-.543 0-.972.108-1.072.437.194.149.721.066.918.218.1-.229.406-.495.154-.655z"/><path id="T" d="M356.683 324.902h-2.171v6.967h2.171v-6.967z"/><path id="U" d="M367.92 324.902h-2.172v6.967h2.172v-6.967z"/><path id="V" d="M404.911 321.453h-10.829v3.637h10.829v-3.637z"/><path id="W" d="M262.906 300.383h-11.562v1.104h11.562v-1.104z"/><path id="X" d="M262.906 308.867h-11.562v1.105h11.562v-1.105z"/><path id="Y" d="M275.245 301.094h-1.991v9.101h1.991v-9.101z"/><path id="Z" d="M280.597 301.094h-1.992v9.101h1.992v-9.101z"/><path id="a" d="M275.245 311.305h-1.991v2.254h1.991v-2.254z"/><path id="b" d="M219.624 275.97c.031-.085.126-.126.303-.108.034-.209-.172-.241-.152-.438-.223.06-.792-.126-.766.109.36.048.343.334.615.437z"/><path id="c" d="M242.569 347.969c-.031.314.04.555.307.655.226-.203.838-.129.766-.547-.329-.086-.858-.266-1.073-.108z"/><path id="d" d="M296.116 362.61a.54.54 0 0 0-.12.175c-.028.065-.043.136-.043.207a.53.53 0 0 0 .043.208c.028.066.069.125.12.174.432.092.398-.154.767-.109-.032-.377-.129-.703-.767-.655z"/><path id="e" d="M98.338 372.444c0 3.238-2.544 5.898-5.666 5.898s-5.666-2.66-5.666-5.898 2.544-5.897 5.666-5.897 5.666 2.66 5.666 5.897z"/><path id="f" d="M34.153 372.562c0 3.237-2.544 5.897-5.666 5.897s-5.666-2.66-5.666-5.897 2.544-5.898 5.666-5.898 5.666 2.66 5.666 5.898z"/><path id="g" d="M69.546 346.655c-.694 0-1.272 0-1.966-.116 2.544 1.041 5.435 2.428 7.979 4.279 1.966 1.387 3.7 3.006 4.972 4.278h3.816s-6.707-8.21-14.802-8.441z"/><path id="h" d="M387.138 380.069a4.73 4.73 0 0 1-4.728-4.728 4.73 4.73 0 0 1 4.728-4.728 4.73 4.73 0 0 1 4.727 4.728 4.73 4.73 0 0 1-4.727 4.728z"/><path id="i" d="M387.14 378.231a2.89 2.89 0 0 1-2.889-2.889 2.89 2.89 0 0 1 2.889-2.889 2.89 2.89 0 0 1 2.889 2.889 2.89 2.89 0 0 1-2.889 2.889z"/></defs></svg>