<svg width="36" height="36" viewBox="0 0 36 36" fill="none" xmlns="http://www.w3.org/2000/svg">
<g clip-path="url(#clip0_1470_25109)">
<path d="M31.8831 17.0806C32.1245 19.839 31.5424 22.607 30.2106 25.0346C28.8788 27.4622 26.857 29.4404 24.4009 30.7189C21.9448 31.9975 19.1648 32.519 16.4123 32.2175C13.6598 31.9161 11.0585 30.8052 8.93739 29.0254C6.81626 27.2455 5.27054 24.8767 4.49571 22.2184C3.72089 19.56 3.75174 16.7317 4.58438 14.0909C5.41701 11.4501 7.01403 9.11552 9.17348 7.38238C11.3329 5.64924 13.9578 4.59537 16.7162 4.35404C18.5478 4.19356 20.393 4.39547 22.1465 4.94823C23.9 5.50099 25.5275 6.39377 26.9359 7.57558C28.3443 8.75739 29.5062 10.2051 30.355 11.836C31.2039 13.4669 31.7231 15.249 31.8831 17.0806ZM13.2569 17.3842C13.8882 17.3289 14.4889 17.0878 14.9831 16.6912C15.4773 16.2946 15.8428 15.7604 16.0335 15.1561C16.2241 14.5518 16.2313 13.9045 16.0541 13.2961C15.8769 12.6877 15.5233 12.1455 15.038 11.7381C14.5527 11.3306 13.9575 11.0762 13.3276 11.007C12.6977 10.9378 12.0615 11.0569 11.4993 11.3493C10.9371 11.6417 10.4742 12.0941 10.1692 12.6496C9.86411 13.205 9.73058 13.8383 9.78546 14.4696C9.85999 15.3162 10.2674 16.0986 10.9183 16.645C11.5691 17.1915 12.4102 17.4573 13.2569 17.3842ZM13.086 15.4305C12.8407 15.452 12.5946 15.4002 12.3787 15.2818C12.1628 15.1634 11.9869 14.9836 11.8733 14.7652C11.7596 14.5468 11.7132 14.2996 11.74 14.0548C11.7668 13.8101 11.8656 13.5788 12.0238 13.3901C12.1821 13.2015 12.3928 13.0641 12.6291 12.9952C12.8655 12.9263 13.117 12.929 13.3519 13.0031C13.5867 13.0771 13.7943 13.2191 13.9484 13.4111C14.1025 13.6032 14.1962 13.8366 14.2177 14.0818C14.246 14.4107 14.1427 14.7373 13.9306 14.9901C13.7185 15.2429 13.4147 15.4013 13.086 15.4305ZM22.9464 12.0792C23.0422 11.9176 23.1046 11.7384 23.1298 11.5523C23.155 11.3661 23.1425 11.1768 23.093 10.9955C23.0435 10.8143 22.9581 10.6449 22.8418 10.4974C22.7255 10.3498 22.5807 10.2272 22.416 10.1368C22.2513 10.0464 22.0702 9.99003 21.8833 9.97107C21.6964 9.95212 21.5076 9.97095 21.3281 10.0265C21.1486 10.082 20.9822 10.173 20.8386 10.2942C20.695 10.4154 20.5773 10.5642 20.4925 10.7318L12.9544 24.4773C12.7794 24.8027 12.74 25.184 12.8448 25.5383C12.9496 25.8926 13.1902 26.1911 13.5141 26.3688C13.8381 26.5465 14.2191 26.589 14.5742 26.4871C14.9293 26.3851 15.2298 26.147 15.4101 25.8245L22.9464 12.0792ZM26.1114 22.1635C26.0562 21.5322 25.815 20.9314 25.4183 20.4372C25.0216 19.9429 24.4873 19.5774 23.8829 19.3869C23.2785 19.1963 22.6312 19.1892 22.0227 19.3666C21.4143 19.5439 20.8721 19.8977 20.4648 20.3831C20.0574 20.8686 19.8032 21.464 19.7342 22.094C19.6652 22.7239 19.7846 23.3602 20.0772 23.9223C20.3698 24.4845 20.8226 24.9472 21.3782 25.252C21.9338 25.5569 22.5673 25.6901 23.1986 25.6348C24.0449 25.5599 24.8268 25.1523 25.3728 24.5015C25.9189 23.8507 26.1845 23.0099 26.1114 22.1635ZM24.1578 22.3344C24.1793 22.5798 24.1275 22.826 24.009 23.0419C23.8905 23.2578 23.7106 23.4338 23.4921 23.5474C23.2736 23.6611 23.0262 23.7073 22.7814 23.6804C22.5366 23.6534 22.3053 23.5545 22.1167 23.396C21.9282 23.2376 21.7908 23.0268 21.7221 22.7902C21.6534 22.5537 21.6564 22.3021 21.7307 22.0673C21.805 21.8325 21.9473 21.625 22.1396 21.4711C22.3319 21.3172 22.5655 21.2237 22.8109 21.2026C23.1394 21.1748 23.4656 21.2783 23.718 21.4904C23.9705 21.7025 24.1286 22.006 24.1578 22.3344Z" fill="#8FC4F2"/>
</g>
<defs>
<clipPath id="clip0_1470_25109">
<rect width="32" height="32" fill="white" transform="translate(0.602814 3.75635) rotate(-5)"/>
</clipPath>
</defs>
</svg>
