<svg width="36" height="36" viewBox="0 0 36 36" fill="none" xmlns="http://www.w3.org/2000/svg">
<g clip-path="url(#clip0_1470_25206)">
<path d="M7.4555 27.1526L5.00333 26.9381C5.21687 24.4974 7.35291 22.6767 9.75604 22.8869L29.3244 24.5989C30.4033 24.6933 31.3155 23.8697 31.407 22.8237C31.5029 21.7279 30.6942 20.8039 29.6643 20.7138L13.9704 19.3407L14.1883 16.8502L29.9312 18.2276C32.3343 18.4378 34.1218 20.6019 33.9082 23.0426C33.6947 25.4832 31.5586 27.3039 29.1555 27.0937L9.58719 25.3817C8.50824 25.2873 7.55137 26.0568 7.4555 27.1526Z" fill="white"/>
<path d="M22.9574 32.9759L9.02909 31.7573C6.62596 31.5471 4.83853 29.3831 5.05206 26.9424L7.50424 27.1569C7.40837 28.2527 8.21707 29.1767 9.24698 29.2668L23.2244 30.4897L23.0065 32.9802L22.9574 32.9759Z" fill="white"/>
<path d="M23.001 12.1504C23.4804 6.67134 19.4543 1.8521 14.0595 1.38012C8.66473 0.908139 3.86298 4.95504 3.38362 10.4341C3.14395 13.1736 4.00937 15.7087 5.61369 17.7061L11.9187 25.2845L11.9231 25.2347L19.4483 18.8663C21.4688 17.2362 22.7613 14.8899 23.001 12.1504Z" fill="white"/>
<path d="M13.5822 6.61571L9.12872 10.3385L12.8456 14.9276L17.2991 11.2048L13.5822 6.61571Z" fill="#1E88E5"/>
<path d="M22.8447 34.2712L25.5104 32.0451L23.2805 29.2902L20.6148 31.5164L22.8447 34.2712Z" fill="white"/>
</g>
<defs>
<clipPath id="clip0_1470_25206">
<rect width="32" height="32" fill="white" transform="translate(3.76251 0.479492) rotate(5)"/>
</clipPath>
</defs>
</svg>
