<svg width="35" height="36" viewBox="0 0 35 36" fill="none" xmlns="http://www.w3.org/2000/svg">
<g clip-path="url(#clip0_1536_30371)">
<path d="M6.68158 27.3558L4.22941 27.1412C4.44294 24.7006 6.57898 22.8798 8.98211 23.09L28.5504 24.802C29.6294 24.8964 30.5416 24.0729 30.6331 23.0269C30.729 21.931 29.9203 21.007 28.8903 20.9169L13.1964 19.5439L13.4143 17.0534L29.1573 18.4307C31.5604 18.6409 33.3478 20.805 33.1343 23.2457C32.9208 25.6863 30.7847 27.5071 28.3816 27.2968L8.81327 25.5848C7.73431 25.4904 6.77745 26.26 6.68158 27.3558Z" fill="white"/>
<path d="M22.1834 33.179L8.2551 31.9605C5.85197 31.7502 4.06454 29.5862 4.27808 27.1455L6.73025 27.36C6.63438 28.4559 7.44308 29.3799 8.47299 29.47L22.4504 30.6928L22.2325 33.1833L22.1834 33.179Z" fill="white"/>
<path d="M22.227 12.3535C22.7064 6.87446 18.6803 2.05523 13.2855 1.58325C7.89071 1.11126 3.08896 5.15816 2.60961 10.6372C2.36993 13.3768 3.23535 15.9118 4.83968 17.9093L11.1447 25.4876L11.1491 25.4378L18.6743 19.0695C20.6948 17.4393 21.9873 15.0931 22.227 12.3535Z" fill="white"/>
<path d="M12.8081 6.81884L8.35461 10.5416L12.0715 15.1307L16.5249 11.4079L12.8081 6.81884Z" fill="#F04935"/>
<path d="M22.0706 34.4743L24.7363 32.2482L22.5064 29.4933L19.8407 31.7195L22.0706 34.4743Z" fill="white"/>
</g>
<defs>
<clipPath id="clip0_1536_30371">
<rect width="32" height="32" fill="white" transform="translate(2.98853 0.682617) rotate(5)"/>
</clipPath>
</defs>
</svg>
