<svg width="36" height="36" viewBox="0 0 36 36" fill="none" xmlns="http://www.w3.org/2000/svg">
<path d="M19.0438 4.55905C26.3798 5.20086 31.8062 11.6677 31.1643 19.0037C30.5225 26.3397 24.0557 31.7661 16.7197 31.1242C9.3837 30.4824 3.95734 24.0155 4.59915 16.6796C5.24097 9.34359 11.7078 3.91723 19.0438 4.55905ZM12.4525 18.7051L7.2217 18.2488C7.31284 20.6153 8.18861 22.8844 9.71106 24.6985C11.2335 26.5126 13.3162 27.7688 15.631 28.2692L16.0887 23.0385C15.0318 22.946 14.055 22.4375 13.3731 21.6248C12.6912 20.8122 12.36 19.7619 12.4525 18.7051ZM28.3092 20.0937L23.0786 19.6347C22.9861 20.6916 22.4776 21.6684 21.665 22.3503C20.8523 23.0322 19.802 23.3634 18.7452 23.2709L18.2889 28.5017C20.6552 28.4106 22.9241 27.535 24.7382 26.0128C26.5523 24.4906 27.8085 22.4083 28.3092 20.0937ZM18.8114 7.21557C16.2231 6.98917 13.6412 7.71511 11.5502 9.25715C9.45913 10.7992 8.00271 13.0513 7.45423 15.5909L12.6849 16.0486C12.7157 15.6963 12.8852 15.3707 13.1561 15.1434C13.427 14.9161 13.7771 14.8057 14.1294 14.8365L22.0989 15.5337C22.4512 15.5646 22.7768 15.7341 23.0041 16.005C23.2314 16.2758 23.3418 16.6259 23.311 16.9782L28.5417 17.4358C28.4425 14.8396 27.3993 12.3688 25.6078 10.487C23.8163 8.60531 21.3997 7.44206 18.8114 7.21557Z" fill="white"/>
</svg>
