<svg width="28" height="28" viewBox="0 0 28 28" fill="none" xmlns="http://www.w3.org/2000/svg">
<g id="Group">
<path id="Vector" d="M14.0007 25.6666C7.55715 25.6666 2.33398 20.4434 2.33398 13.9999C2.33398 7.55642 7.55715 2.33325 14.0007 2.33325C20.4442 2.33325 25.6673 7.55642 25.6673 13.9999C25.6673 20.4434 20.4442 25.6666 14.0007 25.6666ZM14.0007 23.3333C16.476 23.3333 18.85 22.3499 20.6003 20.5996C22.3507 18.8492 23.334 16.4753 23.334 13.9999C23.334 11.5246 22.3507 9.15059 20.6003 7.40026C18.85 5.64992 16.476 4.66659 14.0007 4.66659C11.5253 4.66659 9.15133 5.64992 7.40099 7.40026C5.65065 9.15059 4.66732 11.5246 4.66732 13.9999C4.66732 16.4753 5.65065 18.8492 7.40099 20.5996C9.15133 22.3499 11.5253 23.3333 14.0007 23.3333ZM12.834 8.16658H15.1673V10.4999H12.834V8.16658ZM12.834 12.8333H15.1673V19.8333H12.834V12.8333Z" fill="#151414"/>
</g>
</svg>
