<svg width="192" height="96" viewBox="0 0 192 96" fill="none" xmlns="http://www.w3.org/2000/svg">
<path d="M89.5535 75.5328C87.8817 77.5839 85.813 79.2584 83.4776 80.4505C81.2349 81.5644 78.7716 82.1343 76.2789 82.1161C71.9416 82.1161 68.3839 80.4451 65.6056 77.1032C62.8273 73.7613 61.4373 69.4231 61.4355 64.0887C61.4355 57.4049 63.3175 51.8549 67.0814 47.4389C70.8454 43.0229 75.5445 40.8157 81.1789 40.8176C83.6197 40.7759 86.0331 41.3478 88.2077 42.4831C90.2781 43.5952 92.1477 45.3115 93.8165 47.6318L94.6765 42.0429H107.314L102.685 71.9572C102.308 74.393 101.095 76.6114 99.2626 78.2131C97.4306 79.8149 95.1003 80.695 92.691 80.6951H88.9218L89.5535 75.5328ZM74.8535 62.7438C74.8535 65.2181 75.5888 67.2106 77.0593 68.7212C78.5298 70.2319 80.4764 70.9845 82.8989 70.979C85.5409 70.979 87.7406 69.9267 89.4978 67.8219C91.255 65.7171 92.1336 63.0825 92.1336 59.9181C92.1336 57.5199 91.3983 55.5745 89.9278 54.082C88.4572 52.5894 86.5381 51.8423 84.1704 51.8405C82.9045 51.8138 81.6489 52.0779 80.4959 52.6135C79.3429 53.149 78.3218 53.9424 77.5079 54.9351C75.7383 57.0037 74.8535 59.6066 74.8535 62.7438Z" fill="#E73C2A"/>
<path d="M137.498 80.6952L143.478 42.0376H156.267L155.328 48.6345C156.499 46.1874 158.07 44.3244 160.039 43.0456C162.009 41.7668 164.302 41.1328 166.919 41.1437C167.232 41.1459 167.543 41.165 167.854 41.2008C168.204 41.2388 168.751 41.323 169.499 41.4507L166.845 53.5822C165.973 53.3793 165.187 53.2262 164.488 53.123C163.82 53.0242 163.146 52.9734 162.471 52.9708C159.901 52.9708 157.875 53.7941 156.392 55.4406C154.909 57.0871 153.893 59.632 153.345 63.0754L151.858 72.8186C151.523 75.0212 150.428 77.0283 148.773 78.4773C147.118 79.9263 145.011 80.7216 142.833 80.7196L137.498 80.6952Z" fill="#E73C2A"/>
<path d="M170.059 80.6952L176.004 42.0376H189.428L184.82 71.8133C184.436 74.2894 183.202 76.5443 181.339 78.1724C179.477 79.8005 177.108 80.6951 174.659 80.6952H170.059Z" fill="#E73C2A"/>
<path d="M177.013 30.5175C177.015 28.5896 177.765 26.7416 179.097 25.3786C180.429 24.0156 182.235 23.249 184.118 23.2468C186.185 23.2468 187.905 23.9351 189.278 25.3118C189.954 25.987 190.486 26.7981 190.84 27.6941C191.194 28.5901 191.363 29.5514 191.336 30.5175C191.345 31.4902 191.164 32.4549 190.804 33.3553C190.445 34.2557 189.913 35.0737 189.241 35.7615C188.57 36.4493 187.77 36.9932 186.891 37.3612C186.011 37.7293 185.069 37.9141 184.118 37.9051C183.179 37.9192 182.246 37.7332 181.38 37.3591C180.514 36.9849 179.734 36.4306 179.088 35.7315C178.417 35.0501 177.888 34.2371 177.531 33.3412C177.174 32.4452 176.998 31.4849 177.013 30.5175Z" fill="#E73C2A"/>
<path d="M132.476 39.6929H119.222L118.869 42.0376H112.589L111.055 51.914H117.338L112.886 80.6952H118.097C120.343 80.6953 122.516 79.8742 124.224 78.3798C125.932 76.8854 127.062 74.816 127.411 72.5442L130.572 51.9167H137.341L138.875 42.0404H132.107L132.476 39.6929Z" fill="#E73C2A"/>
<path d="M133.864 30.8245H120.553L119.223 39.6928H132.473L133.864 30.8245Z" fill="#E73C2A"/>
<path d="M29.1591 8.93075C29.1445 7.79179 29.3565 6.6617 29.7823 5.60931C30.2081 4.55692 30.8387 3.60425 31.6357 2.80933C32.4108 1.98308 33.3441 1.32935 34.3772 0.888972C35.4102 0.448595 36.521 0.231043 37.6399 0.249909C40.1085 0.249909 42.1612 1.07226 43.7981 2.71695C45.435 4.36165 46.2534 6.43291 46.2534 8.93075C46.275 10.0918 46.0643 11.2452 45.6343 12.3199C45.2043 13.3945 44.564 14.3678 43.753 15.1799C42.9596 16.0101 42.0088 16.6654 40.9589 17.1055C39.909 17.5457 38.7822 17.7614 37.6479 17.7393C36.5271 17.7573 35.4149 17.5373 34.3814 17.093C33.348 16.6487 32.4157 15.9899 31.6436 15.1581C30.8412 14.3449 30.2075 13.374 29.7806 12.3039C29.3536 11.2339 29.1423 10.0865 29.1591 8.93075Z" fill="#E73C2A"/>
<path d="M7.60976 55.8074C6.5719 55.9569 5.71453 56.0791 4.93679 56.5111C4.18283 56.8654 3.53599 57.4209 3.06424 58.1194C2.5925 58.8179 2.31325 59.6336 2.25586 60.4807L5.35884 84.7001L6.10472 90.8161C6.1328 91.2099 6.20494 91.5992 6.31973 91.9762C6.41373 92.2794 6.55055 92.5668 6.72585 92.8294C7.07729 93.3587 7.56263 93.7804 8.13002 94.0493C8.73156 94.3301 9.38696 94.4693 10.048 94.4566C10.709 94.4439 11.3589 94.2797 11.9497 93.9759C12.4904 93.7128 12.9498 93.3022 13.2775 92.7894C13.6053 92.2766 13.7888 91.6813 13.8078 91.0687L11.2808 66.9091L11.0153 64.3089L13.5715 64.0372L28.3087 62.4315L31.9956 62.0538C33.0272 61.9651 34.0453 61.7545 35.0296 61.4262C36.8001 60.785 37.7504 59.7389 38.4193 57.7637C39.0271 55.9243 39.3138 53.1638 39.8128 50.7429L41.1135 43.2712L43.7174 28.3276L44.3704 24.6515C44.5559 23.6651 44.564 22.6522 44.3943 21.6628C44.3443 21.3007 44.2175 20.9541 44.0225 20.6476C43.8276 20.3411 43.5695 20.082 43.2662 19.8886C42.6397 19.4892 41.655 19.2936 40.6118 19.2691C36.24 19.2012 31.6453 21.0678 28.7546 24.6515C27.2712 26.4433 26.1991 28.5527 25.6171 30.8246C25.3485 32.0477 25.1508 33.2862 25.0252 34.5333L24.5209 38.3697L22.5089 53.2752C18.5671 54.2044 14.5749 54.7016 10.6066 55.3483L7.60976 55.8074Z" fill="#E73C2A"/>
<path d="M63.1425 21.4861H50.4625L49.061 30.5446L48.9575 31.2075L48.0178 37.0953C46.8525 44.4312 45.6474 52.0062 44.3839 59.4617C43.5876 64.1757 40.1369 67.447 35.359 68.004C32.8772 68.2947 29.7609 68.6479 18.6895 68.9685L21.665 81.9504C30.5307 81.9069 35.1254 81.0565 36.2244 80.888C47.5108 79.1545 54.7546 72.756 56.6207 62.8715C58.2133 54.4787 59.5007 45.9147 60.7748 37.4838C61.1995 34.6708 61.6286 31.8569 62.0622 29.0421C62.0834 28.9144 62.0755 28.7948 62.0887 28.6698L63.1425 21.4861Z" fill="#E73C2A"/>
</svg>
