<svg width="194" height="96" viewBox="0 0 194 96" fill="none" xmlns="http://www.w3.org/2000/svg">
<path d="M90.487 75.5328C88.7978 77.5839 86.7075 79.2584 84.3478 80.4505C82.0818 81.5644 79.5928 82.1343 77.0741 82.1161C72.6917 82.1161 69.0969 80.4451 66.2897 77.1032C63.4825 73.7613 62.078 69.4231 62.0762 64.0887C62.0762 57.4049 63.9777 51.8549 67.7809 47.4389C71.584 43.0229 76.3321 40.8157 82.0252 40.8176C84.4914 40.7759 86.93 41.3478 89.1272 42.4831C91.2192 43.5952 93.1083 45.3115 94.7944 47.6318L95.6634 42.0429H108.433L103.755 71.9572C103.374 74.393 102.148 76.6114 100.297 78.2131C98.4462 79.8149 96.0916 80.695 93.6572 80.6951H89.8487L90.487 75.5328ZM75.6339 62.7438C75.6339 65.2181 76.3768 67.2106 77.8627 68.7212C79.3485 70.2319 81.3153 70.9845 83.7631 70.979C86.4327 70.979 88.6552 69.9267 90.4307 67.8219C92.2062 65.7171 93.094 63.0825 93.094 59.9181C93.094 57.5199 92.351 55.5745 90.8652 54.082C89.3793 52.5894 87.4402 51.8423 85.0478 51.8405C83.7688 51.8138 82.5 52.0779 81.335 52.6135C80.17 53.149 79.1384 53.9424 78.3159 54.9351C76.5279 57.0037 75.6339 59.6066 75.6339 62.7438Z" fill="white"/>
<path d="M138.93 80.6952L144.972 42.0376H157.894L156.945 48.6345C158.129 46.1874 159.715 44.3244 161.706 43.0456C163.696 41.7668 166.013 41.1328 168.657 41.1437C168.973 41.1459 169.288 41.165 169.601 41.2008C169.956 41.2388 170.508 41.323 171.264 41.4507L168.582 53.5822C167.701 53.3793 166.907 53.2262 166.201 53.123C165.526 53.0242 164.844 52.9734 164.162 52.9708C161.566 52.9708 159.519 53.7941 158.02 55.4406C156.522 57.0871 155.496 59.632 154.941 63.0754L153.44 72.8186C153.1 75.0212 151.995 77.0283 150.322 78.4773C148.65 79.9263 146.521 80.7216 144.321 80.7196L138.93 80.6952Z" fill="white"/>
<path d="M171.83 80.6952L177.838 42.0376H191.401L186.745 71.8133C186.357 74.2894 185.11 76.5443 183.228 78.1724C181.347 79.8005 178.953 80.6951 176.478 80.6952H171.83Z" fill="white"/>
<path d="M178.856 30.5175C178.859 28.5896 179.617 26.7416 180.963 25.3786C182.308 24.0156 184.133 23.249 186.036 23.2468C188.125 23.2468 189.863 23.9351 191.25 25.3118C191.933 25.987 192.47 26.7981 192.828 27.6941C193.185 28.5901 193.356 29.5514 193.329 30.5175C193.338 31.4902 193.155 32.4549 192.792 33.3553C192.428 34.2557 191.892 35.0737 191.213 35.7615C190.534 36.4493 189.726 36.9932 188.837 37.3612C187.949 37.7293 186.996 37.9141 186.036 37.9051C185.087 37.9192 184.144 37.7332 183.27 37.3591C182.395 36.9849 181.606 36.4306 180.954 35.7315C180.276 35.0501 179.741 34.2371 179.38 33.3412C179.02 32.4452 178.842 31.4849 178.856 30.5175Z" fill="white"/>
<path d="M133.855 39.6929H120.464L120.107 42.0376H113.761L112.211 51.914H118.559L114.062 80.6952H119.326C121.596 80.6953 123.792 79.8742 125.517 78.3798C127.243 76.8854 128.385 74.816 128.738 72.5442L131.932 51.9167H138.771L140.321 42.0404H133.482L133.855 39.6929Z" fill="white"/>
<path d="M135.257 30.8245H121.807L120.463 39.6928H133.852L135.257 30.8245Z" fill="white"/>
<path d="M29.4619 8.93075C29.4471 7.79179 29.6613 6.6617 30.0915 5.60931C30.5217 4.55692 31.1589 3.60425 31.9642 2.80933C32.7474 1.98308 33.6904 1.32935 34.7343 0.888972C35.7781 0.448595 36.9004 0.231043 38.031 0.249909C40.5253 0.249909 42.5994 1.07226 44.2533 2.71695C45.9073 4.36165 46.7342 6.43291 46.7342 8.93075C46.756 10.0918 46.5431 11.2452 46.1086 12.3199C45.6741 13.3945 45.0273 14.3678 44.2077 15.1799C43.4061 16.0101 42.4454 16.6654 41.3846 17.1055C40.3237 17.5457 39.1852 17.7614 38.039 17.7393C36.9066 17.7573 35.7828 17.5373 34.7386 17.093C33.6943 16.6487 32.7524 15.9899 31.9723 15.1581C31.1615 14.3449 30.5212 13.374 30.0898 12.3039C29.6584 11.2339 29.4448 10.0865 29.4619 8.93075Z" fill="white"/>
<path d="M7.68897 55.8074C6.64029 55.9569 5.77399 56.0791 4.98816 56.5111C4.22634 56.8654 3.57276 57.4209 3.0961 58.1194C2.61944 58.8179 2.33729 59.6336 2.2793 60.4807L5.4146 84.7001L6.16825 90.8161C6.19663 91.2099 6.26952 91.5992 6.3855 91.9762C6.48048 92.2794 6.61873 92.5668 6.79585 92.8294C7.15095 93.3587 7.64135 93.7804 8.21465 94.0493C8.82246 94.3301 9.48468 94.4693 10.1526 94.4566C10.8205 94.4439 11.4771 94.2797 12.0741 93.976C12.6204 93.7128 13.0846 93.3022 13.4158 92.7894C13.747 92.2766 13.9323 91.6813 13.9515 91.0687L11.3982 66.9091L11.13 64.309L13.7128 64.0373L28.6035 62.4315L32.3289 62.0538C33.3712 61.9651 34.3999 61.7545 35.3944 61.4262C37.1834 60.785 38.1435 59.7389 38.8194 57.7637C39.4336 55.9243 39.7233 53.1638 40.2275 50.7429L41.5417 43.2712L44.1728 28.3276L44.8325 24.6515C45.0199 23.6651 45.0281 22.6522 44.8567 21.6628C44.8062 21.3007 44.678 20.9541 44.4811 20.6476C44.2841 20.3411 44.0233 20.082 43.7168 19.8886C43.0839 19.4892 42.0888 19.2936 41.0348 19.2691C36.6175 19.2012 31.9748 21.0678 29.0541 24.6515C27.5552 26.4433 26.4719 28.5527 25.8839 30.8246C25.6125 32.0477 25.4128 33.2862 25.2858 34.5333L24.7762 38.3697L22.7433 53.2752C18.7604 54.2044 14.7266 54.7016 10.717 55.3483L7.68897 55.8074Z" fill="white"/>
<path d="M63.8009 21.4861H50.9888L49.5727 30.5446L49.4681 31.2075L48.5186 37.0953C47.3412 44.4312 46.1236 52.0062 44.8469 59.4617C44.0423 64.1757 40.5556 67.447 35.728 68.004C33.2203 68.2947 30.0716 68.6479 18.8848 68.9685L21.8913 81.9504C30.8493 81.9069 35.492 81.0565 36.6023 80.888C48.0063 79.1545 55.3256 72.756 57.2111 62.8715C58.8203 54.4787 60.1211 45.9147 61.4085 37.4838C61.8376 34.6708 62.2712 31.8569 62.7093 29.0421C62.7307 28.9144 62.7227 28.7948 62.7361 28.6698L63.8009 21.4861Z" fill="white"/>
</svg>
