<svg width="96" height="96" viewBox="0 0 96 96" fill="none" xmlns="http://www.w3.org/2000/svg">
<g id="Jatri Icon-02 2" clip-path="url(#clip0_873_14158)">
<path id="Vector" d="M44.3059 8.84632C44.2902 7.68539 44.511 6.5334 44.955 5.4606C45.399 4.38779 46.0568 3.41664 46.8883 2.60633C47.6973 1.76487 48.6711 1.09915 49.7488 0.650718C50.8266 0.202282 51.9852 -0.0192553 53.1523 -7.3442e-05C55.7283 -7.3442e-05 57.8699 0.838326 59.5771 2.51513C61.2843 4.19193 62.1379 6.30233 62.1379 8.84632C62.1622 10.0313 61.9435 11.2086 61.4952 12.3058C61.0469 13.403 60.3786 14.3966 59.5315 15.2255C58.7023 16.0723 57.7086 16.7404 56.6115 17.1886C55.5144 17.6369 54.3372 17.8558 53.1523 17.8319C51.9823 17.8494 50.8215 17.6238 49.7432 17.1693C48.665 16.7149 47.6928 16.0416 46.8883 15.1919C46.0523 14.363 45.3925 13.3735 44.9487 12.283C44.5049 11.1925 44.2863 10.0235 44.3059 8.84632Z" fill="white"/>
<path id="Vector_2" d="M21.8407 56.6136C20.7583 56.7672 19.8631 56.904 19.0519 57.3336C18.2659 57.6949 17.5916 58.2609 17.0997 58.9724C16.6078 59.6839 16.3163 60.5147 16.2559 61.3776L19.4815 86.0568L20.2711 92.2968C20.3016 92.6984 20.3773 93.0953 20.4967 93.48C20.5938 93.7896 20.7361 94.0832 20.9191 94.3512C21.2856 94.8907 21.7927 95.3198 22.3855 95.592C23.0124 95.878 23.6954 96.02 24.3844 96.0075C25.0734 95.9951 25.7509 95.8285 26.3671 95.52C27.5671 94.8936 28.2871 93.8088 28.3015 92.556L25.6591 67.92L25.3735 65.28L28.0399 64.9968L43.4119 63.36L47.2519 62.976C48.3281 62.8859 49.3904 62.6717 50.4175 62.3376C52.2655 61.6848 53.2567 60.6168 53.9551 58.6056C54.5863 56.7288 54.8863 53.916 55.4095 51.4488L56.7655 43.836L59.4799 28.608L60.1615 24.8616C60.3546 23.8555 60.3636 22.8228 60.1879 21.8136C60.1333 21.4453 59.9989 21.0934 59.7941 20.7825C59.5893 20.4716 59.319 20.2092 59.0023 20.0136C58.3519 19.608 57.3223 19.4088 56.2279 19.3848C51.6679 19.3128 46.8679 21.216 43.8631 24.8688C42.3156 26.6947 41.197 28.8441 40.5895 31.1592C40.3098 32.4053 40.103 33.6666 39.9703 34.9368L39.4471 38.8464L37.3471 54.036C33.2359 54.996 29.0719 55.4904 24.9319 56.148L21.8407 56.6136Z" fill="white"/>
<path id="Vector_3" d="M79.7547 21.6409H66.5283L65.0667 30.8713L64.9563 31.5457L63.9771 37.5457C62.7651 45.0145 61.5075 52.7401 60.1875 60.3457C59.3547 65.1457 55.7475 68.4841 50.7747 69.0505C48.1851 69.3457 44.9355 69.7081 33.3867 70.0321L36.4803 83.2537C45.7275 83.2105 50.5203 82.3441 51.6675 82.1737C63.4419 80.4049 70.9971 73.8841 72.9411 63.8113C74.5947 55.2601 75.9459 46.5313 77.2755 37.9417C77.7171 35.0761 78.1587 32.2081 78.6195 29.3377C78.6387 29.2105 78.6315 29.0977 78.6459 28.9609L79.7547 21.6409Z" fill="white"/>
</g>
<defs>
<clipPath id="clip0_873_14158">
<rect width="96" height="96" fill="white"/>
</clipPath>
</defs>
</svg>
