<svg width="35" height="44" viewBox="0 0 35 44" fill="none" xmlns="http://www.w3.org/2000/svg">
<g filter="url(#filter0_d_873_12258)">
<path d="M30.7626 19.5056C30.7291 19.3772 30.6612 19.2605 30.5663 19.1679C30.4713 19.0753 30.3529 19.0104 30.2238 18.9802L19.612 16.5621L27.8407 5.54997C27.913 5.45515 27.9602 5.34358 27.9777 5.22563C27.9953 5.10768 27.9828 4.9872 27.9413 4.87542C27.9024 4.76281 27.8359 4.66176 27.7479 4.58153C27.6599 4.5013 27.5531 4.44445 27.4375 4.4162L13.8479 1.00359C13.6803 0.959561 13.5024 0.977727 13.3471 1.05472C13.1919 1.13172 13.0696 1.26234 13.0031 1.42245L4.37216 21.8441C4.33555 21.9372 4.31895 22.037 4.32348 22.137C4.32801 22.237 4.35355 22.3348 4.39844 22.4243C4.44472 22.5195 4.51149 22.6032 4.59395 22.6696C4.67641 22.7359 4.7725 22.7831 4.87537 22.8079L14.5067 25.2265L7.9746 38.5002C7.92517 38.5969 7.89829 38.7035 7.89601 38.8121C7.89373 38.9206 7.91607 39.0282 7.96139 39.1269C8.00672 39.2255 8.07385 39.3126 8.15768 39.3815C8.24151 39.4504 8.33985 39.4994 8.44536 39.5247C8.56009 39.554 8.68028 39.5545 8.7953 39.5264C8.91032 39.4983 9.01666 39.4423 9.10502 39.3634L30.5433 20.1962C30.6378 20.1109 30.7079 20.002 30.7465 19.8806C30.785 19.7592 30.7906 19.6298 30.7626 19.5056Z" fill="#FFB728"/>
<path d="M18.9336 16.8117L19.2963 16.3262L27.525 5.31408L27.5273 5.31101C27.5593 5.26904 27.5802 5.21966 27.588 5.1675C27.5957 5.11533 27.5902 5.06202 27.5718 5.01255L27.5687 5.00402L27.5688 5.00398C27.5514 4.95371 27.5217 4.9086 27.4824 4.87279C27.4432 4.83698 27.3955 4.81163 27.344 4.79904L27.3415 4.79843L13.7519 1.38582L13.7477 1.38477L13.7477 1.38475C13.6723 1.36493 13.5922 1.37309 13.5222 1.40779C13.4522 1.4425 13.3971 1.50141 13.3671 1.57363L13.3661 1.57587L13.3661 1.57587L4.73749 21.992C4.72212 22.0325 4.7152 22.0758 4.71717 22.1192C4.71919 22.1638 4.7306 22.2075 4.75065 22.2475L4.75288 22.2519L4.75285 22.2519C4.77371 22.2949 4.8038 22.3326 4.84095 22.3625C4.87811 22.3924 4.92139 22.4136 4.96767 22.4248L4.97136 22.4257L14.6027 24.8443L15.0756 24.9631L14.8603 25.4005L8.32819 38.6742L8.32551 38.6797L8.32547 38.6796C8.30317 38.7233 8.29104 38.7714 8.29001 38.8203C8.28898 38.8694 8.29907 38.9179 8.31949 38.9623C8.3399 39.0068 8.37015 39.046 8.40795 39.0771C8.44572 39.1081 8.48999 39.1302 8.53747 39.1416L8.54262 39.1428C8.59475 39.1561 8.64939 39.1564 8.70169 39.1436C8.75393 39.1308 8.80229 39.1054 8.84252 39.0695L18.9336 16.8117ZM18.9336 16.8117L19.5245 16.9463M18.9336 16.8117L19.5245 16.9463M19.5245 16.9463L30.1341 19.364L19.5245 16.9463Z" stroke="#151414" stroke-width="0.788179"/>
</g>
<defs>
<filter id="filter0_d_873_12258" x="4.32275" y="0.97998" width="27.6961" height="41.1003" filterUnits="userSpaceOnUse" color-interpolation-filters="sRGB">
<feFlood flood-opacity="0" result="BackgroundImageFix"/>
<feColorMatrix in="SourceAlpha" type="matrix" values="0 0 0 0 0 0 0 0 0 0 0 0 0 0 0 0 0 0 127 0" result="hardAlpha"/>
<feOffset dx="1.23857" dy="2.53343"/>
<feComposite in2="hardAlpha" operator="out"/>
<feColorMatrix type="matrix" values="0 0 0 0 0.0823529 0 0 0 0 0.0784314 0 0 0 0 0.0784314 0 0 0 1 0"/>
<feBlend mode="normal" in2="BackgroundImageFix" result="effect1_dropShadow_873_12258"/>
<feBlend mode="normal" in="SourceGraphic" in2="effect1_dropShadow_873_12258" result="shape"/>
</filter>
</defs>
</svg>
