<svg width="35" height="35" viewBox="0 0 35 35" fill="none" xmlns="http://www.w3.org/2000/svg">
<g clip-path="url(#clip0_1470_25214)">
<path d="M17.2109 20.2537L16.2812 30.8798L5.65516 29.9501C5.90172 27.1319 7.25771 24.527 9.42484 22.7086C11.592 20.8902 14.3927 20.0071 17.2109 20.2537ZM17.3271 18.9254C12.9239 18.5402 9.66956 14.6618 10.0548 10.2586C10.44 5.85543 14.3184 2.60107 18.7216 2.9863C23.1248 3.37153 26.3791 7.24992 25.9939 11.6531C25.6087 16.0563 21.7303 19.3106 17.3271 18.9254ZM28.8166 25.2843L30.1449 25.4005L29.5638 32.0418L18.9378 31.1122L19.5188 24.4709L20.8471 24.5871L20.9633 23.2588C21.0557 22.202 21.5642 21.2252 22.3769 20.5433C23.1896 19.8614 24.2398 19.5302 25.2967 19.6227C26.3535 19.7151 27.3303 20.2236 28.0122 21.0363C28.6941 21.849 29.0253 22.8992 28.9328 23.9561L28.8166 25.2843ZM26.1601 25.0519L26.2763 23.7236C26.3071 23.3714 26.1967 23.0213 25.9694 22.7504C25.7421 22.4795 25.4165 22.31 25.0642 22.2792C24.712 22.2484 24.3619 22.3587 24.091 22.586C23.8201 22.8134 23.6506 23.139 23.6198 23.4912L23.5036 24.8195L26.1601 25.0519Z" fill="white"/>
</g>
<defs>
<clipPath id="clip0_1470_25214">
<rect width="32" height="32" fill="white" transform="translate(2.89868 0.263672) rotate(5)"/>
</clipPath>
</defs>
</svg>
