<svg xmlns="http://www.w3.org/2000/svg" xmlns:xlink="http://www.w3.org/1999/xlink" width="1440" height="740" fill="none" xmlns:v="https://vecta.io/nano"><style><![CDATA[.B{fill:#fff}.C{fill:#fde5e2}.D{fill:#fcd7d3}.E{fill:#151414}.F{fill:#233862}.G{fill:#2b478b}.H{fill:#d9935c}.I{opacity:.4}.J{fill:#d86713}.K{fill:#f1a34f}.L{stroke:#fde5e2}.M{fill:#aa413e}.N{fill:#b64c41}.O{fill:#466aa5}.P{fill:#fef2f0}.Q{fill-rule:evenodd}.R{stroke-width:2}.S{stroke-miterlimit:10}.T{fill:#a05f32}.U{fill:#9ed9f0}.V{fill:#cb8757}.W{fill:#cb7d45}.X{fill:#3f9ae9}.Y{fill:#ab7041}.Z{stroke-linejoin:round}]]></style><g clip-path="url(#A)"><path d="M1440-40H0v780h1440V-40z" class="P"/><g class="D"><path d="M158.065 297.5h-7.033c-.67 0-1.005 0-1.674.335a10.49 10.49 0 0 0-10.382-9.045h-9.711c-4.689 0-8.707 3.35-10.047 7.705h-.67-5.693c-3.348 0-6.028 2.68-6.028 6.03 0 .67 0 1.34.335 2.01H95.776c-2.344 0-4.019 1.675-4.019 4.02s1.674 4.02 4.019 4.02h54.921 3.349 4.354c4.018 0 7.367-3.35 7.367-7.37-.335-4.355-3.684-7.705-7.702-7.705z" class="I"/><path d="M99.795 336.695h-8.037c.335-.67.335-1.675.335-2.345 0-3.35-2.679-6.03-6.028-6.03h-5.693-1.005c-1.674-3.685-5.023-6.03-9.377-6.03h-9.712c-5.693 0-10.046 4.69-10.046 10.05 0 1.675.335 3.015 1.005 4.355h-7.367a3.72 3.72 0 0 0-3.684 3.685v.67a3.72 3.72 0 0 0 3.684 3.685H99.46a3.72 3.72 0 0 0 3.684-3.685v-.67c.335-1.675-1.34-3.685-3.349-3.685z"/><path d="M170.455 205.71h-7.032c-.67 0-1.005 0-1.675.335A10.49 10.49 0 0 0 151.367 197h-9.712c-4.688 0-8.707 3.35-10.046 7.705h-.67-5.693c-3.349 0-6.028 2.68-6.028 6.03 0 .67 0 1.34.335 2.01h-11.386c-2.344 0-4.019 1.675-4.019 4.02s1.675 4.02 4.019 4.02h54.921 2.679 4.353c4.019 0 7.368-3.35 7.368-7.37s-3.014-7.705-7.033-7.705z" class="I"/><path d="M244.465 237.87h-18.754c.335-1.005.67-2.01.67-3.35 0-5.025-4.019-9.38-9.377-9.38h-6.363c-2.009-6.7-8.037-11.39-15.069-11.39h-15.07c-7.033 0-13.395 5.025-15.07 11.39h-1.005-8.707c-5.023 0-9.376 4.02-9.376 9.38 0 1.005.335 2.345.669 3.35h-17.079c-3.348 0-6.028 2.68-6.028 6.03s2.68 6.03 6.028 6.03h27.126 60.614 26.791c3.348 0 6.028-2.68 6.028-6.03s-2.68-6.03-6.028-6.03z"/><path d="M1287.29 237.87h-20.09c.33-1.005.67-2.345.67-3.35 0-5.36-4.36-9.715-9.71-9.715h-7.04c-2.01-7.035-8.37-12.06-16.07-12.06h-15.74c-7.7 0-14.06 5.025-16.07 12.06h-1.01-9.38c-5.35 0-9.71 4.355-9.71 9.715 0 1.34.34 2.345.67 3.35h-18.42c-3.68 0-6.36 3.015-6.36 6.365s3.02 6.365 6.36 6.365h28.8 64.3 28.8c3.69 0 6.36-3.015 6.36-6.365s-2.67-6.365-6.36-6.365zM483.572 355.79h-7.368c-.67 0-1.004 0-1.674.335-.67-5.36-5.358-9.715-11.051-9.715h-10.382c-5.023 0-9.376 3.35-10.716 8.04h-.67-6.028c-3.683 0-6.363 3.015-6.363 6.365 0 .67.001 1.675.335 2.345H417.6c-2.345 0-4.354 2.01-4.354 4.355s2.009 4.355 4.354 4.355h58.604 2.679 4.689c4.353 0 7.702-3.35 7.702-7.705.335-5.025-3.349-8.375-7.702-8.375z" class="I"/><path d="M1382.4 224.135h-7.37c-.67 0-1 0-1.67.335-.67-5.36-5.36-9.715-11.05-9.715h-10.38c-5.03 0-9.38 3.35-10.72 8.04h-.67-6.03c-3.68 0-6.36 3.015-6.36 6.365 0 .67 0 1.675.33 2.345h-12.05c-2.35 0-4.36 2.01-4.36 4.355s2.01 4.355 4.36 4.355h58.6 2.68 4.69c4.35 0 7.7-3.35 7.7-7.705 0-5.025-3.35-8.375-7.7-8.375zm-59.94 35.175h-8.38c.34-.67.34-1.675.34-2.345 0-3.685-3.01-6.365-6.36-6.365h-6.03-1.01c-1.67-3.685-5.35-6.7-10.04-6.7h-10.05c-6.03 0-10.72 4.69-10.72 10.72 0 1.675.34 3.35 1.01 4.69h-7.7c-2.35 0-4.02 1.675-4.02 4.02v.67c0 2.345 1.67 4.02 4.02 4.02h58.94c2.34 0 4.01-1.675 4.01-4.02v-.67c.34-2.345-1.67-4.02-4.01-4.02z"/></g><g class="C"><path d="M285.15 475.91h-59.41-3.15v9.63h1.97v5.31h1.18v177.84h59.41V490.85h1.19v-5.31h1.97v-9.63h-3.16zM25.08 445.62V439h-.73v-2.88h6.35v-12.38l3.06 4.22v8.16h6.35V439h-.73v12.32l21.69 8.64v208.73H4.09V437.25l20.99 8.37zm339.931 38.93h-8.68v-18.61h2.25v-5.05h-15.1V447.1h.98v-3.94h-.98-5.42v-4.03h-7.41v-31.79l-1.82 3.36v28.43h-7.41v4.03h-5.42-.98v3.94h.98v13.79h-15.11v5.05h2.25v18.61h-8.68v5.06h1.84v179.08h7.71 8.24 2.39 8.39 2.39 8.38 2.39 8.39 2.39 8.5 7.7V489.61h1.84v-5.06zm-183.849-21.989l-32.31 12.1v1.95 5.38h1.93v4.04h1.17v182.66h58.42v-182.66h1.16v-4.04h1.93v-5.38-1.95l-32.3-12.1zm-38.701 20.148v-5.87h-7.21v-22.53h2.21v-5.87h-6.19v-6.56h-28.62v-22.01h-2.789v22.01h-6.26v-22.01h-2.78v22.01h-8.36v6.56h-6.18v5.87h2.21v22.53h-7.22v5.87h3.42v41.1h-3.42v5.87h3.42v38.52h-3.42v5.87h3.42v41.1h-3.42v5.87h3.42v47.65h64.349v-47.65h3.42v-5.87h-3.42v-41.1h3.42v-5.87h-3.42v-38.52h3.42v-5.87h-3.42v-41.1h3.42zm516.14-6.799h-59.41-3.16v9.63h1.97v5.31h1.19v177.84h59.41V490.85h1.19v-5.31h1.96v-9.63h-3.15zm-260.07-30.29V439h-.73v-2.88h6.35v-12.38l3.06 4.22v8.16h6.35V439h-.73v12.32l21.69 8.64v208.73h-56.98V437.25l20.99 8.37zm338.049 53.2v-14.27h-6.8v-18.61h2.25v-5.05h-15.11V447.1h.98v-3.94h-6.39v-4.03h-7.42v-31.79l-1.82 3.36v28.43h-7.41v4.03h-6.39v3.94h.97v13.79h-15.1v5.05h2.25v18.61h-8.68v5.06h1.84v179.08h66.87V498.82h-.04zm-181.979-36.259l-32.3 12.1v1.95 5.38h1.93v4.04h1.17v182.66h58.41v-182.66h1.17v-4.04h1.93v-5.38-1.95l-32.31-12.1zm-38.69 20.148v-5.87h-7.22v-22.53h2.21v-5.87h-6.18v-6.56h-28.62v-22.01h-2.79v22.01h-6.26v-22.01h-2.78v22.01h-8.36v6.56h-6.18v5.87h2.2v22.53h-7.21v5.87h3.42v41.1h-3.42v5.87h3.42v38.52h-3.42v5.87h3.42v41.1h-3.42v5.87h3.42v47.65h64.35v-47.65h3.42v-5.87h-3.42v-41.1h3.42v-5.87h-3.42v-38.52h3.42v-5.87h-3.42v-41.1h3.42z"/></g><g class="D"><path d="M139.021 477.699h-68.55v190.85h68.55v-190.85z"/><path d="M122.611 463.039h-35.72v17.91h35.72v-17.91z"/></g><g class="C"><path d="M92.92 463.039h-1.35v17.91h1.35v-17.91zm8.34 0h-1.35v17.91h1.35v-17.91zm8.34 0h-1.35v17.91h1.35v-17.91zm8.34 0h-1.35v17.91h1.35v-17.91z"/><path d="M140.34 477.699H69.17v6.5h71.17v-6.5zm0 45.35H69.17v6.5h71.17v-6.5zm0 45.351H69.17v6.5h71.17v-6.5zm0 45.35H69.17v6.5h71.17v-6.5zm-14.209-153.02h-42.77v6.5h42.77v-6.5z"/><use xlink:href="#B"/><path d="M95.881 490.139h-5.93v28.27h5.93v-28.27zm12.51 0h-5.93v28.27h5.93v-28.27zm12.51 0h-5.93v28.27h5.93v-28.27zm12.51 0h-5.93v28.27h5.93v-28.27zM83.36 535.08h-5.93v28.27h5.93v-28.27zm12.521 0h-5.93v28.27h5.93v-28.27zm12.51 0h-5.93v28.27h5.93v-28.27zm12.51 0h-5.93v28.27h5.93v-28.27zm12.51 0h-5.93v28.27h5.93v-28.27zM83.36 580.01h-5.93v28.27h5.93v-28.27zm12.521 0h-5.93v28.27h5.93v-28.27zm12.51 0h-5.93v28.27h5.93v-28.27zm12.51 0h-5.93v28.27h5.93v-28.27zm12.51 0h-5.93v28.27h5.93v-28.27zM83.36 625.949h-5.93v28.27h5.93v-28.27zm12.521 0h-5.93v28.27h5.93v-28.27zm12.51 0h-5.93v28.27h5.93v-28.27zm12.51 0h-5.93v28.27h5.93v-28.27zm12.51 0h-5.93v28.27h5.93v-28.27z"/></g><path d="M57.031 488.18v-5.69h-7v-21.85h2.14v-5.69h-6v-6.36h-27.75v-21.34h-2.7v21.34h-6.08v-21.34h-2.7v21.34h-8.1v6.36h-6v5.69h2.14v21.85h-7v5.69h3.32v39.86h-3.32v5.69h3.32v37.36h-3.32v5.69h3.32v39.86h-3.32v5.69h3.32v46.22h62.41v-46.22h3.32v-5.69h-3.32v-39.86h3.32v-5.69h-3.32v-37.36h3.32v-5.69h-3.32v-39.86h3.32z" class="D"/><g class="C"><path d="M57.03 482.49h-69.04v6.94h69.04v-6.94zm0 44.469h-69.04v6.94h69.04v-6.94zm0 43.461h-69.04v6.94h69.04v-6.94zm0-115.34h-69.04v6.94h69.04v-6.94zm0 160.809h-69.04v6.94h69.04v-6.94zm-42.56-149.36H2.16v12.31h12.31v-12.31z"/><use xlink:href="#C"/><path d="M42.851 466.529h-12.31v12.31h12.31v-12.31zm-35.09 27.68h-12.31v12.31h12.31v-12.31z"/><use xlink:href="#D"/><use xlink:href="#E"/><path d="M50.332 494.209h-12.31v12.31h12.31v-12.31zm-42.571 15.83h-12.31v12.31h12.31v-12.31zm14.19 0H9.641v12.31h12.31v-12.31zm14.189 0H23.83v12.31h12.31v-12.31zm14.192 0h-12.31v12.31h12.31v-12.31zm-42.571 27.16h-12.31v12.31h12.31v-12.31zm14.19 0H9.641v12.31h12.31v-12.31zm14.189 0H23.83v12.31h12.31v-12.31zm14.192 0h-12.31v12.31h12.31v-12.31zm-42.571 15.83h-12.31v12.31h12.31v-12.31zm14.19 0H9.641v12.31h12.31v-12.31zm14.189 0H23.83v12.31h12.31v-12.31zm14.192 0h-12.31v12.31h12.31v-12.31zm-42.571 28.34h-12.31v12.31h12.31v-12.31zm14.19 0H9.641v12.31h12.31v-12.31zm14.189 0H23.83v12.31h12.31v-12.31zm14.192 0h-12.31v12.31h12.31v-12.31zm-42.571 15.83h-12.31v12.31h12.31v-12.31zm14.19 0H9.641v12.31h12.31v-12.31zm14.189 0H23.83v12.31h12.31v-12.31zm14.192 0h-12.31v12.31h12.31v-12.31zM7.761 627.6h-12.31v12.31h12.31V627.6zm14.19 0H9.641v12.31h12.31V627.6zm14.189 0H23.83v12.31h12.31V627.6zm14.192 0h-12.31v12.31h12.31V627.6z"/></g><g class="B"><path d="M7.761 643.43h-12.31v12.31h12.31v-12.31zm14.19 0H9.641v12.31h12.31v-12.31zm14.189 0H23.83v12.31h12.31v-12.31zm14.192 0h-12.31v12.31h12.31v-12.31z"/></g><g class="D"><path d="M227.98 478.8H157l9.17-15.07h52.64l9.17 15.07z"/><path d="M221.961 478.799h-59.16v75.57h59.16v-75.57z"/></g><g class="C"><use xlink:href="#F"/><path d="M196.991 487.119h-9.22v18.89h9.22v-18.89zm14.62 0h-9.22v18.89h9.22v-18.89zM182.37 509.84h-9.22v18.89h9.22v-18.89zm14.621 0h-9.22v18.89h9.22v-18.89zm0 23.849h-9.22v18.89h9.22v-18.89zm14.62-23.849h-9.22v18.89h9.22v-18.89zm-29.241 23.73h-9.22v18.89h9.22v-18.89zm29.241 0h-9.22v18.89h9.22v-18.89z"/></g><g class="D"><path d="M239.991 568.97h-94.47l12.21-20.06h70.05l12.21 20.06z"/><path d="M231.97 568.969h-78.73v100.58h78.73v-100.58z"/></g><g class="C"><use xlink:href="#G"/><path d="M198.741 580.039h-12.27v25.15h12.27v-25.15zm19.449 0h-12.27v25.15h12.27v-25.15zm-38.91 30.24h-12.27v25.15h12.27v-25.15zm19.461 0h-12.27v25.15h12.27v-25.15zm19.449 0h-12.27v25.15h12.27v-25.15z"/></g><g stroke="#fff" class="B Z"><path d="M179.28 641.86h-12.27v25.15h12.27v-25.15zm38.91 0h-12.27v25.15h12.27v-25.15z"/></g><path d="M200.471 669.549v-24.25c0-3.3-3.52-6-7.87-6s-7.87 2.69-7.87 6v24.25h15.74z" fill="#3c3c3b"/><path d="M197.36 654.33c0 .234-.069.462-.199.656a1.19 1.19 0 0 1-1.211.502c-.229-.046-.439-.158-.604-.323s-.278-.375-.323-.604a1.18 1.18 0 0 1 .501-1.212 1.19 1.19 0 0 1 .656-.199 1.18 1.18 0 0 1 .834.346c.222.221.346.521.346.834z" class="B"/><path d="M209.981 455.709h-3.67v8.01h3.67v-8.01z" class="C"/><path d="M447.71 558.049H247.42v111.49h200.29v-111.49z" class="D"/><path d="M447.71 548.309H247.42v9.74h200.29v-9.74z" class="P"/><path d="M384.391 517.26h-73.66v152.28h73.66V517.26z" class="D"/><path d="M384.391 517.26h-73.66v12.18h73.66v-12.18z" class="P"/><g class="C"><use xlink:href="#H"/><path d="M285.431 570.75h-13.4v13.39h13.4v-13.39zm17.41 0h-13.4v13.39h13.4v-13.39z"/><use xlink:href="#I"/><path d="M285.431 588.929h-13.4v13.4h13.4v-13.4zm17.41 0h-13.4v13.4h13.4v-13.4zm-34.63 18.171h-13.4v13.4h13.4v-13.4z"/><use xlink:href="#J"/><path d="M303.021 607.1h-13.39v13.4h13.39v-13.4zm-34.81 18.179h-13.4v13.4h13.4v-13.4zm17.4 0h-13.39v13.4h13.39v-13.4zm17.41 0h-13.39v13.4h13.39v-13.4z"/></g><g class="B"><path d="M268.211 643.459h-13.4v13.4h13.4v-13.4zm17.4 0h-13.39v13.4h13.39v-13.4zm17.41 0h-13.39v13.4h13.39v-13.4z"/></g><g class="C"><use xlink:href="#K"/><path d="M354.171 534.77h-13.4v18.99h13.4v-18.99zm17.409 0h-13.4v18.99h13.4v-18.99zm-34.819 25.769h-13.4v18.99h13.4v-18.99zm17.41 0h-13.4v18.99h13.4v-18.99zm17.409 0h-13.4v18.99h13.4v-18.99zm-34.629 25.77h-13.4v18.99h13.4v-18.99zm17.41 0h-13.4v18.99h13.4v-18.99zm17.41 0h-13.4v18.99h13.4v-18.99zm-34.82 25.781h-13.4v18.99h13.4v-18.99zm17.41 0h-13.4v18.99h13.4v-18.99zm17.41 0h-13.4v18.99h13.4v-18.99zm-34.82 25.77h-13.4v18.99h13.4v-18.99zm17.41 0h-13.4v18.99h13.4v-18.99zm17.41 0h-13.4v18.99h13.4v-18.99zm32.09-67.11h-13.4v13.39h13.4v-13.39zm17.41 0h-13.4v13.39h13.4v-13.39zm17.41 0h-13.4v13.39h13.4v-13.39zm-34.82 18.179h-13.4v13.4h13.4v-13.4zm17.41 0h-13.4v13.4h13.4v-13.4zm17.41 0h-13.4v13.4h13.4v-13.4zM404.04 607.1h-13.39v13.4h13.39v-13.4zm17.411 0h-13.39v13.4h13.39v-13.4zm17.41 0h-13.39v13.4h13.39v-13.4zm-34.821 18.179h-13.39v13.4h13.39v-13.4zm17.411 0h-13.39v13.4h13.39v-13.4zm17.41 0h-13.39v13.4h13.39v-13.4z"/></g><g class="B"><path d="M404.04 643.459h-13.39v13.4h13.39v-13.4zm17.411 0h-13.39v13.4h13.39v-13.4zm17.41 0h-13.39v13.4h13.39v-13.4z"/></g><g fill="#1e3050"><path d="M447.71 666.73H247.42v2.82h200.29v-2.82z"/><path d="M384.391 666.73h-73.66v2.82h73.66v-2.82z"/></g><path d="M461.731 668.55h59.29V458.27l-59.29 18.32v191.96z" class="D"/><g class="C"><use xlink:href="#L"/><path d="M511.611 494.18h-40.41v3.86h40.41v-3.86zm0 9.89h-40.41v3.86h40.41v-3.86zm0 9.879h-40.41v3.86h40.41v-3.86zm0 9.891h-40.41v3.86h40.41v-3.86zm0 9.89h-40.41v3.86h40.41v-3.86zm0 9.88h-40.41v3.86h40.41v-3.86zm0 9.89h-40.41v3.86h40.41v-3.86zm0 9.889h-40.41v3.86h40.41v-3.86zm0 9.881h-40.41v3.86h40.41v-3.86zm0 9.89h-40.41v3.86h40.41v-3.86zm0 9.889h-40.41v3.86h40.41v-3.86zm0 9.88h-40.41v3.86h40.41v-3.86zm0 9.891h-40.41v3.86h40.41v-3.86zm0 9.889h-40.41v3.86h40.41v-3.86zm0 9.881h-40.41v3.86h40.41v-3.86z"/></g><g class="B"><path d="M511.611 642.48h-40.41v3.86h40.41v-3.86zm0 9.889h-40.41v3.86h40.41v-3.86zm0 9.881h-40.41v3.86h40.41v-3.86z"/></g><path d="M603.822 495.869h-71.47v168.07h71.47v-168.07z" class="C"/><path d="M530.461 494.449v174.1h75.25v-174.1h-75.25zm72.36 166h-68.37v-5.25h68.37v5.25zm0-9.23h-68.37v-5.25h68.37v5.25zm0-9.22h-68.37v-5.25h68.37v5.25zm0-9.23h-68.37v-5.25h68.37v5.25zm0-9.23h-68.37v-5.24h68.37v5.24zm0-9.22h-68.37v-5.32h68.37v5.32zm0-9.22h-68.37v-5.25h68.37v5.25zm0-9.23h-68.37v-5.25h68.37v5.25zm0-9.23h-68.37v-5.24h68.37v5.24zm0-9.22h-68.37v-5.25h68.37v5.25zm0-9.22h-68.37v-5.25h68.37v5.25zm0-9.23h-68.37v-5.24h68.37v5.24zm0-9.23h-68.37v-5.24h68.37v5.24zm0-9.22h-68.37v-5.24h68.37v5.24zm0-9.22h-68.37v-5.3h68.37v5.3zm0-9.23h-68.37v-5.24h68.37v5.24zm0-9.22h-68.37v-5.25h68.37v5.25zm0-9.23h-68.37v-5.25h68.37v5.25z" class="D"/><path d="M714.291 477.719h-93.34v166.27h93.34v-166.27z" class="C"/><path d="M615.17 473v196.55H718.7V473H615.17zm18.22 165.39h-9.59v-9.59h9.59v9.59zm0-14.86h-9.59V614h9.59v9.53zm0-14.85h-9.59v-9.59h9.59v9.59zm0-14.87h-9.59v-9.58h9.59v9.58zm0-14.85h-9.59v-9.59h9.59v9.59zm0-14.86h-9.59v-9.59h9.59v9.59zm0-14.87h-9.59v-9.58h9.59v9.58zm0-14.86h-9.59v-9.58h9.59v9.58zm0-14.85h-9.59v-9.59h9.59v9.59zm0-14.86h-9.59v-9.59h9.59v9.59zm0-14.86h-9.59v-9.59h9.59v9.59zm15.33 148.59h-9.58v-9.59h9.58v9.59zm0-14.86h-9.58V614h9.58v9.53zm0-14.85h-9.58v-9.59h9.58v9.59zm0-14.87h-9.58v-9.58h9.58v9.58zm0-14.85h-9.58v-9.59h9.58v9.59zm0-14.86h-9.58v-9.59h9.58v9.59zm0-14.87h-9.58v-9.58h9.58v9.58zm0-14.86h-9.58v-9.58h9.58v9.58zm0-14.85h-9.58v-9.59h9.58v9.59zm0-14.86h-9.58v-9.59h9.58v9.59zm0-14.86h-9.58v-9.59h9.58v9.59zm15.34 148.59h-9.59v-9.59h9.59v9.59zm0-14.86h-9.59V614h9.59v9.53zm0-14.85h-9.59v-9.59h9.59v9.59zm0-14.87h-9.59v-9.58h9.59v9.58zm0-14.85h-9.59v-9.59h9.59v9.59zm0-14.86h-9.59v-9.59h9.59v9.59zm0-14.87h-9.59v-9.58h9.59v9.58zm0-14.86h-9.59v-9.58h9.59v9.58zm0-14.85h-9.59v-9.59h9.59v9.59zm0-14.86h-9.59v-9.59h9.59v9.59zm0-14.86h-9.59v-9.59h9.59v9.59zm15.34 148.59h-9.59v-9.59h9.59v9.59zm0-14.86h-9.59V614h9.59v9.53zm0-14.85h-9.59v-9.59h9.59v9.59zm0-14.87h-9.59v-9.58h9.59v9.58zm0-14.85h-9.59v-9.59h9.59v9.59zm0-14.86h-9.59v-9.59h9.59v9.59zm0-14.87h-9.59v-9.58h9.59v9.58zm0-14.86h-9.59v-9.58h9.59v9.58zm0-14.85h-9.59v-9.59h9.59v9.59zm0-14.86h-9.59v-9.59h9.59v9.59zm0-14.86h-9.59v-9.59h9.59v9.59zm15.34 148.59h-9.59v-9.59h9.59v9.59zm0-14.86h-9.59V614h9.59v9.53zm0-14.85h-9.59v-9.59h9.59v9.59zm0-14.87h-9.59v-9.58h9.59v9.58zm0-14.85h-9.59v-9.59h9.59v9.59zm0-14.86h-9.59v-9.59h9.59v9.59zm0-14.87h-9.59v-9.58h9.59v9.58zm0-14.86h-9.59v-9.58h9.59v9.58zm0-14.85h-9.59v-9.59h9.59v9.59zm0-14.86h-9.59v-9.59h9.59v9.59zm0-14.86h-9.59v-9.59h9.59v9.59zm15.34 148.59h-9.59v-9.59h9.59v9.59zm0-14.86h-9.59V614h9.59v9.53zm0-14.85h-9.59v-9.59h9.59v9.59zm0-14.87h-9.59v-9.58h9.59v9.58zm0-14.85h-9.59v-9.59h9.59v9.59zm0-14.86h-9.59v-9.59h9.59v9.59zm0-14.87h-9.59v-9.58h9.59v9.58zm0-14.86h-9.59v-9.58h9.59v9.58zm0-14.85h-9.59v-9.59h9.59v9.59zm0-14.86h-9.59v-9.59h9.59v9.59zm0-14.86h-9.59v-9.59h9.59v9.59z" class="D"/><g class="I"><g class="B"><path d="M142.391 689c.159-.104.289-.245.379-.412a1.13 1.13 0 0 0-.379-1.498c-1.36 0-1.87.7-2.67 1.14 1.65-.23.65 1.35 2.67.77zm52.411-19.071c1.084.163 2.193.032 3.21-.38.37-1.43-4.05-.93-3.21.38z"/></g><path d="M92.672 511.08c1.24-.56-1.05-1.21 1.06-1.14 1.11.1.51 1.42 1.61 1.52-.57-1.42 2-.6 1.61-1.9-2.71 0-3.35-3-6.42-1.53-.2 1.67.97 2.36 2.14 3.05z" class="C"/><g class="B"><path d="M710.801 390.419c-2.82-.1-3.35 1.42-3.74 3 2.26.79 4.36-.56 3.74-3zm-205.329 219.94c-1.77-.65-2.33.23-3.21 1.15 1.13 1.14 3.5.74 3.21-1.15zm-17.651 14.902a2.3 2.3 0 0 0 1.492-1.169 2.31 2.31 0 0 0 .258-.934c.018-.326-.033-.653-.15-.957-2.05-.3-2.92 2.21-1.6 3.06zm-2.67 37.028c-.85-1.49 1.38-.79 1.6-1.52-1-.68-2.47.48-3.2 1.14.31 0 .62.06.53.38h1.07zm-1.601-30.159c-2.14.33-4-.57-4.82 0v2.29c3.7-.74 3.56 1.27 6.42 1.15-.51-1.17-1.99-1.64-1.6-3.44zM361.09 522.539c-1.68.19-1.21-1.17-3.21-.77-.23 1.29 3.12 1.97 3.21.77zm31.551 110.731c-.4 1.44 2.84.27 2.14 1.91-1.07.93-2.28-.64-2.68.77.72 0 .49.67 1.08.76.07-.7 1.8-.24 2.13-.76v-2.29c-1.28.16-1.16-.66-2.67-.39zm267.9-145.48c1.77-.39 2.32.221 3.2-1.149-1.05-.7-2.67.359-3.2 1.149z"/><use xlink:href="#M"/><use xlink:href="#N"/><use xlink:href="#O"/><g class="Q"><path d="M192.661 697.81c.56-2.22-2.32-.16 0 0zm445.42-45.06c1.29-1.28-1.8.92 0 0zm-252.92-4.961c1.29-1.29-1.8.92 0 0zm42.731-.39c.43-2.31-2.45-.25 0 0zm-257.69-3.4c1.62-1.29-2-1.16 0 0zm295.169-2.71c1.79 1.16 1.62-1.41 0 0zm-99.999-.379c1.29-1.28-1.79.92 0 0zm-165.231-.76c-1.62 1.41-1.8-1.16 0 0zm-76.46 0c.57-2.22-2.32-.16 0 0zm36.36-2.681c1.3-1.27-1.79.93 0 0zm515.46-8.01c-1.61 1.41-1.79-1.16 0 0zm-10.69-1.529c2.72 1 2-1.33 0 0zm-363.599-1.15c1.29-1.28-1.8.93 0 0zm83.949-5.341c.56-2.22-2.32-.16 0 0zM601.181 605c1.29-1.28-1.79.92 0 0zm-365.75-1.511c.44-2.31-2.45-.26 0 0zm77.541-1.49c.56-2.21-2.32-.16 0 0zM37.591 600.82c1.62-1.29-2-1.16 0 0zm348.64-1.15c1.29-1.28-1.8.93 0 0zm-142.24-6.491c1.94-1.8-3.13-.51 0 0zM651.971 592c1.81 1.16 1.63-1.4 0 0zm-86.609-.35c1.61-1.29-2-1.15 0 0zm-348.641-.381c1.81 1.16 1.62-1.41 0 0zM34.892 589.74c1.3-1.28-1.79.92 0 0zm398.92-3.811c1.3-1.29-1.79.92 0 0zm-271.09-.769c1.29-1.28-1.8.93 0 0zm344.35-8.4c.57-2.22-2.32-.16 0 0zm-242.18-5.34c1.3-1.29-1.79.92 0 0zm-16.621-4.2c1.8 1.16 1.62-1.42 0 0zm-119.779-2.3c1.3-1.28-1.79.93 0 0zm-94.601-3.051c1.63-1.29-2-1.16 0 0zm285-4.2c1.29-1.28-1.79.92 0 0zm71.621-5.349c1.93-1.8-3.14-.51 0 0zm119.77-.76c1.29-1.28-1.8.92 0 0zm-167.9 0c1.29-1.28-1.79.92 0 0zm272.699-6.49c1.29-1.28-1.79.92 0 0zm-362-1.91c1.3-1.28-1.79.92 0 0zm47.59-3.06c1.29-1.28-1.79.93 0 0zm240.63-.38c-1.63 1.41-1.81-1.16 0 0zm-104.81-3.431c1.29-1.29-1.79.92 0 0zM227.412 527.5c1.3-1.28-1.79.92 0 0zm50.798-.379c1.3-1.28-1.79.92 0 0zm258.271-.002c1.94-1.8-3.13-.51 0 0zm-288.74-3.819c1.28-1.28-1.8.92 0 0zm-101.07-.381c1.3-1.28-1.79.92 0 0zm-2.669-.76c2.56 1.06 1.3-1.25 0 0zm562.519-5.73c.43-2.31-2.46-.26 0 0zm-47.059-15.279c1.94-1.8-3.13-.5 0 0zM6.04 493.521c.43-2.31-2.45-.26 0 0zm660.382-2.291c-1.63 1.41-1.8-1.17 0 0zm-457.191-5.73c1.29-1.28-1.79.92 0 0zm-52.929-.381c1.29-1.29-1.8.92 0 0zM119.891 428.6c1.29-1.28-1.79.93 0 0zm82.93-7.6c1.29-1.28-1.8.93 0 0zm213.35-11.111c1.29-1.28-1.79.93 0 0zM722.032 403c1.29-1.28-1.8.92 0 0zm-10.141-39.311c2.15 1.34 1.25-1.23 0 0zm-458.81-15.279c1.3-1.28-1.79.92 0 0zm33.15 342.14c1.46 1.16-1.62-1 0 0zm391.951-148.551c1.45-1.16-1.62 1.05 0 0zm-338.481-57.27c1.47 1.17-1.62-1 0 0z"/></g><path d="M710.801 390.419c-2.82-.1-3.35 1.42-3.74 3 2.26.79 4.36-.56 3.74-3z"/><use xlink:href="#O"/><use xlink:href="#N"/><use xlink:href="#M"/><g class="Q"><path d="M638.081 652.75c1.29-1.28-1.8.92 0 0zm37.42-23.291c-1.61 1.41-1.79-1.16 0 0zm-10.69-1.529c2.72 1 2-1.33 0 0zM601.181 605c1.29-1.28-1.79.92 0 0zm50.79-13c1.81 1.16 1.63-1.4 0 0zm-86.609-.35c1.61-1.29-2-1.15 0 0zM6.04 493.521c.43-2.31-2.45-.26 0 0zM202.821 421c1.29-1.28-1.8.93 0 0zm519.211-18c1.29-1.28-1.8.92 0 0zm-10.141-39.311c2.15 1.34 1.25-1.23 0 0zm-458.81-15.279c1.3-1.28-1.79.92 0 0zm425.101 193.589c1.45-1.16-1.62 1.05 0 0z"/></g></g></g><g class="C"><path d="M1091.7 495.1h-59.42-3.15v9.63h1.97v5.31h1.18v177.85h59.42V510.04h1.18v-5.31h1.97v-9.63h-3.15zm-260.079-30.29v-6.62h-.73v-2.88h6.35v-12.38l3.06 4.22v8.16h6.35v2.88h-.73v12.32l21.69 8.64v208.74h-56.98V456.45l20.99 8.36zm339.939 38.929h-8.68v-18.6h2.25v-5.06h-15.11v-13.79h.98v-3.93h-.98-5.42v-4.04h-7.41v-31.79l-1.82 3.36v28.43h-7.41v4.04h-5.42-.98v3.93h.98v13.79h-15.11v5.06h2.25v18.6H1101v5.06h1.85v179.09h7.7 8.24 2.39 8.39 2.39 8.39 2.39 8.38 2.39 8.5 7.7v-179.09h1.85v-5.06zM987.701 481.76l-32.31 12.09v1.95 5.38h1.94v4.04h1.16v182.67h58.419V505.22h1.16v-4.04h1.94v-5.38-1.95l-32.309-12.09zm-38.69 20.139v-5.87h-7.22v-22.53h2.21v-5.87h-6.19v-6.55h-28.62v-22.02h-2.78v22.02h-6.27v-22.02h-2.78v22.02h-8.36v6.55h-6.18v5.87h2.21v22.53h-7.22v5.87h3.42v41.1h-3.42v5.87h3.42v38.52h-3.42v5.87h3.42v41.1h-3.42v5.87h3.42v47.66h64.36v-47.66h3.42v-5.87h-3.42v-41.1h3.42v-5.87h-3.42v-38.52h3.42v-5.87h-3.42v-41.1h3.42zM778.561 526.6v-8.84h2.71v-5.5h-32.89v5.5h2.71v8.84h-13.2v5.5h.58v155.79h52.72V532.1h1v-5.5h-13.63zm686.579-31.5h-59.41-3.15v9.63h1.96v5.31h1.19v177.85h59.41V510.04h1.19v-5.31h1.96v-9.63h-3.15zm-260.07-30.29v-6.62h-.73v-2.88h6.36v-12.38l3.05 4.22v8.16h6.35v2.88h-.73v12.32l21.69 8.64v208.74h-56.98V456.45l20.99 8.36zm156.08 16.95l-32.31 12.09v1.95 5.38h1.93v4.04h1.17v182.67h58.41V505.22h1.17v-4.04h1.93v-5.38-1.95l-32.3-12.09zm-38.7 20.139v-5.87h-7.21v-22.53h2.2v-5.87h-6.18v-6.55h-28.62v-22.02h-2.78v22.02h-6.27v-22.02h-2.78v22.02h-8.36v6.55h-6.18v5.87h2.21v22.53h-7.22v5.87h3.42v41.1h-3.42v5.87h3.42v38.52h-3.42v5.87h3.42v41.1h-3.42v5.87h3.42v47.66h64.35v-47.66h3.42v-5.87h-3.42v-41.1h3.42v-5.87h-3.42v-38.52h3.42v-5.87h-3.42v-41.1h3.42z"/></g><path d="M1073.21 480.449h-48.84v188.49h48.84v-188.49z" class="D"/><g class="C"><path d="M1069.46 468.74h-41v11h41v-11z"/><path d="M1062.46 458.74h-27v10h27v-10z"/><path d="M1053.46 452.74h-10v6h10v-6zm-19.7 26.87v183.94z"/></g><path d="M1033.76 479.61V663.55" class="L R S"/><path d="M1043.78 479.61V663.55Z" class="C"/><path d="M1043.78 479.61V663.55" class="L R S"/><path d="M1053.8 479.61V663.55Z" class="C"/><path d="M1053.8 479.61V663.55" class="L R S"/><path d="M1063.82 479.61V663.55Z" class="C"/><path d="M1063.82 479.61V663.55" class="L R S"/><path d="M1073.46 596.74h-49v21h49v-21z" class="C"/><g class="D"><path d="M1208.85 624.809h-118.89v44.12h118.89v-44.12zm.13-12.679h-119.15l3.59-52.04h111.97l3.59 52.04z"/></g><g class="C"><path d="M1164.37 589.5h-29.94v22.58h29.94V589.5z"/><path d="M1149.4 563.789l7.43 12.85 7.42 12.86h-14.85-14.84l7.42-12.86 7.42-12.85z"/></g><g class="D"><path d="M1120.21 547.67h-6.34v12.42h6.34v-12.42zm36.46 46.779h-13.21v12.68h13.21v-12.68z"/></g><g class="C"><path d="M1112.15 635.66h-13.21v12.68h13.21v-12.68zm18.1 0h-13.21v12.68h13.21v-12.68zm51.12 0h-13.21v12.68h13.21v-12.68zm18.1 0h-13.21v12.68h13.21v-12.68z"/></g><path d="M1212.41 612.129h-126.02v14.53h126.02v-14.53z" class="P"/><path d="M1158.26 668.94v-27.88a8.84 8.84 0 0 0-2.7-6.071 8.85 8.85 0 0 0-6.15-2.491c-2.3 0-4.51.893-6.16 2.491a8.84 8.84 0 0 0-2.7 6.071v27.88h17.71z" class="C"/><path d="M1357.2 559.439h-130.78v109.49h130.78v-109.49z" class="D"/><g class="C"><use xlink:href="#P"/><path d="M1266.16 570.379h-7.59v24.35h7.59v-24.35zm19.63 0h-7.59v24.35h7.59v-24.35zm19.63 0h-7.59v24.35h7.59v-24.35zm19.64 0h-7.59v24.35h7.59v-24.35zm19.63 0h-7.59v24.35h7.59v-24.35zm-98.17 31.641h-7.59v24.35h7.59v-24.35zm19.64 0h-7.59v24.35h7.59v-24.35zm19.63 0h-7.59v24.35h7.59v-24.35zm19.63 0h-7.59v24.35h7.59v-24.35zm19.64 0h-7.59v24.35h7.59v-24.35zm19.63 0h-7.59v24.35h7.59v-24.35zm-98.17 31.64h-7.59v24.35h7.59v-24.35zm19.64 0h-7.59v24.35h7.59v-24.35zm19.63 0h-7.59v24.35h7.59v-24.35zm19.63 0h-7.59v24.35h7.59v-24.35zm19.64 0h-7.59v24.35h7.59v-24.35zm19.63 0h-7.59v24.35h7.59v-24.35z"/></g><g class="D"><path d="M1362.89 550h-142v10h142v-10zm61.65-37.121h-56.74v156.06h56.74v-156.06z"/></g><path d="M1427.81 653.42h-63.29v15.51h63.29v-15.51z" fill="#fd8600"/><path d="M1427.81 512.879h-63.29v15.51h63.29v-15.51z" class="D"/><g class="C"><use xlink:href="#Q"/><path d="M1415.09 558.32h-37.85v12.71h37.85v-12.71zm0 19.5h-37.85v12.71h37.85v-12.71zm0 19.5h-37.85v12.71h37.85v-12.71zm0 19.5h-37.85v12.71h37.85v-12.71zm0 19.5h-37.85v12.71h37.85v-12.71z"/></g><g class="D"><path d="M858.302 568.349h-94.47l12.21-20.05h70.05l12.21 20.05z"/><path d="M850.281 568.35h-78.73v100.58h78.73V568.35z"/></g><g class="C"><g class="L Z"><path d="M797.59 579.43h-12.27v25.15h12.27v-25.15zm19.461 0h-12.27v25.15h12.27v-25.15zm19.45 0h-12.27v25.15h12.27v-25.15zm-38.911 30.23h-12.27v25.15h12.27v-25.15zm19.461 0h-12.27v25.15h12.27v-25.15zm19.45 0h-12.27v25.15h12.27v-25.15zm-38.911 31.59h-12.27v25.15h12.27v-25.15zm38.911 0h-12.27v25.15h12.27v-25.15z"/></g><path d="M818.781 668.939v-24.25c0-3.31-3.52-6-7.87-6s-7.87 2.68-7.87 6v24.25h15.74z"/></g><path d="M815.671 653.719a1.19 1.19 0 0 1-.199.656 1.18 1.18 0 0 1-.53.434 1.17 1.17 0 0 1-.682.067 1.18 1.18 0 0 1-.604-.323c-.165-.165-.277-.375-.323-.604a1.19 1.19 0 0 1 .502-1.211c.194-.13.422-.199.656-.199.313 0 .613.124.834.346a1.18 1.18 0 0 1 .346.834z" class="B"/><path d="M928.22 668.94h-59.29V458.66l59.29 18.32v191.96z" class="D"/><g class="C"><path d="M918.75 484.68h-40.41v3.86h40.41v-3.86zm0 9.89h-40.41v3.86h40.41v-3.86zm0 9.879h-40.41v3.86h40.41v-3.86zm0 9.891h-40.41v3.86h40.41v-3.86zm0 9.89h-40.41v3.86h40.41v-3.86zm0 9.88h-40.41v3.86h40.41v-3.86zm0 9.89h-40.41v3.86h40.41V544zm0 9.889h-40.41v3.86h40.41v-3.86zm0 9.881h-40.41v3.86h40.41v-3.86zm0 9.89h-40.41v3.86h40.41v-3.86zm0 9.889h-40.41v3.86h40.41v-3.86zm0 9.881h-40.41v3.86h40.41v-3.86zm0 9.89h-40.41v3.86h40.41v-3.86zm0 9.889h-40.41v3.86h40.41v-3.86zm0 9.881h-40.41v3.86h40.41v-3.86zm0 9.89h-40.41v3.86h40.41v-3.86z"/></g><g class="B"><path d="M918.75 642.869h-40.41v3.86h40.41v-3.86zm0 9.881h-40.41v3.86h40.41v-3.86zm0 9.889h-40.41v3.86h40.41v-3.86z"/></g><path d="M1006.76 476.98h-59.289v191.96h59.289V476.98z" class="D"/><g class="C"><path d="M993.882 455.189h-33.55v28.1h33.55v-28.1zm-42.761-10.49h-3.65v35.45h3.65v-35.45zm55.629 0h-3.65v35.45h3.65v-35.45z"/><use xlink:href="#R"/><path d="M971.241 487.15h-6.96v31.81h6.96v-31.81zm9.35 0h-6.96v31.81h6.96v-31.81zm9.359 0h-6.96v31.81h6.96v-31.81zm9.35 0h-6.96v31.81h6.96v-31.81z"/><use xlink:href="#S"/><path d="M971.241 522.84h-6.96v7.88h6.96v-7.88zm9.35 0h-6.96v7.88h6.96v-7.88zm9.359 0h-6.96v7.88h6.96v-7.88zm9.35 0h-6.96v7.88h6.96v-7.88zm-37.418 11.73h-6.96v31.81h6.96v-31.81zm9.359 0h-6.96v31.81h6.96v-31.81zm9.35 0h-6.96v31.81h6.96v-31.81zm9.359 0h-6.96v31.81h6.96v-31.81zm9.35 0h-6.96v31.81h6.96v-31.81zm-37.418 35.69h-6.96v7.88h6.96v-7.88zm9.359 0h-6.96v7.88h6.96v-7.88zm9.35 0h-6.96v7.88h6.96v-7.88zm9.359 0h-6.96v7.88h6.96v-7.88zm9.35 0h-6.96v7.88h6.96v-7.88zM961.882 582h-6.96v31.81h6.96V582zm9.359 0h-6.96v31.81h6.96V582zm9.35 0h-6.96v31.81h6.96V582zm9.359 0h-6.96v31.81h6.96V582zm9.35 0h-6.96v31.81h6.96V582zm-37.418 35.68h-6.96v7.88h6.96v-7.88zm9.359 0h-6.96v7.88h6.96v-7.88zm9.35 0h-6.96v7.88h6.96v-7.88zm9.359 0h-6.96v7.88h6.96v-7.88zm9.35 0h-6.96v7.88h6.96v-7.88zm-37.418 11.74h-6.96v31.81h6.96v-31.81zm9.359 0h-6.96v31.81h6.96v-31.81zm9.35 0h-6.96v31.81h6.96v-31.81zm9.359 0h-6.96v31.81h6.96v-31.81zm9.35 0h-6.96v31.81h6.96v-31.81z"/></g><g class="B I"><use xlink:href="#T"/><path d="M963.18 404.71c-1.53-.08-2.92-.05-2.68 1.14 0 1 2.53.91 3.22.38.17-.72-.61-.84-.54-1.52z"/><use xlink:href="#U"/><use xlink:href="#V"/><g class="Q"><path d="M1176.52 704.839c1.3-1.28-1.79.92 0 0zm-293.55-13.74c1.3-1.29-1.79.92 0 0zm-50.259-56.9c-1.63 1.41-1.8-1.16 0 0zm538.459-9.93c1.29-1.28-1.8.92 0 0zm-395.689-4.58c1.29-1.28-1.79.92 0 0zm11.231-12.219c1.29-1.28-1.8.92 0 0zM1176 604.8c1.29-1.28-1.79.92 0 0zm-304.26 0c1.3-1.28-1.79.92 0 0zm-88.759-11.461c1.29-1.28-1.79.92 0 0zm32.081-4.959c1.3-1.28-1.79.92 0 0zm242.758-28.64c1.3-1.28-1.79.92 0 0zM750.36 541c1.29-1.28-1.79.92 0 0zm141.169-.351c1.45-1.16-1.63 1 0 0zm-88.229-29.79c1.29-1.28-1.79.92 0 0zm.53-31.689c-1.62 1.41-1.8-1.16 0 0zm479.11-24.061c1.45 1.16-1.63-1 0 0zM1355.13 444c1.29-1.29-1.79.92 0 0zm-594.609-9.51c1.3-1.28-1.79.93 0 0zm122.981-4.961c1.3-1.29-1.79.92 0 0zM797.95 360.41c1.29-1.28-1.79.92 0 0z"/></g><use xlink:href="#T"/><use xlink:href="#U"/><use xlink:href="#V"/><g class="Q"><path d="M882.97 691.099c1.3-1.29-1.79.92 0 0zm488.2-66.83c1.29-1.28-1.8.92 0 0zM871.74 604.8c1.3-1.28-1.79.92 0 0zm-88.759-11.461c1.29-1.28-1.79.92 0 0zm32.081-4.959c1.3-1.28-1.79.92 0 0zM750.36 541c1.29-1.28-1.79.92 0 0zm141.169-.351c1.45-1.16-1.63 1 0 0zm-88.229-29.79c1.29-1.28-1.79.92 0 0zm.53-31.689c-1.62 1.41-1.8-1.16 0 0zm-5.88-118.76c1.29-1.28-1.79.92 0 0z"/></g></g><path d="M1440 635H0v43h1440v-43z" class="D"/><g fill="#f7a299"><path d="M1440 678H0v62.144h1440V678z"/><ellipse cx="255" cy="666" rx="18" ry="2"/></g><ellipse cx="140.498" cy="687.255" rx="62.695" ry="2.746" fill="#f6958a"/><g class="E"><path d="M198.305 678.092c0 4.79-3.764 8.726-8.384 8.726s-8.384-3.936-8.384-8.726 3.764-8.727 8.384-8.727 8.384 3.936 8.384 8.727zm-60.056 0c0 4.79-3.765 8.726-8.384 8.726s-8.385-3.936-8.385-8.726 3.765-8.727 8.385-8.727 8.384 3.936 8.384 8.727z"/></g><path d="M85.205 647.636l-2.567-4.62 12.662-3.593-10.095 8.213z" fill="#ee3420"/><path d="M200.359 659.27c-5.818-6.502-17.795-7.528-21.217-9.582S165.625 636 146.804 636l-32.51.342c-8.042 0-14.373 1.369-19.164 3.251-3.251 1.198-5.817 2.738-7.871 4.107 5.133-1.882 11.635-3.251 18.992-3.08 15.399.342 24.81 8.897 24.81 8.897l6.502 7.529s11.122.342 19.848 4.962c5.818 3.08 7.357 11.977 7.7 16.426 20.532 0 36.787-.343 37.814-1.027 3.251-2.224.855-14.373-2.567-18.137z" fill="#f04935"/><path d="M157.756 661.666c-8.727-4.62-19.848-4.962-19.848-4.962l-6.502-7.529s-9.582-8.555-24.81-8.897c-7.358-.171-13.86 1.369-18.993 3.08-1.54 1.026-2.738 1.882-3.764 2.737-3.764 3.08-3.764 5.647-4.278 10.78-.171 1.54-1.027 5.304-2.738 9.239-.684 1.369.171 4.791.855 6.502 1.027 2.396 3.764 4.791 6.16 4.791l81.616.513c-.513-4.106-1.882-13.175-7.699-16.254z" fill="#f26050"/><path d="M76.479 669.878s0 3.251 1.882 5.475 2.224 3.251 5.818 3.251h116.008c2.396 0 4.278-2.053 4.278-4.277H81.269s-3.08-2.054-4.791-4.449z" class="E"/><path d="M134.311 649.347h-12.832c-4.962 0-7.016 7.699-1.027 7.87s20.532-.171 20.532-.171l-6.673-7.699z" fill="#f04935"/><path d="M106.421 640.45l-10.608-1.198-9.411 2.738v4.106l20.019-5.646z" fill="#ee3420"/><g class="E"><path d="M80.069 652.427l4.278-3.936 1.198 2.738-6.16 5.988.684-4.79zm23.273 25.835c0 4.791-3.764 8.727-8.384 8.727s-8.384-3.936-8.384-8.727 3.764-8.726 8.384-8.726 8.384 3.936 8.384 8.726z"/></g><path d="M100.603 678.263a5.7 5.7 0 0 1-5.646 5.646 5.7 5.7 0 0 1-5.646-5.646 5.7 5.7 0 0 1 5.646-5.647 5.7 5.7 0 0 1 5.646 5.647z" class="B"/><g class="E"><path d="M94.788 679.803a1.54 1.54 0 1 0-1.54-1.539 1.54 1.54 0 0 0 1.54 1.539zm64.673-1.541c0 4.791-3.764 8.727-8.384 8.727s-8.384-3.936-8.384-8.727 3.765-8.726 8.384-8.726 8.384 3.936 8.384 8.726z"/></g><path d="M156.723 678.263c0 3.079-2.567 5.646-5.647 5.646a5.7 5.7 0 0 1-5.646-5.646 5.7 5.7 0 0 1 5.646-5.647c3.251 0 5.647 2.396 5.647 5.647z" class="B"/><path d="M152.619 678.263c0 .855-.685 1.54-1.54 1.54s-1.54-.685-1.54-1.54.684-1.54 1.54-1.54 1.54.684 1.54 1.54z" class="E"/><path d="M198.816 665.771h4.62s-.684-5.817-3.08-6.501c-1.368 1.197-1.54 6.501-1.54 6.501z" class="B"/><g class="E"><path d="M195.908 667.997h-15.741c-.684 0-1.027 0-1.369 1.369-.342 1.198-1.027 4.449-1.027 4.449 0 .855.514 1.54 1.369 1.54h18.308c1.027 0 1.711-.856 1.369-1.882l-1.369-4.449c-.342-.513-1.026-1.027-1.54-1.027zm-19.162-7.017s.685 1.54 1.54 2.567c.684 1.027 1.369 2.053 3.935 2.053s9.069.171 10.951 0c1.711-.171 2.738-.684 2.909-2.224.171-1.027.513-2.224.513-2.224h-19.848v-.172z"/></g><path d="M151.764 659.27s1.369 5.647 6.673 6.16c5.133.514 12.148 0 12.148 0s-.513-4.277-5.475-5.304c-4.791-1.027-13.346-.856-13.346-.856z" class="B"/><g class="E"><path d="M128.323 645.754c-.684-.856-1.369-1.54-2.224-2.225-3.764-3.422-8.213-4.62-23.099-2.566-7.529 1.026-13.004 6.502-13.004 6.502l1.027 2.053 2.224 3.935 41.065.514c0-.172-1.54-3.251-5.989-8.213zm36.276.341c-3.765-2.567-8.213-4.791-11.807-6.331-11.464-.342-24.81.171-24.81.171l2.738 3.422 7.7 9.582 31.483-.342h2.224c-2.053-2.053-4.62-4.449-7.528-6.502z"/></g><g class="B"><use xlink:href="#W"/><use xlink:href="#W"/><path d="M194.88 669.878h-12.833v3.251h12.833v-3.251z"/></g><g opacity=".5" class="D"><path d="M-5 708h129v4H-5zm161 0h129v4H156zm161 0h129v4H317zm161 0h129v4H478zm161 0h129v4H639zm161 0h129v4H800zm161 0h129v4H961zm161 0h129v4h-129zm161 0h129v4h-129z"/></g><ellipse cx="1084" cy="657.5" rx="50" ry="2.5" fill="#f7a299"/><path d="M1151.15 588s-11.51 4.714-18.09 12.608c-6.57 7.893-8.55 14.8-8.55 14.8H1039s2.41-9.209 6.36-14.91c5.7-8.332 14.36-12.498 14.36-12.498h91.43z" class="B"/><path d="M1151.15 590.959s-11.4 4.714-18.09 12.608c-6.03 7.016-6.9 11.84-6.9 11.84h-84.86s1.98-8.332 5.92-14.142c3.95-5.701 12.39-10.415 12.39-10.415h91.54v.109z" fill="#ededed"/><g class="B"><path d="M1059.61 588h91.54v2.96h-91.54V588zM1039 615.407h2.3V656.3h-2.3v-40.893zm82.99 0h2.3V656.3h-2.3v-40.893z"/></g><g fill="#ededed"><path d="M1041.3 615.079h1.87V656.3h-1.87v-41.221zm82.99 0h1.87V656.3h-1.87v-41.221z"/></g><path d="M1035.43 635.878s-2.48-.884-4.35-.113-.73 7.152 1.95 7.771c0 0 5.77 5.482 2.4-7.658z" class="F"/><path d="M1039.83 636.619c.12-.747-.12-2.1-.12-2.1s.85-.034 1.32.835c.98 1.801.55 5.689.49 6.242 0 0 .34 1.105-.16 3.016.07.133.14.261.23.386l.03.024c.03.037.04.08.04.123s-.01.086-.04.122l-.33.401c-.03.036-.07.065-.12.083-.01.006-.03.011-.05.014l-.4.077-.04-1.066-.85-8.157zm1.03 8.232l.01-.009-.01.008z" class="T"/><g class="M"><path d="M1032.68 657.729l.32.9h2.7s.8-1.153-3.02-.9zm5.78-.001l.32.9h2.7s.8-1.153-3.02-.9z"/></g><path d="M1033.6 629.128c.33-.407.81-.424 1.26-.77.43-.325 1.22-.54 1.86-.54 2.03 0 3.78.971 3.38 2.62-.13.524-.02.936-.56 1.548-.68.762-1.5 1.375-2.82 1.375-.7 0-1.32-.126-1.86-.526-.29-.218-.72-.244-.98-.482-.52-.478-.48-1.109-.67-1.761-.18-.598.04-1.039.39-1.464z" class="G"/><path d="M1038.12 632.54s-.44 1.345.46 1.917l-2.53 1.01-.33-1.31s.47-1.022.34-2.444l2.06.827z" class="T"/><path d="M1038.19 633.218s-2.59.247-2.64-1.179c-.06-1.425 1.02-2.349 1.74-2.338 1.43.021 1.67.475 1.84.947.16.473.25 2.469-.94 2.57z" fill="#af7041"/><path d="M1040.66 643.989l-5.11.331s-.6 7.012 2.75 13.513c0 0 .43.125 1.54.125.45.003.9-.054 1.33-.168l-.51-13.801z" class="F"/><path d="M1032.72 644.397s-1.58 4.778-.29 13.501c.54.118 1.11.173 1.67.162a9.38 9.38 0 0 0 1.8-.161l1.66-11.323c.06-.335.9-2.096.9-2.096l-5.74-.083z" class="G"/><g class="B"><path d="M1032.61 637.308l-.34-2.148.14-.15c.59-.563 2.85-.808 3.31-.848.02.016 1.06.689 1.81.61.64-.063.75-.329.73-.617 1.34.174 2.09.507 2.09.507 1.36.399 1.64 3.939 1.64 3.939-.18-.041-1.09.082-1.51.144l.17 5.247c-3.25 1.11-7.93.396-7.93.396l.01-.031.31-4.2-.29-1.918-.14-.931zm4.89-4.913s.05.177.62.145c0 0 .47-.028.46-.224 0 0-.47-.134-1.08.079z"/></g><path d="M1034.69 644.218c-.22.217-1.31.331-1.97.174l.33-4.234-.44-2.852.43-.154s1.86 1.169 1.64 2.099.3 4.689.01 4.967z" class="U"/><path d="M1030.69 637.52s1.57.385 2.13.754a.78.78 0 0 0 .14.077l2.01-3.019.37-.579.35-.547.03-.047a.54.54 0 0 0-.08.008l-1.22.159a8.9 8.9 0 0 0-1.05.237h-.01c-.41.119-.75.27-.94.444l-.15.15c-.65.738-1.58 2.363-1.58 2.363z" class="B"/><g class="G"><path d="M1032.81 643.201s7-5.856 2.53-8.447a4.85 4.85 0 0 0-.92-.428 9.11 9.11 0 0 0-1.05.238c.61.133 1.17.4 1.6.77 1.08.942 1.59 2.948-2.1 7.123l-.06.744zm5.12-13.486s-2.21 0-1.7 1.186c.32.748-.75.865-.75.865s-.46-.886-.51-1.199c-.04-.241.07-.792.32-.935.53-.306 2.64.083 2.64.083z"/></g><path d="M1030.73 637.531c.68.165 1.77.503 2.09.744l-.58 1.06c.26-.091 1.61-.176 2.31-.216.08-.004.72-.168.72-.168s.01-.856 1.26-.925c0 0 .52 0 .41.28-.1.281-.11.155-.25.553s-.51.693-.89.713c-1.86 1.222-4.41 1.233-5.19 1.203-.06-.002-.13-.021-.18-.054s-.09-.08-.1-.131c-.3-.99-.12-2.019.4-3.059z" class="T"/><g class="J"><path d="M982.464 658.244c.027.233.088.435.206.524h5.688c-.033-.134-.188-.474-.903-.553-.898-.099-2.48-.489-2.773-1.411s-2.191.321-2.191.321a5.51 5.51 0 0 0-.027 1.119z"/><path d="M977.444 658.768h5.9a1.17 1.17 0 0 0-.368-.335 1.52 1.52 0 0 0-.511-.189c-.061-.013-.124-.022-.187-.029-.898-.099-2.48-.489-2.772-1.411s-2.193.321-2.193.321-.164 1.287.131 1.643z"/></g><path d="M980.006 633.847l.012.466.465 13.558.022.441.012.225c.126 1.865.401 3.721.822 5.559l.907 3.378c1.713.271 2.824-.241 2.824-.241s.463-3.119.639-5.007l.693-5.244.884-6.237.047-.321.859-5.968-3.034-.225-5.152-.384z" class="G"/><path d="M981.341 654.098l5.064-7.108.884-6.236.046-.322.86-5.967-3.035-.232-5.142.081 1.323 19.784z" class="F"/><path d="M987.633 634.476s-2.833 10.952-5.144 16.238-2.338 6.755-2.338 6.755-2.118.359-3.051-.059c0 0-.534-10.02.864-12.681.924-1.76 1.63-5.507 1.39-6.856s-.459-4.053-.459-4.053l8.738.656z" class="G"/><path d="M984.193 619.774l-3.15-.696c.337-.673.578-1.373.719-2.088.102-.592.102-1.198-.166-1.65-.015-.028-.032-.055-.051-.08-.12-.175-.047-.255.113-.275a2.17 2.17 0 0 1 1.087.276c.361.236 2.103.927 2.194.963 0 0 0 .011.006.029l.048.289c.095.657.167 2.183-.8 3.232z" class="H"/><path d="M979.644 635.061c.671.371 1.725.505 2.888.491 1.377-.033 2.742-.207 4.061-.517a11.39 11.39 0 0 0 1.607-.482c1.794-.732 1.541-1.705 1.496-5.351-.043-3.721-2.971-8.53-3.498-9.335-.937-1.435-5.147-.902-5.147-.902-.924.346-1.252 1.501-1.342 3.009-.103 1.674.094 3.786.094 5.712 0 1.592-.384 3-.663 4.167-.366 1.512-.554 2.622.504 3.208z" class="K"/><path d="M979.137 631.849c.81 1.335 2.405 2.837 3.395 3.703 1.376-.033 2.742-.207 4.061-.517.505-.946.727-2.525.26-5.133-.357-1.987-2.952-9.982-2.952-9.982-2.094-.214-3.397.679-4.195 2.05-.103 1.674.094 3.786.094 5.712 0 1.592-.384 3-.663 4.167z" class="I J"/><path d="M979.981 638.204h1.902v-.463c.001-.369.188-.723.522-.984a2.06 2.06 0 0 1 1.259-.407h1.574c.472 0 .924.147 1.258.408s.521.614.522.983v.463h1.901c.275 0 .539.086.734.238s.304.358.305.574v3.787c0 .216-.11.422-.304.575s-.459.239-.735.239h-8.934a1.2 1.2 0 0 1-.733-.238c-.194-.152-.304-.358-.305-.573v-3.788c0-.215.109-.421.303-.574s.456-.239.731-.24zm6.331-.463c0-.223-.113-.436-.315-.593s-.474-.247-.759-.247h-1.574c-.284.001-.557.09-.757.247s-.314.371-.314.593v.463h3.722l-.003-.463z" fill="#d6716b"/><path d="M984.993 635.418s1.096 1.652.548 2.295-2.505-.183-2.661-.551 0-2.142 0-2.142l2.113.398z" fill="#da935b"/><g class="K"><path d="M980.307 622.49l.402 6.43c-.008 1.881 1.91 6.885 1.91 6.885l1.764.029c.328-.028.641-.119.914-.263 0 0-.421-5.912.382-8.178s.845-6.818.845-6.818-.446-.982-3.114-.672c-3.165.368-3.103 2.587-3.103 2.587z"/><path d="M981.625 616.869s-.719 1.775-.577 2.092c0 0 3.895.41 5.475 1.615 0 0-.513-1.73-1.146-2.163s-3.752-1.544-3.752-1.544z"/></g><path d="M985.046 616.541h-.047c-.354 0-2.555.004-3.173.412-.02.013-.041.025-.063.035.103-.593.103-1.198-.165-1.65l.061-.358c.286-.036.85.121 1.087.276.361.236 2.103.927 2.194.963l.009.031.097.291z" class="V"/><path d="M986.415 616.43s-3.641.546-4.041-1.233-1.137-2.905 1.17-3.328 2.913.193 3.232.761.576 3.613-.361 3.8z" class="H"/><path d="M981.721 615.971s.189-.113-.548-.987-1.087-.633-1.096-1.565-.452-1.489.924-2.096 1.162-1.167 1.992-1.301 2.034.401 2.745.287 2.939 2.155 1.512 2.692c0 0-.662.026-1.13-.199s-2.173-.451-2.374-.045-1.275 2.9-2.025 3.214z" class="F"/><path d="M1014.01 632.093s.48.436.2.707-.79.505-1.27.241-.61-1.226-.33-1.226c.27 0 1.4.278 1.4.278z" class="V"/><path d="M1013.06 627.98s1.41 3.579 1.11 4.095c-.29.516-1.25.425-1.79-.192s.68-3.903.68-3.903z" class="M"/><path d="M1009.4 619.991s2.16.306 2.96.934c.81.627 2.7 2.477 1.51 8.645 0 0-.1 1.859-2.77 2.038-2.68.179-1.7-11.617-1.7-11.617z" class="N"/><path d="M1010.6 619.833c-.03-.263-.03-.528 0-.791.01-.132.03-.211.03-.211l-.03-.008-2.6-.618-.06-.015-.14 1.514c-.04.274-.09.546-.18.814h3.16c-.09-.223-.15-.453-.18-.685z" class="H"/><path d="M1011.61 615.599s-.3-3.326-5.82-2.067c-1.26.286-1.09 3.246 1.94 4.372l3.88-2.305z" class="G"/><path d="M1004.43 635.33c.37 2.024 2.87 7.285 2.8 9.104-.06 1.433-.03 4.743.21 6.942.05.498.13.994.25 1.485l.63 2.334c.33 1.322.16 2.093.43 2.802.3.776 3.7.634 2.67.161-.37-.169-.9-.526-1.16-.987-.96-1.674.38-8.893.78-11.677.05-.347.09-.623.1-.813.14-1.719 1.65-13.169 1.65-13.169-3.67-1.593-8.73 1.794-8.36 3.818z" class="H"/><path d="M1004.43 635.331c.37 2.024 2.87 7.285 2.79 9.103-.05 1.434-.02 4.744.22 6.943l3.6-5.879.11-.813c.13-1.719 1.68-13.176 1.68-13.176-3.67-1.593-8.77 1.798-8.4 3.822z" class="V"/><path d="M1012.38 631.886l-3.5 13.013c-.36 1.699-3.23 9.697-2.6 11.701.37 1.183 1.01 1.532 1.01 1.532.15.217-2.34.647-2.54-.182-.26-1.054-.31-2.532-.68-5.038-.65-4.316.63-6.772.94-8.575s-1.04-7.537-.29-9.496c1.31-3.429 4.23-4.832 7.66-2.955z" class="H"/><path d="M1003.98 642.282l2.03.166.66-2.057.23 2.095c1.93.061 4.47-.014 6.33-.617l-.4-10.359s-2.7.562-5.96-.418c0-.002-4.22 2.579-2.89 11.19z" class="N"/><g class="M"><path d="M1003.53 656.405c.15.664.18 1.859.19 2.163h.26l.03-1.576c.02.019.04.036.05.051.24.207.55 1.22.79 1.525h2.95c.01-.032.01-.066.01-.099-.01-.034-.03-.065-.05-.092-.14-.166-.47-.294-.47-.294-.63.064-1.27.04-1.89-.07-.39-.081-1.06-2.815-1.06-2.815s-.93.441-1.03.642c-.05.097.06.328.22.565z"/><path d="M1007.6 656.534a12.69 12.69 0 0 1 .16 1.842v.192h.27l.02-1.517c.24.225.55 1.216.78 1.517h2.95c.11-.249-.52-.486-.52-.486-.62.064-1.26.04-1.88-.07-.39-.081-1.06-2.815-1.06-2.815s-.93.441-1.03.642c-.06.117.11.417.31.695z"/></g><path d="M1006.65 631.255s2.48 1.339 6.23.359c0 0 1.28-3.426.88-6.725-.27-2.213-1.88-3.956-3.07-4.642-.19.131-.52.356-2.97-.108 0 0-1.12.368-1.32.707-.43.725 1 8.97.25 10.409z" fill="#e7f0fd"/><path d="M1005.61 632.338c1.11.177 1.96-.434 3.27-.723a5.37 5.37 0 0 0 1.11-.356c1.17-.563 1.74-4.73 1.54-6.307s-3.8-4.809-3.8-4.809c-.83.482-.99 1.606-1.49 3.078-1.21 3.541-.63 9.117-.63 9.117z" class="N"/><path d="M1005.61 632.336c1.11.178 2.32-.144 3.27-.723a4.72 4.72 0 0 0 1.07-1.983c.59-2.299-1.76-4.793-3.72-6.411-1.2 3.541-.62 9.117-.62 9.117z" class="M"/><path d="M1008 618.205c.29.388 1.23 1.461 2.6 1.628a4.17 4.17 0 0 1-.01-.79l.04-.211-.04-.008-2.59-.619z" class="W"/><path d="M1011.33 618.973s-3.23.506-3.59-1.069c-.37-1.576-1.04-2.57 1-2.96s2.59.153 2.87.654c.29.502.55 3.202-.28 3.375z" class="H"/><path d="M1006.61 615.182c1.08-1.058 2.43-.919 3.14-.742.2-.023.41-.035.62-.036 2.1-.039 1.52 1.863 1.52 1.863-.08-1.2-1.4-1.328-1.4-1.328l-.05-.01c.12.334.08.87-.96 1.376-1.66.816-1.53 2.449-1.09 2.909 0 0-3.31-2.527-1.78-4.032z" class="G"/><g class="F"><path d="M1012.72 634.213c.27-.868.56-1.32.91-1.383a.42.42 0 0 1 .15 0c.05.009.1.026.14.051.27.15.5.612.7 1.413l.22 1.124-.22.018a13.04 13.04 0 0 0-.22-1.107c-.24-.976-.48-1.237-.61-1.306-.01-.01-.03-.018-.05-.022s-.04-.004-.06-.001c-.47.081-.88 1.558-1.02 2.466l-.22-.02c0-.008.1-.62.28-1.233z"/><path d="M1010.15 638.589l.48-2.5c.05-.257.21-.492.47-.661.25-.17.57-.263.9-.263h3.42c.14 0 .29.046.39.128.11.082.16.193.16.308v3.052c0 .115-.05.226-.16.308-.1.082-.25.128-.39.128h-4.72c-.08-.001-.16-.014-.24-.04a.55.55 0 0 1-.18-.112.35.35 0 0 1-.12-.163c-.02-.06-.03-.123-.01-.185z"/></g><path d="M1012.47 635.165h3.01a.71.71 0 0 1 .38.107.47.47 0 0 1 .21.272l.74 2.988c.02.068.01.138-.01.205s-.06.13-.12.183a.53.53 0 0 1-.2.126.77.77 0 0 1-.26.044H1013c-.14 0-.28-.04-.39-.114s-.18-.176-.2-.287l-.53-2.988c-.02-.067-.01-.134.02-.199a.38.38 0 0 1 .12-.175.52.52 0 0 1 .2-.119.74.74 0 0 1 .25-.043z" class="G"/><path d="M1012.44 632.559s1.4.286 1.48.511-.4.867-1.18.717c-.79-.149-1.42-.883-1.42-.883l1.12-.345z" fill="#da935b"/><path d="M1007.72 620.139s-2.05.209-3.04 1.805c-.98 1.596.85 7.296 1.11 7.681.27.384 3.34 3.457 5.95 3.723 0 0 1.1-.306 1.07-.809l-4.58-3.781c-.3-.473.12-5.662.08-6.343s-.59-2.276-.59-2.276z" class="N"/><path d="M1071.45 621.643l.24-.563.03-.068.09.084c.35.338 1.54 1.804.65 5.192l-.54 1.623s3.3-.456 4.23-.941c.04-.076.52-1.201.89-1.352s1.05-.32 1.21-.259c.15.061.44.912 0 1.352-.45.44-1.6.865-1.6.865s-3.69 2.31-6.25 2.248c-2.15-.055.21-6.172 1.05-8.181z" class="H"/><path d="M1066.61 617.815s-.76-.93-.93-1.722c-.13-.566.24-2.666 2.93-2.365.55.059 1.07.212 1.53.449.58.309 1.43.978.48 2.81l-.25.619-3.76.209z" class="F"/><path d="M1063.46 627.268c.64 1.373.96 1.933.95 2.451 2.02-2.451 5.68-2.823 5.68-2.823l-6.95-.621c.07.339.17.671.32.993z" class="W"/><path d="M1055.65 636.604c.09-.222.15-.451.18-.683 1.86.638 3.9.365 3.9.365.18.562.02 1.343.02 1.343-2.09.441-4.42-.523-4.42-.523.12-.161.23-.329.32-.502z" class="B"/><path d="M1058.51 632.25c.09.159.45.301.98.404l.15.027c1.18.203 3.07.214 4.46-.188 1.56-.45 2.69-6.877 3.17-10.172a.75.75 0 0 1 .02-.149l.23-1.768s-.89-1.093-4.35-.729-3.8 1.276-4.12 2.916c-.31 1.64-.81 9.142-.54 9.659z" class="O"/><path d="M1059.63 632.683c1.19.203 3.08.214 4.47-.189 1.56-.45 2.69-6.877 3.16-10.171l.03-.15c-.36-.955-.62-1.565-.62-1.565s-4.34-.41-5.19.615c-.74.896-1.63 9.345-1.85 11.46z" class="G"/><path d="M1057.66 635.861c.26-.127.51-.511.6-.665.79-1.533 1.7-4.515 2-5.064.11-.2.32-1.141.59-2.355.5-2.176 1.2-5.228 1.9-6.437.09-.146.33-.269.65-.372.84-.275 2.21-.409 2.53-.438.34-.213.81-1.128.8-2.522l.15.023 2.56.397-.06 1.224c0 .494.04.963.18 1.023l.3.022s2.13 2.318 2.31 4.478-1.71 3.094.02 7.403c1.76 4.403-10.21 1.627-9.55.475 1.19-2.085 1.76-2.675 1.78-3.331.01-.461-.25-.955-.75-2.022l-.13.381-.63 1.935c-.3 1.134-3.66 5.492-3.66 5.492s-.1.053-.22.319c-.11.265-1.07 1.67-1.47 1.67-.41 0-.5-.477-.58-.782-.09-.305.36-.695.68-.854z" class="H"/><path d="M1063.39 612.428c.57-.272 1.47.053 1.47.053-.31-.344-1.45-.232-1.45-.232 2.28-.38 2.75.765 2.79.867 1.66-1.167 4.3 1.321 4.3 1.321l-3.79 3.94s-.35-.626-.81-.43c-.71.305-2.09-.93-1.65-2.553a2.89 2.89 0 0 1 .17-.483c-.15.055-.31.086-.48.092-.41 0-1.04-.829-1.12-1.108-.09-.279 0-1.195.57-1.467z" class="F"/><path d="M1069.43 618.429l-.06 1.224c-1.43-.032-2.19-1.055-2.5-1.621l2.56.397z" class="W"/><path d="M1069.91 618.99s-3.39.044-3.39-1.605-.44-2.759 1.73-2.856 2.58.531 2.76 1.083c.17.552-.22 3.325-1.1 3.378z" class="H"/><path d="M1065.63 653.058c.52 1.612 1.24 3.182 2.14 4.688l1.12-.061s-.55-2.04-.52-4.796c.02-1.927.33-4.204 1.3-6.378 3.35-7.472 2.81-12.909 2.81-12.909l-6.29.575-.3.027-.16 7.726-.11 3.773c-1.21 2.037-.77 4.913.01 7.355z" class="M"/><path d="M1062.02 652.633c.36 3.02 1.96 4.971 1.96 4.971l.53.305s.51-2.127.87-4.658c.34-2.405.8-4.951 1.33-5.727 2.1-3.081 2.73-14.712 2.73-14.712l-6.37-.247c-.64.845-.92 2.227-.99 3.803-.17 3.971 1.02 9.145 1.2 9.894a.21.21 0 0 1-.04.169c-1.27 1.961-1.45 4.208-1.22 6.202z" class="N"/><path d="M1067.43 616.71c-1.42.286-2.04-.012-2.04-.012s.11-1.132 1.32-1.864c1.76-1.061 2.97-.469 3.05-.381.22-.15.62-.259 1.14.238.79.745.09 2.062.09 2.062-.33.029-.4-.837-.57-1.257-.13-.31-.53-.625-.74-.77-.07.191-.75 2.045-2.45 2.661a7.1 7.1 0 0 0 1.36-1.3c-.33.293-.72.535-1.16.623z" class="F"/><path d="M1061.83 634.556a1.08 1.08 0 0 0 .04.399c.14.338.61.486 1.73.394.69-.055 1-.958 1.13-1.728.42 1.098 1 1.72 1.75 1.849 1.09.19 6.6.714 6.96-1.334.4-2.253-.79-6.243-.86-8.393a7.89 7.89 0 0 0 .2-1.993c-.04-1.533-.62-2.392-1.06-2.737-.12-.075-.25-.123-.76-.19l-1.11-.125-.2-.013c.09.13 1.34 1.605 1.24 1.988-.1.398-4.53.04-4.83-.179-.31-.219-.79-1.894-.79-1.894s-1.57.134-2.34.57l.01.008a.6.6 0 0 0-.2.169c-.82 1.217-1.63 4.291-2.21 6.484 1.39.6 2.61.422 2.99.342-.49 2.521-1.61 5.232-1.69 6.383z" class="K"/><path d="M1069.85 620.696l.01.009c.15.186 2.5 3.126 2.72 5.037a7.9 7.9 0 0 0 .2-1.994c-.3-.722-1.03-2.327-1.81-2.927-.1-.078-1.12-.125-1.12-.125z" class="O"/><path d="M1075.44 627.14l.99-2.318c0-.009.01-.018.02-.026s.02-.014.03-.018a.08.08 0 0 1 .04-.008c.01-.001.02 0 .03.003l1.56.405c.02.007.04.021.06.039a.06.06 0 0 1 0 .058l-.99 2.319c0 .019-.02.035-.05.044-.02.009-.05.011-.07.004l-1.56-.405c-.02-.006-.04-.02-.05-.038s-.02-.04-.01-.059z" class="K"/><path d="M1075.8 627.167l.94-2.205c.01-.033.04-.061.08-.077.05-.015.09-.018.13-.007l1.41.366c.04.012.08.036.1.068a.12.12 0 0 1 .01.101l-.94 2.206c-.02.033-.05.06-.09.076a.21.21 0 0 1-.13.008l-1.41-.367c-.04-.012-.07-.037-.09-.069s-.02-.067-.01-.1z" class="J"/><path d="M1065.63 653.058c.52 1.612 1.24 3.182 2.14 4.688l1.12-.061s-.55-2.039-.52-4.796c-.38.15-1.16.301-2.74.169z" class="H"/><path d="M1067.13 658.479h.71l.66-.109c.37-.038.54.085.58.109l.01.006h3.03c.08-.085 0-.283-.07-.428-.02-.049-.06-.092-.11-.127a.5.5 0 0 0-.17-.076c-.33-.073-.96-.138-1.54-.549-.32-.231-1.58-.845-1.58-.845h0c-.03 0-.16.031-.73.407-.29.194-.79-.274-.79-.274-.07.05-.13.109-.17.175a.47.47 0 0 0-.06.364c.04.213-.11.611-.22.878l-.13.279s-.04.13.58.19z" class="F"/><g class="O"><path d="M1066.96 656.763c.16.094.52.279.76.303.33.033.93-.61.93-.61h-.01c-.03 0-.16.031-.73.407-.29.194-.79-.273-.79-.273-.07.048-.13.107-.16.173zm.17 1.714h.71l.66-.108c.37-.038.54.085.58.108l.01.006h3.03c.08-.084 0-.282-.07-.427-.09-.065-.12.278-.17.332s-2.47.02-2.61-.059-.56-.219-1.15-.11c-.51.095-1.26-.149-1.44-.214l-.13.279s-.04.133.58.193z"/></g><path d="M1063.32 658.479h.71l.66-.109c.38-.038.54.085.58.109l.01.006h3.03c.08-.085 0-.283-.07-.428-.02-.049-.06-.092-.11-.127a.5.5 0 0 0-.17-.076c-.33-.073-.96-.138-1.54-.549-.32-.231-1.58-.845-1.58-.845h0c-.03 0-.16.031-.73.407-.29.194-.79-.274-.79-.274a.6.6 0 0 0-.17.175.47.47 0 0 0-.06.364c.04.213-.1.611-.22.878l-.13.279s-.04.13.58.19z" class="F"/><g class="O"><path d="M1063.15 656.763c.17.094.53.279.77.303.32.033.92-.61.92-.61h0c-.03 0-.16.031-.73.407-.29.194-.79-.273-.79-.273-.07.048-.13.107-.17.173zm.17 1.714h.71l.66-.108c.38-.038.54.085.58.108l.01.006h3.03c.08-.084 0-.282-.07-.427-.09-.065-.12.278-.17.332s-2.47.02-2.61-.059-.56-.219-1.15-.11c-.51.095-1.26-.149-1.44-.214l-.13.279s-.04.133.58.193z"/></g><path d="M1061.83 634.555c.76-.198 1.73-.723 2.9-1.902 3.09-3.121.26-6.789-.12-6.858s-1.09 2.374-1.09 2.374c-.49 2.525-1.61 5.235-1.69 6.386z" class="I J"/><path d="M1063.56 620.374s3.11 1.655 3.34 5.164c.24 3.508-3.8 4.224-3.8 4.224l.26-1.109s3.27-.929 2.42-3.718c-.86-2.788-3.42-4.309-3.42-4.309l1.2-.252z" class="O"/><g class="H"><path d="M1078.33 625.742s-.29-.47-.82-.281c-.54.189-.31.904.01 1.154.14.111.28.234.39.365l.42-1.238zm-16.31 26.893c.37 3.019 1.96 4.971 1.96 4.971l.54.388.85-4.742c-.37.023-2.03.069-3.35-.617z"/></g><ellipse cx="1317.97" cy="688.409" rx="79.582" ry="3.59" fill="#f6958a"/><g class="E"><path d="M1267.16 687.453c-4.95 0-8.97-4.017-8.97-8.972s4.02-8.972 8.97-8.972a8.972 8.972 0 1 1 0 17.944zm58.48-8.972c0 4.984 3.99 8.972 8.98 8.972 4.98 0 8.97-3.988 8.97-8.972s-3.99-8.972-8.97-8.972c-4.99 0-8.98 3.987-8.98 8.972z"/></g><path d="M1236.43 660.537c1.33-12.794 2.82-23.095 4.98-30.405 2.16-7.144 2.33-11.132 13.29-11.132h134.91c3.16 0 5.65 1.495 6.82 5.317h-108c-5.15 0-4.49 13.125-4.65 28.577l.15 24.837-45.34-.081c.16 0-3.33-4.818-2.16-17.113z" class="X"/><path d="M1288.43 624.317h108c.49 1.662.83 3.656.83 6.148v41.37l-6.82 6.148-106.66-.166v-33.894c0-15.452-.5-19.606 4.65-19.606z" fill="#1e88e5"/><g class="B"><path d="M1327.31 677.983s3.99-12.295 24.26-17.28c15.45-3.821 20.1-17.113 20.1-17.113l3.99-.664s.99 2.99-2 8.307c-2.82 5.483-6.48 7.643-6.48 7.643s9.97-.499 19.11-7.809c4.15-3.323 4.15-7.477 4.15-7.477h4.32s-.49 8.806-3.82 11.631c-7.31 6.313-15.95 8.141-25.42 11.464-13.12 4.652-14.95 11.298-14.95 11.298h-23.26zm24.92-35.556s-4.49 12.628-13.46 14.289c-16.28 2.991-21.76 8.972-21.76 8.972s1.66-5.981 6.98-9.304c6.81-4.32 12.46-2.991 14.12-10.468.99-4.319 14.12-3.489 14.12-3.489z"/></g><path d="M1347.58 664.856s-5.48 2.493-8.81 6.646c-3.32 4.154-3.99 6.646-3.99 6.646h-5.64s3.65-5.981 8.14-8.806c4.48-2.99 10.3-4.486 10.3-4.486z" fill="#1e88e5"/><path d="M1238.75 677.65l147.54-1.994c6.31 0 10.97-3.821 10.97-3.821s-1 6.147-10.47 8.307c-5.48 1.163-117.3 1.163-140.73 1.163-2.66 0-4.98-.997-6.81-2.99l-.5-.665z" class="E"/><g class="B"><path d="M1278.96 660.537s.16 5.649-4.49 7.311c-4.48 1.827-10.96 2.824-10.96 2.824s-.5-3.987 3.49-6.147c4.32-2.16 11.96-3.988 11.96-3.988zm-42.53 0s2.32 2.326 3.65 5.15 1.83 5.151 1.83 5.151-4.99-1.163-5.82-2.492c-.33-4.154.34-7.809.34-7.809zm129.26-16.782s.33 4.818-5.98 9.637c-3.99 3.156-9.64 4.153-9.64 4.153s7.48-6.313 9.47-10.135l1.83-3.821 4.32.166z"/></g><g class="E"><path d="M1243.74 679.477v-1.329c0-1.994 1.66-3.822 3.82-3.822h12.63c1.99 0 3.82 1.662 3.82 3.822v1.329h-20.27zm-6.98-22.596s.5-5.317 1.66-14.288c1.33-8.972 4.98-18.277 4.98-18.277h30.57c-.16 5.317-.49 18.775-2.49 26.75-.99 3.821-2.49 6.48-4.15 8.474-4.32.498-9.64.996-15.45.996-8.98 0-15.12-3.655-15.12-3.655z"/></g><g class="B"><path d="M1273.81 624.316c2.49 0 6.31.997 6.31 5.317 0 6.48-.5 16.282-1 22.43-.16 3.323-2.82 6.147-6.31 6.812-1.66.332-3.49.498-5.65.831 1.66-1.994 3.32-4.819 4.16-8.474 1.99-8.141 2.32-21.599 2.49-26.916zm64.3 34.226s-1.16 3.655-5.15 5.483c-6.15 2.824-9.31 10.467-9.31 10.467s-.33-5.483 1.17-8.141c1.33-2.326 3.99-3.821 6.48-4.652 3.32-1.163 6.81-3.157 6.81-3.157z"/></g><g class="E"><path d="M1355.39 629.301h20.76v17.944h-20.76v-17.944zm-22.6 0h20.77v17.944h-20.77v-17.944zm61.97 18.109h-16.78v-17.943h16.78v17.943zm-106.17 21.932v-39.709-.166h19.78v30.903c-4.66.665-12.96 1.163-19.78 8.972zm21.44-40.041h20.76v17.944h-20.76v-17.944z"/></g><g class="B"><path d="M1355.39 624.316h20.76v4.985h-20.76v-4.985zm-22.6 0h20.77v4.985h-20.77v-4.985zm59.48 0c2.49 0 2.49 3.656 2.49 4.985h-16.78v-4.985h14.29zm-98.69 0h14.62v4.985h-19.77c.17-2.659 2.49-4.985 5.15-4.985zm16.45 0h20.76v4.985h-20.76v-4.985z"/></g><path d="M1371 687.454c-4.95 0-8.97-4.017-8.97-8.972s4.02-8.972 8.97-8.972a8.97 8.97 0 1 1 0 17.944z" class="E"/><use xlink:href="#X" class="X"/><g class="E"><path d="M1371 680.309a1.83 1.83 0 1 1 1.83-1.828 1.83 1.83 0 0 1-1.83 1.828zm-65.96 7.145c-4.95 0-8.97-4.017-8.97-8.972s4.02-8.972 8.97-8.972c4.96 0 8.98 4.017 8.98 8.972s-4.02 8.972-8.98 8.972z"/></g><path d="M1305.05 683.964a5.49 5.49 0 0 1-5.49-5.483 5.49 5.49 0 0 1 5.49-5.483c3.02 0 5.48 2.455 5.48 5.483s-2.46 5.483-5.48 5.483z" class="X"/><path d="M1305.04 680.309a1.82 1.82 0 1 1 0-3.655 1.83 1.83 0 0 1 1.83 1.827 1.83 1.83 0 0 1-1.83 1.828z" class="E"/><path d="M1315.34 660.371s-2.82 5.815-8.97 6.148c-7.14.332-11.96 4.984-11.96 4.984s1.82-4.818 6.48-7.311c7.31-3.821 11.13-2.159 14.45-3.821z" class="B"/><g class="F"><path d="M266.962 663.166c-.222.586-1.252.977-1.39 1.695-.111.556-.466.916-.855 1.05h-2.758c-.066-.137-.149-.478.554-.598.887-.153 1.225-.996 1.169-1.778-.019-.342-.016-.684.009-1.026l.074-.799 1.891-.347.197.2.191.191s1.139.824.918 1.412zm-15.065 2.743h-6.49c.076-.183.305-.472.989-.558.998-.126 2.723-.579 3.109-1.575l.032-.098c.306-1.065 2.529.326 2.529.326l.016.114c.05.373.171 1.544-.185 1.791z"/></g><path d="M246.66 637.456l.735 7.254 1.252 13.239.554 5.651s1.056.826 3.169.478c0 0 1.884-4.964 2.42-10.216l.026-.26c.5-5.346 1.278-16.604 1.278-16.604l-9.434.458z" class="G"/><path d="M246.661 637.456l.735 7.254 7.396 9.152.026-.26c.5-5.346 1.278-16.604 1.278-16.604l-9.435.458z" class="F"/><path d="M248.203 637.845s6.087 11.931 10.085 17.538l5.254 7.172s2.292-.717 2.501-1.206c0 0-1.531-10.825-4.212-13.463-1.513-1.491-3.292-5.966-3.375-7.53s-.536-4.664-.536-4.664l-9.717 2.153z" class="G"/><path d="M242.048 634.552l-.347.542s-1.773.194-1.282 1.636c0 0 .261.593.75.405s.247-.173.946-.424 1.109-.738.948-1.183l.111-.473-1.126-.503z" class="Y"/><path d="M251.323 619.43a11.16 11.16 0 0 1-.279-1.993l3.089-1.947c-.111 2.676 2.078 3.963 2.078 3.963s-4.115 1.585-6.495.998c.452-.414.996-.76 1.607-1.021z" fill="#9c5f33"/><path d="M250.319 617.395s3.929.51 4.297-1.407 1.125-3.145-1.368-3.554-3.122.267-3.444.884-.498 3.895.515 4.077z" class="Y"/><path d="M254.588 616.12s-.079-2.569-3.657-2.982c-2.453-.283-.968-1.884-.687-2.138l3.792.607c4.026.693.978 4.131.552 4.513z" class="F"/><path d="M242.459 635.305a5.56 5.56 0 0 1-.914-.97l4.827-4.786c.363-.454 3.073-7.663 3.073-7.663l6.856-1.086s-5.722 9.231-6.671 10.356c-1.566 1.86-6.253 4.628-6.253 4.628a2.99 2.99 0 0 1-.918-.479z" fill="#74acbe"/><path d="M246.395 637.729c.07.048.158.074.251.075.893-.01 3.497.379 5.701.202 1.857-.14 3.502-.57 5.267-1.189.235-.087.776-.308.763-.512l-.072-.961c-.125-1.424-.343-3.876-.131-6.705l.061-1.56c.018-3.833-.944-7.257-2.898-8.398-.166-.094-1.2.351-2.141.714-.794.306-1.697.391-2.56.242l-.822.568c-.997.726-2.097 1.713-2.573 3.213-.405 1.276-.643 3.576-.776 5.96l-.12 3.207v.036c-.012.103-.012.215-.012.318l.062 4.79z" class="U"/><path d="M258.307 635.346c-.126-1.424-.343-3.876-.131-6.705l.061-1.56-1.479-2.662h-2.053s-1.501 8.025 3.602 10.927z" fill="#74acbe"/><path d="M274.211 642.714l-1.593-4.007c-.232-.579-.748-1.062-1.435-1.345a3.69 3.69 0 0 0-2.231-.162l-11.822 2.873c-.741.182-1.359.585-1.721 1.122s-.436 1.165-.207 1.745l1.592 4.007c.233.579.749 1.062 1.436 1.345a3.68 3.68 0 0 0 2.23.162l11.823-2.871c.741-.181 1.36-.585 1.722-1.123s.435-1.166.206-1.746z" class="J"/><path d="M275.788 642.381l-1.611-4.053c-.233-.581-.751-1.067-1.441-1.35s-1.494-.343-2.239-.163l-4.064.987-.343-.867a.72.72 0 0 0-.181-.26c-.082-.077-.183-.14-.296-.187s-.237-.075-.364-.084a1.23 1.23 0 0 0-.378.032l-.231.056-2.115.513-1.184.289a1.08 1.08 0 0 0-.333.142c-.099.064-.18.142-.239.231a.64.64 0 0 0-.107.285.61.61 0 0 0 .041.295l.343.867-2.35.566-.263.074h-.005-.012c-.669.225-1.207.635-1.512 1.151s-.357 1.102-.143 1.646l1.61 4.062c.201.499.612.93 1.166 1.222a3.61 3.61 0 0 0 1.886.387 3.83 3.83 0 0 0 .626-.096l11.796-2.867c.745-.181 1.368-.585 1.732-1.125a1.86 1.86 0 0 0 .211-1.753zm-14.158-3.412l-.344-.866c-.014-.036-.019-.073-.015-.11s.018-.074.04-.107.053-.062.09-.085.079-.042.124-.053l1.151-.28 1.966-.475.413-.1c.046-.011.093-.015.141-.012s.093.014.135.031a.35.35 0 0 1 .11.07c.031.028.054.062.068.097l.344.867-4.223 1.023z" class="K"/><path d="M262.3 635.844l.389.525s-.763 1.263 1.047 1.733c0 0 .776.154.845-.268s-.048-.26.065-.852-.185-1.127-.747-1.268l-.443-.332-1.156.462z" class="Y"/><path d="M263.331 635.986a8.59 8.59 0 0 1-1.538.067l-2.475-5.78c-.282-.483-6.512-6.21-6.512-6.21l2.595-5.08s6.739 8.803 7.426 10.04c1.13 2.043 1.523 6.625 1.523 6.625a3.29 3.29 0 0 1-1.019.338z" class="U"/><path d="M242.637 636.171l-1.525-2.204c-.006-.009-.015-.017-.025-.024s-.022-.011-.035-.014-.026-.004-.039-.003-.026.004-.038.009l-1.478.625c-.023.01-.041.027-.049.047s-.005.042.008.06l1.526 2.204c.012.019.034.032.06.038s.053.004.076-.006l1.478-.626c.024-.01.041-.027.049-.047s.004-.041-.008-.059z" class="K"/><path d="M242.282 636.246l-1.451-2.096c-.022-.032-.06-.056-.104-.066a.23.23 0 0 0-.133.01l-1.336.566c-.04.018-.07.047-.083.082s-.009.072.013.104l1.451 2.097c.022.031.06.055.104.065s.092.007.133-.01l1.341-.567c.039-.018.068-.048.08-.082s.006-.072-.015-.103z" class="J"/></g><defs><clipPath id="A"><path d="M0 0h1440v740H0z" class="B"/></clipPath><path id="B" d="M83.36 490.139h-5.93v28.27h5.93v-28.27z"/><path id="C" d="M28.662 466.529h-12.31v12.31h12.31v-12.31z"/><path id="D" d="M21.951 494.209H9.641v12.31h12.31v-12.31z"/><path id="E" d="M36.14 494.209H23.83v12.31h12.31v-12.31z"/><path id="F" d="M182.37 487.119h-9.22v18.89h9.22v-18.89z"/><path id="G" d="M179.28 580.039h-12.27v25.15h12.27v-25.15z"/><path id="H" d="M268.021 570.75h-13.4v13.39h13.4v-13.39z"/><path id="I" d="M268.021 588.929h-13.4v13.4h13.4v-13.4z"/><path id="J" d="M285.611 607.1h-13.39v13.4h13.39v-13.4z"/><path id="K" d="M336.761 534.77h-13.4v18.99h13.4v-18.99z"/><path id="L" d="M511.611 484.289h-40.41v3.86h40.41v-3.86z"/><path id="M" d="M716.682 656.569c.63.06.58.6.54 1.14 1.73.1 2.57-.45 2.66-1.52-.68-.53-3.19-.67-3.2.38z"/><path id="N" d="M692.081 657.709c-1 .93.58 1.86-.53 3.06 1.28-.16 1.16.7 2.67.38.19-1.79-.22-3.15-2.14-3.44z"/><path id="O" d="M551.461 621.439c-1.9 0-3.4.38-3.75 1.53.68.52 2.52.23 3.21.76.35-.8 1.42-1.73.54-2.29z"/><path id="P" d="M1246.52 570.379h-7.59v24.35h7.59v-24.35z"/><path id="Q" d="M1415.09 538.82h-37.85v12.71h37.85v-12.71z"/><path id="R" d="M961.882 487.15h-6.96v31.81h6.96v-31.81z"/><path id="S" d="M961.882 522.84h-6.96v7.88h6.96v-7.88z"/><path id="T" d="M767.481 399.36c.11-.3.44-.44 1.06-.38.12-.73-.6-.84-.53-1.53-.78.21-2.77-.44-2.68.38 1.26.17 1.2 1.17 2.15 1.53z"/><path id="U" d="M847.68 650.999c-.11 1.1.14 1.94 1.07 2.29.79-.71 2.93-.45 2.68-1.91-1.15-.3-3-.93-3.75-.38z"/><path id="V" d="M1034.83 702.169a1.88 1.88 0 0 0-.42.61 1.81 1.81 0 0 0-.15.725c0 .25.05.496.15.726s.24.437.42.609c1.51.32 1.39-.54 2.68-.38-.11-1.32-.45-2.46-2.68-2.29z"/><path id="W" d="M155.702 639.935c-1.027 0-1.882 0-2.909-.171 3.764 1.54 8.042 3.593 11.806 6.33 2.909 2.054 5.475 4.449 7.358 6.331h5.646s-9.924-12.148-21.901-12.49z"/><path id="X" d="M1371.01 683.964a5.49 5.49 0 0 1-5.49-5.483 5.49 5.49 0 0 1 5.49-5.483c3.02 0 5.48 2.455 5.48 5.483s-2.46 5.483-5.48 5.483z"/></defs></svg>