<svg xmlns="http://www.w3.org/2000/svg" width="380" height="266" fill="none" xmlns:v="https://vecta.io/nano"><style><![CDATA[.B{fill:#8fc4f2}.C{fill:#fff}.D{fill:#151414}.E{fill:#1775c8}.F{fill:#7fbbf0}.G{fill:#6fb3ee}.H{fill:#151313}.I{fill:#3f9ae9}]]></style><g clip-path="url(#A)"><path d="M210.949 91.422H15.969v195.345h194.98V91.422z" fill="#000"/><path d="M-127.508 289.118h564.253V87.004h-564.253v202.114z" class="C"/><path d="M13.851 301.937h907.614c75.229-26.86 216.545-172.603 153.715-188.988-67.64-17.637 46.57-73.721-57.62-93.519-68.033-12.927-347.073 61.519-392.109 33.69-52.914-32.697-140.815-72.495-304.525-41.569-126.262 23.852-229.619-2.344-436.234 11.5-106.243 7.119-79.666 143.465-69.76 156.052 8.629 10.962 92.336 61.647 13.004 85.592-116.329 35.113 183.173 36.596 185.915 37.242z" fill="#dfeefb"/><path d="M66.701 218.027s47.664-37.146 76.011-37.027 59.227 24.467 99.568 45.261c45.208 23.303-13.822 24.281-17.229 24.473s-120.949-2.363-122.909-3.621-33.345-17.369-33.345-17.369l-2.096-11.717z" class="B"/><path d="M311.268 219.142h2.014v-13.736h-2.014v13.736z" class="H"/><path d="M312.274 178.758l6.575 32.689h-13.15l6.575-32.689z" class="E"/><g class="C"><path opacity=".2" d="M316.467 199.593l-9.375 4.946.36-1.792 8.724-4.602.291 1.448zm-1.443-7.165l-5.741 1.208.27-1.342 5.223-1.099.248 1.233z"/></g><g class="E"><path d="M36.958 194.953l5.87 29.184h-11.74l5.87-29.184zm10.343 4.289l4.47 22.227H42.83l4.471-22.227zm8.939 6.617l4.471 22.227H51.77l4.471-22.227zm-30.267-4.382l5.87 29.184h-11.74l5.87-29.184z"/></g><path d="M48.168 210.55c50.918 5.212 127.319 52.052 185.511 52.052s70.722-11.203 92.543-8.834 51.117 8.834 51.117 8.834l-432.427.787S-2.75 205.338 48.168 210.55z" class="B"/><g class="E"><path d="M232.481 196.898l5.87 29.185h-11.74l5.87-29.185zm13.98 8.594l4.47 22.227h-8.941l4.471-22.227zm-35.227 11.863l4.471 22.227h-8.941l4.47-22.227zm10.263-13.941l5.87 29.184h-11.74l5.87-29.184z"/></g><path d="M278.961 210.55c-50.918 5.212-127.319 52.052-185.511 52.052S22.728 251.399.906 253.768s-51.117 8.834-51.117 8.834l432.427.787s-52.337-58.051-103.255-52.839z" class="B"/><path d="M261.535 254.28h2.298v-15.671h-2.298v15.671z" class="H"/><path d="M262.681 208.211l7.501 37.294H255.18l7.501-37.294z" class="E"/><g class="C"><path opacity=".2" d="M267.461 231.977l-10.695 5.642.411-2.044 9.952-5.251.332 1.653zm-1.646-8.172l-6.549 1.378.308-1.531 5.958-1.254.283 1.407z"/></g><path d="M287.5 260.964h2.193v-23.636H287.5v23.636z" class="H"/><path d="M288.023 195.188l10.804 47.708h-21.608l10.804-47.708z" class="E"/><g class="C"><path opacity=".2" d="M298.143 239.866l-19.387-3.76.293-1.294 18.773 3.641.321 1.413zm-3.419-15.073l-12.847-2.491.293-1.294 12.234 2.373.32 1.412z"/></g><path d="M-55.088 263.391S.738 233.558 72.72 231.725c24.171-.615 123.147 11.723 206.493 21.416 3.504.408 11.079 4.397 14.627 4.808 39.456 4.562 76.228 5.527 88.121 5.821l-437.049-.379z" class="F"/><path d="M393.687 230.574l.081-2.57c0-1.905-2.364-3.449-5.279-3.449-7.347 0-13.303 3.892-13.303 8.693v3.511c0 1.537-1.327 2.873-3.274 3.543-1.768.608-2.85 1.824-2.85 3.13v1.851c0 2.003 1.439 3.874 3.83 5.128 1.399.733 2.294 1.86 2.294 3.122v2.621c0 2.897 3.593 5.245 8.026 5.245h2.529c4.433 0 8.027-2.348 8.027-5.245h0c-.728-3.659 1.036-5.771 3.07-6.978 2.991-1.775 4.743-4.271 4.743-6.912v-.37c0-2.787-1.968-5.396-5.256-7.171-1.452-.783-2.638-2.062-2.638-4.149z" fill="#5faaec"/><g class="G"><path d="M401.948 264.442s-20.493-16.747-33.39-19.316-.741 7.633-.741 7.633-22.878-15.39-31.273-14.003c-7.696 1.272 0 10.812 0 10.812s-8.668-5.283-19.18-5.283 8.125 19.78 8.125 19.78l76.459.377z"/><path d="M336.543 264.065s-14.009-23.047-31.357-20.382c-14.06 2.16-4.064 13.757-4.921 13.229s-8.398-8.398-20.598-8.398 3.745 10.623 3.745 10.623-25.995-4.994-28.03.25c-1.689 4.353 7.758 4.678 7.758 4.678h73.403z"/></g><path d="M16.275 259.764c.079-.288.12-.582.12-.881 0-3.335-5.082-6.039-11.35-6.039s-11.35 2.704-11.35 6.039c0 .299.041.593.12.881h22.459z" class="F"/><g class="G"><path d="M29.122 258.282a6.48 6.48 0 0 0 .12-1.241c0-4.704-5.081-8.518-11.349-8.518s-11.35 3.814-11.35 8.518c0 .422.041.836.12 1.241h22.459z"/><path d="M24.968 263.498a3.31 3.31 0 0 1-.12-.88c0-3.336 5.081-6.04 11.349-6.04s11.35 2.704 11.35 6.04a3.31 3.31 0 0 1-.12.88H24.968z"/></g><path d="M6.803 263.497a5.17 5.17 0 0 1-.152-1.242c0-4.703 6.442-8.517 14.388-8.517s14.388 3.814 14.388 8.517a5.17 5.17 0 0 1-.152 1.242H6.803z" class="F"/><path d="M17.851 253.738c-3.971 0-7.519 1.21-9.861 3.107-1.192-.174-2.459-.268-3.773-.268-7.051 0-12.767 2.704-12.767 6.04 0 .299.046.593.135.88h38.897c.089-.405.135-.82.135-1.242 0-4.703-5.716-8.517-12.767-8.517z" class="G"/><g class="F"><path d="M1 234.466c-.755.782-1.839 1.268-2.939 1.401-.186-.814.083-1.731.838-2.513s1.839-1.268 2.939-1.401c.186.814-.083 1.731-.838 2.513zm-3.164 3.425c1.128.01 2.114.36 2.76.906-.721.533-1.755.865-2.883.854s-2.114-.36-2.76-.905c.721-.533 1.755-.865 2.883-.855zm-38.837 25.401c0-.895 8.791.162 9.523-1.059s-7.53-1.29-7.53-2.941 4.21-.493 6.679-.493-4.874-.707-4.874-1.291 2.576-.278 2.576-.898-13.528-1.088-11.945-2.607 8.856.443 10.853-.343-10.669-1.642-10.982-2.811 9.332 1.002 10.698.161-15.252-3.86-14.556-6.079 12.596 2.842 15.571 2.297-15.001-8.336-10.824-11.372 12.153 10.048 14.875 9.581-3.409-8.268-.628-9.625 10.761 10.982 11.265 13.516 1.517-5.45 5.884-6.384.127 4.946.886 6.737 4.304-4.595 9.083-4.127-8.64 6.308-7.311 8.021 11.691-5.72 14.938-3.722-12.481 7.541-11.621 9.059 10.296-1.083 13.013.588-10.137 2.733-11.841 2.733-8.218 1.318-1.857 1.059-31.876.895-31.876 0z"/></g><path d="M-15.941 264.327s10.587.349 13.669-.844.65-2.123.65-2.123 9.79-.132 9.765-1.558-2.397-1.345-2.397-1.345 4.941-2.066 4.02-3.354C8.349 253.124.3 256.57.3 256.57s2.638-1.928.507-2.378c-5.852-1.237-16.748 10.135-16.748 10.135z" class="G"/><g class="F"><path d="M9.765 255.102c.922 1.287-4.02 3.353-4.02 3.353s3.567-.029 2.988 1.359c-.577 1.382-9.543 1.849-9.543 1.849s3.131.376.048 1.57-15.179 1.093-15.179 1.093l25.706-9.224zm-32.123-58.695c-.131-1.054-.199-2.131-.199-3.227 0-12.224 8.433-22.133 18.836-22.133s18.836 9.909 18.836 22.133c0 1.096-.068 2.173-.199 3.227h-37.274z"/></g><path d="M-24.968 174.328c6.591 0 12.479 4.434 16.365 11.387 1.979-.639 4.081-.983 6.261-.983 11.702 0 21.188 9.91 21.188 22.134a23.26 23.26 0 0 1-.224 3.226h-64.555c-.147-1.485-.224-3.004-.224-4.55 0-17.239 9.487-31.214 21.188-31.214z" class="G"/><g fill="#5faaec"><path d="M377.321 231.124l-.08-2.569c0-1.905 2.363-3.45 5.278-3.45 7.348 0 13.303 3.893 13.303 8.694v3.51c0 1.538 1.328 2.874 3.275 3.544 1.768.608 2.849 1.824 2.849 3.13v1.851c0 2.003-1.439 3.874-3.83 5.128-1.398.733-2.294 1.859-2.294 3.122v2.621c0 2.896-3.593 5.245-8.026 5.245h-2.529c-4.433 0-8.026-2.349-8.026-5.245v-.001c.727-3.659-1.036-5.771-3.071-6.978-2.991-1.775-4.742-4.271-4.742-6.911v-.371c0-2.787 1.967-5.396 5.256-7.17 1.452-.783 2.637-2.062 2.637-4.15z"/><path d="M369.062 264.992s20.494-16.746 33.39-19.315.742 7.633.742 7.633 22.878-15.39 31.273-14.003c7.696 1.272 0 10.811 0 10.811s8.668-5.282 19.179-5.282-8.124 19.78-8.124 19.78l-76.46.376z"/></g><g class="C"><path opacity=".2" d="M138.461 146.376c-.848-2.271-4.15-3.964-8.098-3.964-.724 0-1.427.057-2.097.164-1.948-2.563-6.176-4.338-11.079-4.338-1.268 0-2.49.118-3.64.338-2.639-2.688-7.434-4.486-12.912-4.486-6.518 0-12.069 2.545-14.172 6.107-1.489-.51-3.203-.803-5.029-.803-5.713 0-10.344 2.85-10.344 6.364 0 .209.017.414.049.618h67.322zm91.775 39.697c.409-1.094 1.998-1.909 3.899-1.909a6.37 6.37 0 0 1 1.011.079c.938-1.234 2.974-2.089 5.335-2.089a9.33 9.33 0 0 1 1.752.163c1.271-1.295 3.58-2.161 6.219-2.161 3.138 0 5.811 1.226 6.824 2.941a7.51 7.51 0 0 1 2.422-.386c2.751 0 4.981 1.372 4.981 3.064 0 .101-.008.2-.024.298h-32.419zm-56.917-14.216c-.502-1.344-2.456-2.346-4.792-2.346a7.91 7.91 0 0 0-1.241.097c-1.153-1.517-3.655-2.567-6.557-2.567-.75 0-1.473.07-2.154.2-1.562-1.591-4.4-2.655-7.641-2.655-3.857 0-7.142 1.506-8.387 3.614-.881-.302-1.896-.475-2.976-.475-3.381 0-6.122 1.686-6.122 3.766 0 .123.011.245.029.366h39.841zm77.611-15.78c-.678-1.814-3.317-3.168-6.472-3.168a10.7 10.7 0 0 0-1.676.131c-1.557-2.048-4.936-3.467-8.855-3.467-1.013 0-1.99.095-2.909.271-2.109-2.149-5.941-3.586-10.32-3.586-5.208 0-9.645 2.034-11.326 4.881-1.19-.408-2.56-.642-4.019-.642-4.566 0-8.267 2.277-8.267 5.086a3.25 3.25 0 0 0 .039.494h53.805zM33.879 178.235c.338-.905 1.653-1.58 3.226-1.58a5.26 5.26 0 0 1 .836.066c.776-1.021 2.461-1.729 4.414-1.729.505 0 .992.048 1.45.135 1.052-1.071 2.962-1.787 5.145-1.787 2.597 0 4.808 1.014 5.646 2.433.593-.203 1.276-.32 2.003-.32 2.276 0 4.121 1.135 4.121 2.535a1.6 1.6 0 0 1-.02.247H33.879zM1.613 112.599c-.616-1.65-3.015-2.88-5.884-2.88a9.65 9.65 0 0 0-1.524.119c-1.416-1.862-4.488-3.153-8.05-3.153-.921 0-1.809.087-2.645.247-1.918-1.954-5.402-3.26-9.382-3.26-4.736 0-8.769 1.849-10.298 4.437-1.082-.371-2.327-.583-3.654-.583-4.151 0-7.516 2.07-7.516 4.624a2.89 2.89 0 0 0 .036.449H1.613zm307.668 13.008c-1.322-3.539-6.47-6.179-12.624-6.179a20.74 20.74 0 0 0-3.27.256c-3.037-3.996-9.629-6.764-17.273-6.764-1.976 0-3.882.185-5.674.528-4.115-4.192-11.591-6.995-20.132-6.995-10.161 0-18.816 3.968-22.095 9.522-2.321-.796-4.994-1.252-7.84-1.252-8.907 0-16.127 4.442-16.127 9.922a6.15 6.15 0 0 0 .077.962h104.958zm37.896 36.692c-.414-1.108-2.025-1.934-3.951-1.934-.353 0-.696.028-1.023.08-.951-1.25-3.014-2.117-5.406-2.117-.618 0-1.214.058-1.775.166-1.288-1.312-3.628-2.189-6.301-2.189-3.179 0-5.888 1.241-6.914 2.979-.727-.249-1.563-.391-2.454-.391-2.787 0-5.046 1.39-5.046 3.105a1.89 1.89 0 0 0 .024.301h32.846zm69.024-26.871c-.678-1.814-3.317-3.167-6.471-3.167a10.6 10.6 0 0 0-1.677.131c-1.557-2.048-4.936-3.468-8.854-3.468-1.013 0-1.99.095-2.909.271-2.11-2.149-5.942-3.586-10.32-3.586-5.209 0-9.646 2.034-11.327 4.882-1.189-.409-2.559-.642-4.019-.642-4.565 0-8.267 2.277-8.267 5.086 0 .166.014.331.04.493h53.804zm-203.086 33.546c.291-.777 1.422-1.357 2.774-1.357.248 0 .489.019.719.056.667-.878 2.116-1.487 3.795-1.487.434 0 .853.041 1.247.117.904-.922 2.547-1.537 4.424-1.537 2.232 0 4.134.871 4.855 2.092.51-.175 1.097-.275 1.722-.275 1.957 0 3.544.976 3.544 2.18 0 .071-.006.142-.017.211h-23.063z"/></g><path d="M963.545 265.972H-127.886c-2.288 0-4.143-.643-4.143-1.435s1.855-1.435 4.143-1.435H963.545c2.288 0 4.143.642 4.143 1.435s-1.855 1.435-4.143 1.435z" fill="#4fa2ea"/><path d="M106.987 233.433l.001-.222 26.245 2.233.094.115-26.34-2.126z" fill="#c4ddf9"/><g class="C"><path d="M9.56 125.284c-.21.077-.377.015-.557-.117l.514.667-.028.033c-.239-.035-.402-.224-.595-.396.128.262.286.485.34.799-.272-.163-.432-.409-.607-.686.106.308.234.57.245.907-.245-.206-.364-.474-.501-.754.021.257.116.488.084.732l-.04.023-.293-.449-.044.212-.274-.22c-.016.008-.047.039-.064.031l-.531-.27c-.123.045-.184.004-.224-.198-.096.061-.193.127-.283.004-.181.094-.207.089-.263-.03-.072-.001-.171.027-.193-.008-.065-.102-.277.076-.244-.152-.118-.08-.266-.065-.36-.205-.132.017-.132.017-.167-.101-.076.001-.181.053-.177-.106-.176.001-.176.001-.152-.151l-.198.008.048-.192-.201.026-.002-.127-.126-.007.016-.107-.124-.106c-.006.008-.033.036-.047.071l-.389 1.002c-.003.008-.005.019-.01.024-.048.054-.097.151-.144.15-.053-.003-.103-.093-.167-.157-.126.054-.214.033-.273-.076l-.248.033-.035-.17c-.035.015-.066.038-.099.041-.045.004-.119.01-.131-.014-.052-.111-.134-.15-.233-.175-.01-.003-.021-.085-.006-.114.036-.074.086-.138.138-.219-.108.045-.22.158-.304.034-.037-.055.011-.182.021-.277l-.21-.023.041-.276-.107-.066.097-.232c-.119-.1-.109-.157.06-.31l-.172-.181c.047-.114.126-.117.208-.117l.588-.002c.037-.001.074-.009.119-.037-.099-.011-.204-.001-.193-.167-.145.047-.181-.038-.175-.166-.052 0-.112.019-.144-.006s-.03-.095-.045-.157c-.138.058-.152-.045-.143-.171-.077.008-.166.051-.153-.103.002-.022-.066-.051-.085-.092-.032-.045-.073-.086-.095-.136s-.018-.103-.027-.166c-.064-.043-.148-.092-.221-.156-.02-.016-.008-.079-.012-.127-.111-.073-.111-.089.015-.273-.041.008-.078.025-.113.021-.026-.003-.071-.035-.071-.052.003-.099.017-.198.027-.298-.036-.007-.097 0-.135-.031s-.045-.095-.079-.177c-.05-.023-.156-.048-.102-.192l-.357-.318.371-.117-.524-.094-.007-.039.237-.073c.082-.017.167-.022.25-.029s.173-.008.26-.03l-.809-.122c.254-.148.523-.107.793-.12l-.661-.19c.151-.089.307-.074.461-.053l.446.082-.802-.421.014-.045c.339-.014.638.168.954.273-.231-.208-.491-.376-.67-.653.376.115.68.38 1.017.584l-.432-.49.021-.034c.027.009.058.011.08.028l.511.375 1.341 1.158a1.25 1.25 0 0 1 .264.355c.238.459.522.875.871 1.23.198.202.592.23.836.099a.82.82 0 0 1 .298-.083c.14-.015.185.034.215.178-.045.047-.092.079-.118.125l-.201.397c-.038.066-.03.108.018.148l.294.23c.373.246.751.478 1.159.649.203.085.381.245.573.367l.755.471.407.233.026-.03-.399.038.563.401zm100.313-26.381l.025-.025.073-.014c-.244.298-.537.504-.823.719l.019.027.963-.628c-.199.296-.529.424-.802.624l.011.019.98-.442.011.02c-.236.197-.529.296-.789.455l.684-.197.01.029-.519.228.005.021.297-.056.013.028-.156.109c-.02.016-.027.048-.043.07a.71.71 0 0 1-.072.092c-.027.028-.058.047-.095.077.079.033.059.067.007.103s-.125.065-.111.155c.001.012-.018.033-.032.04a.71.71 0 0 0-.224.195l-.176.204c-.017.018-.042.029-.065.04l-.135.059-.578.294-.267.126c-.022.011-.034.04-.056.052-.035.02-.075.034-.113.049-.02.008-.042.013-.063.019-.043.012-.087.023-.134.024-.053.05-.104.108-.192.063-.116.169-.314.101-.466.186.018.093-.084.097-.161.154.034.018.057.04.081.041l.95.045c.051.003.101.013.151.019l.019.037-.101.073c.026.046.079.098.07.131-.013.044-.075.074-.116.111.103.162.103.162-.017.262.056.146.052.151-.163.195-.01.048-.008.118-.031.127-.051.022-.115.021-.173.014-.039-.005-.075-.035-.124-.06l.046.154c.013.056-.016.078-.07.084-.035.005-.067.028-.102.039-.024.007-.049.009-.074.011-.014.001-.028-.006-.041-.005-.157.015-.157.015-.259-.057-.181.211-.287-.038-.439-.07l.098.162c.007.013.002.047-.008.052-.038.021-.083.052-.122.047-.075-.011-.131-.06-.15-.14l-.029-.098c-.188.042-.251-.008-.26-.196l-.001-.053c0-.079.023-.167-.005-.233s-.107-.102-.18-.166c-.029.033-.057.069-.091.098-.02.018-.051.023-.078.034l-.392.165-.407.183c-.016.007-.03.02-.042.033s-.011.032-.021.037l-.351.152a.95.95 0 0 1-.127.043l-.303.069c-.017.004-.046-.004-.05.004-.076.142-.25.104-.355.196-.029.025-.094.009-.143.013-.023.002-.048.004-.07.012-.081.033-.152.104-.253.06-.013-.005-.039.019-.059.03l-.226.135.008-.164-.357.304c-.007-.006-.014-.011-.022-.017l.194-.353-.02-.012-.548.465-.03-.03.43-.486-.713.483-.023-.03.61-.501-.015-.02c-.252.16-.491.345-.782.436l.753-.484-.012-.02-.824.4-.018-.034c.542-.216 1.024-.531 1.479-.894l-.092.022c-.028.005-.056.008-.091-.006l.158-.071.586-.332a1.31 1.31 0 0 1 .197-.093l.89-.312.459-.143c.122-.042.129-.067.137-.198.002-.033.03-.073.057-.095s.07-.038.105-.037c.201.001.365-.132.559-.149.281-.026.494-.177.718-.317.178-.112.39-.17.575-.273.172-.095.332-.213.492-.328.119-.087.229-.186.343-.279l.023.061c.412-.14.62-.459.746-.85l.075-.223c.06.153-.005.321-.282.745.029-.016.046-.021.059-.032a2.68 2.68 0 0 0 .709-.89c.024-.048.057-.092.086-.137a.65.65 0 0 1-.153.435l-.396.441-.038.046c.355-.205.65-.48.96-.738z"/></g><g class="D"><path d="M142.813 266a7.34 7.34 0 1 0 0-14.68 7.34 7.34 0 1 0 0 14.68zm-47.842-7.34a7.34 7.34 0 1 1-14.68 0 7.34 7.34 0 1 1 14.68 0z"/></g><path d="M167.957 243.981c-1.088-10.466-2.311-18.894-4.078-24.874-1.767-5.845-1.903-9.107-10.874-9.107H42.635c-2.582 0-4.621 1.223-5.573 4.35h88.35c4.213 0 3.67 10.737 3.806 23.378l-.123 20.319 37.094-.066c-.136 0 2.718-3.942 1.767-14z" class="I"/><path d="M125.413 214.348h-88.35c-.408 1.359-.68 2.99-.68 5.029v33.845l5.573 5.029 87.263-.136v-27.728c0-12.641.407-16.039-3.806-16.039z" fill="#1e88e5"/><g class="B"><path d="M93.607 258.258s-3.262-10.058-19.845-14.136c-12.641-3.126-16.447-14-16.447-14l-3.262-.544s-.816 2.447 1.631 6.796c2.311 4.486 5.301 6.253 5.301 6.253s-8.155-.408-15.631-6.389c-3.398-2.718-3.398-6.116-3.398-6.116h-3.534s.408 7.204 3.126 9.514c5.981 5.166 13.049 6.661 20.796 9.379 10.738 3.806 12.233 9.243 12.233 9.243h19.029zm-20.39-29.092s3.67 10.33 11.01 11.689c13.321 2.447 17.806 7.34 17.806 7.34s-1.359-4.893-5.709-7.612c-5.573-3.534-10.194-2.446-11.553-8.563-.816-3.534-11.553-2.854-11.553-2.854z"/></g><path d="M77.027 247.516s4.486 2.038 7.204 5.437 3.262 5.436 3.262 5.436h4.621s-2.99-4.893-6.66-7.203c-3.67-2.447-8.427-3.67-8.427-3.67z" fill="#1e88e5"/><path d="M166.054 257.98l-120.7-1.631c-5.165 0-8.971-3.126-8.971-3.126s.816 5.029 8.563 6.796c4.486.951 95.962.951 115.127.951 2.175 0 4.078-.815 5.573-2.446l.408-.544z" class="D"/><g class="B"><path d="M133.161 243.98s-.136 4.622 3.67 5.981c3.67 1.495 8.971 2.311 8.971 2.311s.407-3.262-2.855-5.029c-3.534-1.767-9.786-3.263-9.786-3.263zm34.797 0s-1.903 1.903-2.99 4.214-1.495 4.214-1.495 4.214 4.077-.952 4.757-2.039c.272-3.398-.272-6.389-.272-6.389zm-105.75-13.727s-.272 3.942 4.893 7.884c3.262 2.582 7.884 3.398 7.884 3.398s-6.117-5.165-7.748-8.292l-1.495-3.126-3.534.136z"/></g><g class="D"><path d="M161.975 259.471v-1.087c0-1.631-1.359-3.126-3.126-3.126h-10.33c-1.631 0-3.126 1.359-3.126 3.126v1.087h16.582zm5.71-18.479s-.408-4.349-1.359-11.689c-1.088-7.34-4.078-14.951-4.078-14.951h-25.01c.136 4.349.408 15.359 2.039 21.883.816 3.126 2.039 5.301 3.398 6.932 3.534.408 7.884.816 12.641.816 7.34 0 12.369-2.991 12.369-2.991z"/></g><g class="B"><path d="M137.374 214.352c-2.039 0-5.165.815-5.165 4.349 0 5.301.408 13.321.816 18.35.135 2.718 2.31 5.029 5.165 5.573 1.359.271 2.854.407 4.621.679-1.359-1.631-2.718-3.942-3.398-6.932-1.631-6.66-1.903-17.67-2.039-22.019zm-52.603 28s.952 2.99 4.214 4.485c5.029 2.311 7.612 8.563 7.612 8.563s.272-4.485-.951-6.66c-1.087-1.903-3.262-3.126-5.301-3.806-2.719-.951-5.573-2.582-5.573-2.582z"/></g><g class="D"><path d="M70.637 218.43h-16.99v14.679h16.99V218.43zm18.486 0h-16.99v14.679h16.99V218.43zm-50.699 14.812h13.728v-14.68H38.424v14.68zm86.856 17.942v-32.486-.136h-16.175v25.282c3.806.544 10.603.952 16.175 7.34zm-17.536-32.754h-16.99v14.679h16.99V218.43z"/></g><g class="B"><path d="M70.637 214.348h-16.99v4.077h16.99v-4.077zm18.486 0h-16.99v4.077h16.99v-4.077zm-48.66 0c-2.039 0-2.039 2.99-2.039 4.077h13.728v-4.077H40.463zm80.737 0h-11.962v4.077h16.175c-.136-2.174-2.039-4.077-4.213-4.077zm-13.456 0h-16.99v4.077h16.99v-4.077z"/></g><path d="M57.861 265.996a7.34 7.34 0 0 0 0-14.68 7.34 7.34 0 0 0 0 14.68z" class="D"/><path d="M57.859 263.143c2.477 0 4.486-2.008 4.486-4.486s-2.008-4.485-4.486-4.485-4.486 2.008-4.486 4.485 2.008 4.486 4.486 4.486z" class="I"/><g class="D"><path d="M57.863 260.154c.826 0 1.495-.669 1.495-1.495s-.669-1.495-1.495-1.495-1.495.669-1.495 1.495.669 1.495 1.495 1.495zm53.953 5.842a7.34 7.34 0 0 0 0-14.68 7.34 7.34 0 0 0 0 14.68z"/></g><path d="M111.814 263.143c2.477 0 4.485-2.008 4.485-4.486s-2.008-4.485-4.485-4.485-4.486 2.008-4.486 4.485 2.008 4.486 4.486 4.486z" class="I"/><path d="M111.818 260.154c.825 0 1.495-.669 1.495-1.495s-.67-1.495-1.495-1.495-1.496.669-1.496 1.495.67 1.495 1.496 1.495z" class="D"/><path d="M103.395 243.844s2.31 4.757 7.339 5.029c5.845.272 9.787 4.078 9.787 4.078s-1.495-3.942-5.301-5.981c-5.981-3.126-9.107-1.767-11.825-3.126z" class="B"/></g><defs><clipPath id="A"><path d="M0 0h588v266H0z" class="C"/></clipPath></defs></svg>