<svg width="36" height="35" viewBox="0 0 36 35" fill="none" xmlns="http://www.w3.org/2000/svg">
<g clip-path="url(#clip0_1470_25221)">
<path d="M11.5482 8.90441C13.8135 7.39351 16.5268 6.7016 19.239 6.94325C22.0616 7.19019 24.5701 8.39474 26.4725 10.2101L28.5713 8.449L30.2851 10.4915L28.1863 12.2526C29.4374 14.1343 30.1317 16.331 30.1894 18.5899C30.247 20.8488 29.6658 23.0781 28.5124 25.0213C27.3591 26.9644 25.6805 28.5424 23.6699 29.5737C21.6593 30.6049 19.3984 31.0476 17.1474 30.8506C14.8964 30.6537 12.7467 29.8252 10.9457 28.4604C9.14474 27.0957 7.76571 25.2502 6.9673 23.1363C6.16889 21.0224 5.98356 18.7261 6.43262 16.5115C6.88169 14.2969 7.9469 12.2541 9.50568 10.6182L7.74446 8.52076L9.78693 6.80692L11.548 8.90573L11.5482 8.90441ZM19.6376 17.6855L20.1611 11.7017L12.7639 19.761L16.7487 20.1096L16.2257 26.0868L23.6224 18.0342L19.6376 17.6855ZM14.2746 2.49364L24.9007 3.4233L24.6683 6.07982L14.0422 5.15016L14.2746 2.49364Z" fill="white"/>
</g>
<defs>
<clipPath id="clip0_1470_25221">
<rect width="32" height="32" fill="white" transform="translate(3.76471 0.23584) rotate(5)"/>
</clipPath>
</defs>
</svg>
